NotoSerifBengali-Medium.ufo
<glyph name="exclam" format="2">
  <advance width="351.48275862068965"/>
  <unicode hex="0021"/>
  <outline>
    <contour>
      <point x="160.9655172413793" y="202.9655172413793" type="line"/>
      <point x="206.17241379310346" y="202.9655172413793" type="line"/>
      <point x="242.58620689655172" y="714.0" type="line"/>
      <point x="124.55172413793103" y="714.0" type="line"/>
    </contour>
    <contour>
      <point x="183.3448275862069" y="-7.275862068965517" type="curve" smooth="yes"/>
      <point x="217.27586206896552" y="-7.275862068965517"/>
      <point x="246.93103448275863" y="9.551724137931034"/>
      <point x="246.93103448275863" y="61.206896551724135" type="curve" smooth="yes"/>
      <point x="246.93103448275863" y="112.13793103448276"/>
      <point x="217.27586206896552" y="128.68965517241378"/>
      <point x="183.3448275862069" y="128.68965517241378" type="curve" smooth="yes"/>
      <point x="148.13793103448276" y="128.68965517241378"/>
      <point x="119.48275862068965" y="112.13793103448276"/>
      <point x="119.48275862068965" y="61.206896551724135" type="curve" smooth="yes"/>
      <point x="119.48275862068965" y="9.551724137931034"/>
      <point x="148.13793103448276" y="-7.275862068965517"/>
    </contour>
  </outline>
</glyph>
<glyph name="quotedbl" format="2">
  <advance width="413.7586206896552"/>
  <unicode hex="0022"/>
  <outline>
    <contour>
      <point x="279.86206896551727" y="476.55172413793105" type="line"/>
      <point x="326.7241379310345" y="476.55172413793105" type="line"/>
      <point x="355.82758620689657" y="714.0" type="line"/>
      <point x="246.72413793103448" y="714.0" type="line"/>
    </contour>
    <contour>
      <point x="87.6896551724138" y="476.55172413793105" type="line"/>
      <point x="135.55172413793105" y="476.55172413793105" type="line"/>
      <point x="166.31034482758622" y="714.0" type="line"/>
      <point x="57.6551724137931" y="714.0" type="line"/>
    </contour>
  </outline>
</glyph>
<glyph name="numbersign" format="2">
  <advance width="559.0"/>
  <unicode hex="0023"/>
  <outline>
    <contour>
      <point x="80.55172413793103" y="0.0" type="line"/>
      <point x="140.0344827586207" y="0.0" type="line"/>
      <point x="178.0344827586207" y="204.17241379310346" type="line"/>
      <point x="315.51724137931035" y="204.17241379310346" type="line"/>
      <point x="276.7931034482759" y="0.0" type="line"/>
      <point x="336.2758620689655" y="0.0" type="line"/>
      <point x="374.7241379310345" y="204.17241379310346" type="line"/>
      <point x="500.7241379310345" y="204.17241379310346" type="line"/>
      <point x="500.7241379310345" y="261.37931034482756" type="line"/>
      <point x="386.2758620689655" y="261.37931034482756" type="line"/>
      <point x="422.7241379310345" y="458.3448275862069" type="line"/>
      <point x="533.448275862069" y="458.3448275862069" type="line"/>
      <point x="533.448275862069" y="516.551724137931" type="line"/>
      <point x="434.2758620689655" y="516.551724137931" type="line"/>
      <point x="472.0" y="714.0" type="line"/>
      <point x="412.51724137931035" y="714.0" type="line"/>
      <point x="374.7931034482759" y="516.551724137931" type="line"/>
      <point x="237.31034482758622" y="516.551724137931" type="line"/>
      <point x="274.3103448275862" y="714.0" type="line"/>
      <point x="214.55172413793105" y="714.0" type="line"/>
      <point x="178.10344827586206" y="516.551724137931" type="line"/>
      <point x="57.55172413793103" y="516.551724137931" type="line"/>
      <point x="57.55172413793103" y="458.3448275862069" type="line"/>
      <point x="167.55172413793105" y="458.3448275862069" type="line"/>
      <point x="129.10344827586206" y="261.37931034482756" type="line"/>
      <point x="24.551724137931036" y="261.37931034482756" type="line"/>
      <point x="24.551724137931036" y="204.17241379310346" type="line"/>
      <point x="118.82758620689656" y="204.17241379310346" type="line"/>
    </contour>
    <contour>
      <point x="190.31034482758622" y="261.37931034482756" type="line"/>
      <point x="226.75862068965517" y="458.3448275862069" type="line"/>
      <point x="364.51724137931035" y="458.3448275862069" type="line"/>
      <point x="327.7931034482759" y="261.37931034482756" type="line"/>
    </contour>
  </outline>
</glyph>
<glyph name="percent" format="2">
  <advance width="896.6551724137931"/>
  <unicode hex="0025"/>
  <outline>
    <contour>
      <point x="234.82758620689654" y="0.0" type="line"/>
      <point x="299.58620689655174" y="0.0" type="line"/>
      <point x="657.1034482758621" y="714.0" type="line"/>
      <point x="592.6206896551724" y="714.0" type="line"/>
    </contour>
    <contour>
      <point x="208.82758620689654" y="280.0" type="curve" smooth="yes"/>
      <point x="320.0344827586207" y="280.0"/>
      <point x="374.13793103448273" y="369.0"/>
      <point x="374.13793103448273" y="503.0" type="curve"/>
      <point x="374.13793103448273" y="637.0"/>
      <point x="319.3103448275862" y="724.0"/>
      <point x="209.82758620689654" y="724.0" type="curve" smooth="yes"/>
      <point x="93.62068965517241" y="724.0"/>
      <point x="44.06896551724138" y="637.0"/>
      <point x="44.06896551724138" y="503.0" type="curve" smooth="yes"/>
      <point x="44.06896551724138" y="369.0"/>
      <point x="92.89655172413794" y="280.0"/>
    </contour>
    <contour>
      <point x="208.82758620689654" y="320.9310344827586" type="curve" smooth="yes"/>
      <point x="153.48275862068965" y="320.9310344827586"/>
      <point x="131.75862068965517" y="388.1034482758621"/>
      <point x="131.75862068965517" y="503.0" type="curve"/>
      <point x="131.75862068965517" y="615.1724137931035"/>
      <point x="152.48275862068965" y="682.0689655172414"/>
      <point x="209.10344827586206" y="682.0689655172414" type="curve" smooth="yes"/>
      <point x="265.7241379310345" y="682.0689655172414"/>
      <point x="285.17241379310343" y="616.6206896551724"/>
      <point x="285.17241379310343" y="503.0" type="curve" smooth="yes"/>
      <point x="285.17241379310343" y="388.82758620689657"/>
      <point x="265.7241379310345" y="320.9310344827586"/>
    </contour>
    <contour>
      <point x="686.8275862068965" y="-10.0" type="curve" smooth="yes"/>
      <point x="798.0344827586207" y="-10.0"/>
      <point x="852.1379310344828" y="79.0"/>
      <point x="852.1379310344828" y="213.0" type="curve" smooth="yes"/>
      <point x="852.1379310344828" y="347.0"/>
      <point x="797.3103448275862" y="434.0"/>
      <point x="687.8275862068965" y="434.0" type="curve" smooth="yes"/>
      <point x="570.8965517241379" y="434.0"/>
      <point x="522.0689655172414" y="347.0"/>
      <point x="522.0689655172414" y="213.0" type="curve" smooth="yes"/>
      <point x="522.0689655172414" y="79.0"/>
      <point x="570.8965517241379" y="-10.0"/>
    </contour>
    <contour>
      <point x="686.8275862068965" y="30.93103448275862" type="curve" smooth="yes"/>
      <point x="631.4827586206897" y="30.93103448275862"/>
      <point x="609.7586206896551" y="98.10344827586206"/>
      <point x="609.7586206896551" y="213.0" type="curve" smooth="yes"/>
      <point x="609.7586206896551" y="325.17241379310343"/>
      <point x="630.4827586206897" y="392.0689655172414"/>
      <point x="687.8275862068965" y="392.0689655172414" type="curve" smooth="yes"/>
      <point x="743.7241379310345" y="392.0689655172414"/>
      <point x="762.1724137931035" y="326.62068965517244"/>
      <point x="762.1724137931035" y="213.0" type="curve" smooth="yes"/>
      <point x="762.1724137931035" y="98.82758620689656"/>
      <point x="743.7241379310345" y="30.93103448275862"/>
    </contour>
  </outline>
</glyph>
<glyph name="quotesingle" format="2">
  <advance width="224.24137931034483"/>
  <unicode hex="0027"/>
  <outline>
    <contour>
      <point x="87.6896551724138" y="476.55172413793105" type="line"/>
      <point x="135.55172413793105" y="476.55172413793105" type="line"/>
      <point x="166.31034482758622" y="714.0" type="line"/>
      <point x="57.6551724137931" y="714.0" type="line"/>
    </contour>
  </outline>
</glyph>
<glyph name="parenleft" format="2">
  <advance width="385.2413793103448"/>
  <unicode hex="0028"/>
  <outline>
    <contour>
      <point x="295.58620689655174" y="-128.20689655172413" type="curve"/>
      <point x="295.58620689655174" y="-81.62068965517241" type="line"/>
      <point x="159.79310344827587" y="0.3793103448275865"/>
      <point x="142.41379310344828" y="158.27586206896552"/>
      <point x="142.41379310344828" y="317.2758620689655" type="curve" smooth="yes"/>
      <point x="142.41379310344828" y="476.0"/>
      <point x="159.79310344827587" y="633.6206896551724"/>
      <point x="295.58620689655174" y="714.1724137931035" type="curve"/>
      <point x="295.58620689655174" y="760.2068965517242" type="line"/>
      <point x="109.41379310344827" y="687.1724137931035"/>
      <point x="35.6551724137931" y="555.5862068965517"/>
      <point x="35.6551724137931" y="317.2758620689655" type="curve" smooth="yes"/>
      <point x="35.6551724137931" y="77.6896551724138"/>
      <point x="109.41379310344827" y="-55.172413793103445"/>
    </contour>
  </outline>
</glyph>
<glyph name="parenright" format="2">
  <advance width="414.2413793103448"/>
  <unicode hex="0029"/>
  <outline>
    <contour>
      <point x="118.65517241379311" y="-128.20689655172413" type="line"/>
      <point x="304.82758620689657" y="-55.172413793103445"/>
      <point x="378.58620689655174" y="77.6896551724138"/>
      <point x="378.58620689655174" y="317.2758620689655" type="curve" smooth="yes"/>
      <point x="378.58620689655174" y="555.5862068965517"/>
      <point x="304.82758620689657" y="687.1724137931035"/>
      <point x="118.65517241379311" y="760.2068965517242" type="curve"/>
      <point x="118.65517241379311" y="714.1724137931035" type="line"/>
      <point x="254.17241379310346" y="633.6206896551724"/>
      <point x="271.82758620689657" y="476.0"/>
      <point x="271.82758620689657" y="317.2758620689655" type="curve" smooth="yes"/>
      <point x="271.82758620689657" y="158.27586206896552"/>
      <point x="254.17241379310346" y="0.3793103448275865"/>
      <point x="118.65517241379311" y="-81.62068965517241" type="curve"/>
    </contour>
  </outline>
</glyph>
<glyph name="asterisk" format="2">
  <advance width="493.6551724137931"/>
  <unicode hex="002A"/>
  <outline>
    <contour>
      <point x="201.17241379310346" y="376.3448275862069" type="line"/>
      <point x="288.58620689655174" y="376.3448275862069" type="line"/>
      <point x="260.2068965517241" y="536.6206896551724" type="line"/>
      <point x="412.6551724137931" y="441.6896551724138" type="line"/>
      <point x="447.86206896551727" y="519.8275862068965" type="line"/>
      <point x="282.7931034482759" y="568.1724137931035" type="line"/>
      <point x="447.86206896551727" y="617.2413793103449" type="line"/>
      <point x="412.6551724137931" y="694.6551724137931" type="line"/>
      <point x="260.2068965517241" y="599.7241379310345" type="line"/>
      <point x="288.13793103448273" y="760.0" type="line"/>
      <point x="201.17241379310346" y="760.0" type="line"/>
      <point x="227.27586206896552" y="599.448275862069" type="line"/>
      <point x="75.82758620689656" y="697.3793103448276" type="line"/>
      <point x="40.172413793103445" y="618.2413793103449" type="line"/>
      <point x="205.24137931034483" y="568.1724137931035" type="line"/>
      <point x="40.172413793103445" y="518.8275862068965" type="line"/>
      <point x="75.82758620689656" y="439.6896551724138" type="line"/>
      <point x="226.55172413793105" y="536.6206896551724" type="line"/>
    </contour>
  </outline>
</glyph>
<glyph name="plus" format="2">
  <advance width="559.0"/>
  <unicode hex="002B"/>
  <outline>
    <contour>
      <point x="248.89655172413794" y="143.0" type="line"/>
      <point x="308.37931034482756" y="143.0" type="line"/>
      <point x="308.37931034482756" y="328.62068965517244" type="line"/>
      <point x="494.0" y="328.62068965517244" type="line"/>
      <point x="494.0" y="387.1034482758621" type="line"/>
      <point x="308.37931034482756" y="387.1034482758621" type="line"/>
      <point x="308.37931034482756" y="572.0" type="line"/>
      <point x="248.89655172413794" y="572.0" type="line"/>
      <point x="248.89655172413794" y="387.1034482758621" type="line"/>
      <point x="64.27586206896552" y="387.1034482758621" type="line"/>
      <point x="64.27586206896552" y="328.62068965517244" type="line"/>
      <point x="248.89655172413794" y="328.62068965517244" type="line"/>
    </contour>
  </outline>
</glyph>
<glyph name="comma" format="2">
  <advance width="321.3448275862069"/>
  <unicode hex="002C"/>
  <outline>
    <contour>
      <point x="91.0344827586207" y="-154.0" type="line"/>
      <point x="208.51724137931035" y="-119.72413793103448"/>
      <point x="253.3448275862069" y="-44.724137931034484"/>
      <point x="253.3448275862069" y="38.55172413793103" type="curve" smooth="yes"/>
      <point x="253.3448275862069" y="96.75862068965517"/>
      <point x="218.89655172413794" y="128.68965517241378"/>
      <point x="177.13793103448276" y="128.68965517241378" type="curve" smooth="yes"/>
      <point x="140.31034482758622" y="128.68965517241378"/>
      <point x="112.65517241379311" y="107.13793103448276"/>
      <point x="112.65517241379311" y="69.48275862068965" type="curve" smooth="yes"/>
      <point x="112.65517241379311" y="8.89655172413793"/>
      <point x="184.20689655172413" y="16.448275862068964"/>
      <point x="184.20689655172413" y="-23.275862068965516" type="curve" smooth="yes"/>
      <point x="184.20689655172413" y="-61.0"/>
      <point x="155.20689655172413" y="-91.06896551724138"/>
      <point x="91.0344827586207" y="-112.06896551724138" type="curve"/>
    </contour>
  </outline>
</glyph>
<glyph name="hyphen" format="2">
  <advance width="310.0"/>
  <unicode hex="002D"/>
  <outline>
    <contour>
      <point x="24.275862068965516" y="234.24137931034483" type="line"/>
      <point x="285.0" y="234.24137931034483" type="line"/>
      <point x="285.0" y="310.7586206896552" type="line"/>
      <point x="24.275862068965516" y="310.7586206896552" type="line"/>
    </contour>
  </outline>
</glyph>
<glyph name="zero" format="2">
  <advance width="559.0"/>
  <unicode hex="0030"/>
  <outline>
    <contour>
      <point x="280.0" y="-10.0" type="curve" smooth="yes"/>
      <point x="439.7586206896552" y="-10.0"/>
      <point x="515.6551724137931" y="137.0"/>
      <point x="515.6551724137931" y="358.0" type="curve" smooth="yes"/>
      <point x="515.6551724137931" y="580.0"/>
      <point x="439.7586206896552" y="724.0"/>
      <point x="281.0" y="724.0" type="curve" smooth="yes"/>
      <point x="112.24137931034483" y="724.0"/>
      <point x="43.3448275862069" y="580.0"/>
      <point x="43.3448275862069" y="359.0" type="curve" smooth="yes"/>
      <point x="43.3448275862069" y="137.0"/>
      <point x="112.24137931034483" y="-10.0"/>
    </contour>
    <contour>
      <point x="280.0" y="45.6551724137931" type="curve" smooth="yes"/>
      <point x="186.58620689655172" y="45.6551724137931"/>
      <point x="155.3448275862069" y="161.10344827586206"/>
      <point x="155.3448275862069" y="358.0" type="curve" smooth="yes"/>
      <point x="155.3448275862069" y="554.8965517241379"/>
      <point x="186.58620689655172" y="668.3448275862069"/>
      <point x="281.0" y="668.3448275862069" type="curve" smooth="yes"/>
      <point x="373.41379310344826" y="668.3448275862069"/>
      <point x="403.6551724137931" y="554.8965517241379"/>
      <point x="403.6551724137931" y="358.0" type="curve" smooth="yes"/>
      <point x="403.6551724137931" y="161.10344827586206"/>
      <point x="373.41379310344826" y="45.6551724137931"/>
    </contour>
  </outline>
</glyph>
<glyph name="one" format="2">
  <advance width="559.0"/>
  <unicode hex="0031"/>
  <outline>
    <contour>
      <point x="96.27586206896552" y="0.0" type="line"/>
      <point x="482.2413793103448" y="0.0" type="line"/>
      <point x="482.2413793103448" y="43.6551724137931" type="line"/>
      <point x="428.2758620689655" y="43.6551724137931" type="line" smooth="yes"/>
      <point x="383.55172413793105" y="43.6551724137931"/>
      <point x="351.2413793103448" y="55.13793103448276"/>
      <point x="351.2413793103448" y="114.55172413793103" type="curve" smooth="yes"/>
      <point x="351.2413793103448" y="718.0" type="line"/>
      <point x="279.51724137931035" y="718.0" type="line"/>
      <point x="209.51724137931035" y="666.0" type="line" smooth="yes"/>
      <point x="143.51724137931035" y="617.0"/>
      <point x="102.13793103448276" y="599.0"/>
      <point x="62.13793103448276" y="589.0" type="curve"/>
      <point x="62.13793103448276" y="554.7931034482758"/>
      <point x="83.9655172413793" y="531.6896551724138"/>
      <point x="113.51724137931035" y="531.6896551724138" type="curve" smooth="yes"/>
      <point x="153.51724137931035" y="531.6896551724138"/>
      <point x="191.51724137931035" y="573.6896551724138"/>
      <point x="242.51724137931035" y="635.6896551724138" type="curve"/>
      <point x="242.51724137931035" y="114.55172413793103" type="line" smooth="yes"/>
      <point x="242.51724137931035" y="53.758620689655174"/>
      <point x="208.82758620689654" y="43.6551724137931"/>
      <point x="165.48275862068965" y="43.6551724137931" type="curve" smooth="yes"/>
      <point x="96.27586206896552" y="43.6551724137931" type="line"/>
    </contour>
  </outline>
</glyph>
<glyph name="two" format="2">
  <advance width="559.0"/>
  <unicode hex="0032"/>
  <outline>
    <contour>
      <point x="56.86206896551724" y="0.0" type="line"/>
      <point x="493.7586206896552" y="0.0" type="line"/>
      <point x="498.7586206896552" y="178.79310344827587" type="line"/>
      <point x="454.0" y="178.79310344827587" type="line"/>
      <point x="449.44827586206895" y="158.86206896551724" type="line" smooth="yes"/>
      <point x="439.8965517241379" y="119.0344827586207"/>
      <point x="422.41379310344826" y="84.6896551724138"/>
      <point x="365.44827586206895" y="84.6896551724138" type="curve" smooth="yes"/>
      <point x="134.17241379310346" y="84.6896551724138" type="line"/>
      <point x="292.13793103448273" y="257.0689655172414" type="line" smooth="yes"/>
      <point x="412.3103448275862" y="384.9310344827586"/>
      <point x="473.7586206896552" y="464.2758620689655"/>
      <point x="473.7586206896552" y="557.2758620689655" type="curve" smooth="yes"/>
      <point x="473.7586206896552" y="658.551724137931"/>
      <point x="396.2068965517241" y="724.0"/>
      <point x="266.62068965517244" y="724.0" type="curve" smooth="yes"/>
      <point x="134.86206896551724" y="724.0"/>
      <point x="66.75862068965517" y="666.1724137931035"/>
      <point x="66.75862068965517" y="589.7241379310345" type="curve" smooth="yes"/>
      <point x="66.75862068965517" y="535.4137931034483"/>
      <point x="106.9655172413793" y="519.4827586206897"/>
      <point x="159.3793103448276" y="519.4827586206897" type="curve"/>
      <point x="159.3793103448276" y="604.0"/>
      <point x="179.20689655172413" y="672.3448275862069"/>
      <point x="266.62068965517244" y="672.3448275862069" type="curve" smooth="yes"/>
      <point x="333.0344827586207" y="672.3448275862069"/>
      <point x="364.7586206896552" y="623.8275862068965"/>
      <point x="364.7586206896552" y="547.8275862068965" type="curve" smooth="yes"/>
      <point x="364.7586206896552" y="454.17241379310343"/>
      <point x="329.58620689655174" y="387.62068965517244"/>
      <point x="220.82758620689654" y="264.0689655172414" type="curve" smooth="yes"/>
      <point x="56.86206896551724" y="77.6896551724138" type="line"/>
    </contour>
  </outline>
</glyph>
<glyph name="three" format="2">
  <advance width="559.0"/>
  <unicode hex="0033"/>
  <outline>
    <contour>
      <point x="246.44827586206895" y="-10.0" type="curve" smooth="yes"/>
      <point x="365.0344827586207" y="-10.0"/>
      <point x="502.9310344827586" y="43.0"/>
      <point x="502.9310344827586" y="204.27586206896552" type="curve" smooth="yes"/>
      <point x="502.9310344827586" y="333.51724137931035"/>
      <point x="394.13793103448273" y="371.8965517241379"/>
      <point x="319.0344827586207" y="381.0" type="curve"/>
      <point x="410.2068965517241" y="404.1034482758621"/>
      <point x="477.9310344827586" y="474.44827586206895"/>
      <point x="477.9310344827586" y="564.448275862069" type="curve" smooth="yes"/>
      <point x="477.9310344827586" y="665.7241379310345"/>
      <point x="393.1034482758621" y="724.0"/>
      <point x="264.62068965517244" y="724.0" type="curve" smooth="yes"/>
      <point x="132.86206896551724" y="724.0"/>
      <point x="64.48275862068965" y="667.2758620689655"/>
      <point x="64.48275862068965" y="591.1034482758621" type="curve" smooth="yes"/>
      <point x="64.48275862068965" y="538.448275862069"/>
      <point x="104.13793103448276" y="522.2413793103449"/>
      <point x="157.6551724137931" y="522.2413793103449" type="curve"/>
      <point x="157.6551724137931" y="601.2413793103449"/>
      <point x="175.82758620689654" y="672.3448275862069"/>
      <point x="263.7931034482759" y="672.3448275862069" type="curve" smooth="yes"/>
      <point x="337.2068965517241" y="672.3448275862069"/>
      <point x="366.9310344827586" y="626.6206896551724"/>
      <point x="366.9310344827586" y="549.448275862069" type="curve" smooth="yes"/>
      <point x="366.9310344827586" y="455.55172413793105"/>
      <point x="302.3448275862069" y="395.82758620689657"/>
      <point x="214.6206896551724" y="395.82758620689657" type="curve"/>
      <point x="177.3793103448276" y="395.82758620689657" type="line"/>
      <point x="177.3793103448276" y="343.17241379310343" type="line"/>
      <point x="214.06896551724137" y="343.17241379310343" type="line" smooth="yes"/>
      <point x="324.13793103448273" y="343.17241379310343"/>
      <point x="390.9310344827586" y="288.17241379310343"/>
      <point x="390.9310344827586" y="205.27586206896552" type="curve" smooth="yes"/>
      <point x="390.9310344827586" y="86.10344827586206"/>
      <point x="322.86206896551727" y="46.48275862068966"/>
      <point x="246.06896551724137" y="46.48275862068966" type="curve" smooth="yes"/>
      <point x="166.44827586206895" y="46.48275862068966"/>
      <point x="119.62068965517241" y="96.37931034482759"/>
      <point x="119.62068965517241" y="168.58620689655172" type="curve"/>
      <point x="80.51724137931035" y="168.58620689655172"/>
      <point x="53.310344827586206" y="144.31034482758622"/>
      <point x="53.310344827586206" y="102.37931034482759" type="curve" smooth="yes"/>
      <point x="53.310344827586206" y="42.827586206896555"/>
      <point x="111.41379310344827" y="-10.0"/>
    </contour>
  </outline>
</glyph>
<glyph name="four" format="2">
  <advance width="559.0"/>
  <unicode hex="0034"/>
  <outline>
    <contour>
      <point x="209.48275862068965" y="0.0" type="line"/>
      <point x="518.4827586206897" y="0.0" type="line"/>
      <point x="518.4827586206897" y="43.6551724137931" type="line"/>
      <point x="505.48275862068965" y="43.6551724137931" type="line" smooth="yes"/>
      <point x="460.48275862068965" y="43.6551724137931"/>
      <point x="423.48275862068965" y="52.6551724137931"/>
      <point x="423.48275862068965" y="115.65517241379311" type="curve" smooth="yes"/>
      <point x="423.48275862068965" y="194.3448275862069" type="line"/>
      <point x="544.1724137931035" y="194.3448275862069" type="line"/>
      <point x="544.1724137931035" y="252.0" type="line"/>
      <point x="423.48275862068965" y="252.0" type="line"/>
      <point x="423.48275862068965" y="714.0" type="line"/>
      <point x="321.3103448275862" y="714.0" type="line"/>
      <point x="16.448275862068964" y="238.6551724137931" type="line"/>
      <point x="16.448275862068964" y="194.3448275862069" type="line"/>
      <point x="319.48275862068965" y="194.3448275862069" type="line"/>
      <point x="319.48275862068965" y="115.65517241379311" type="line" smooth="yes"/>
      <point x="319.48275862068965" y="52.6551724137931"/>
      <point x="282.48275862068965" y="43.6551724137931"/>
      <point x="237.48275862068965" y="43.6551724137931" type="curve" smooth="yes"/>
      <point x="209.48275862068965" y="43.6551724137931" type="line"/>
    </contour>
    <contour>
      <point x="88.17241379310344" y="252.0" type="line"/>
      <point x="238.13793103448276" y="487.51724137931035" type="line" smooth="yes"/>
      <point x="259.7586206896552" y="521.8620689655172"/>
      <point x="313.48275862068965" y="612.3103448275862"/>
      <point x="326.48275862068965" y="640.1379310344828" type="curve"/>
      <point x="321.48275862068965" y="578.1379310344828"/>
      <point x="319.48275862068965" y="493.3448275862069"/>
      <point x="319.48275862068965" y="435.3448275862069" type="curve" smooth="yes"/>
      <point x="319.48275862068965" y="252.0" type="line"/>
    </contour>
  </outline>
</glyph>
<glyph name="five" format="2">
  <advance width="559.0"/>
  <unicode hex="0035"/>
  <outline>
    <contour>
      <point x="244.27586206896552" y="-10.0" type="curve" smooth="yes"/>
      <point x="392.0344827586207" y="-10.0"/>
      <point x="489.3103448275862" y="76.48275862068965"/>
      <point x="489.3103448275862" y="218.27586206896552" type="curve" smooth="yes"/>
      <point x="489.3103448275862" y="359.55172413793105"/>
      <point x="389.7586206896552" y="429.82758620689657"/>
      <point x="256.62068965517244" y="429.82758620689657" type="curve" smooth="yes"/>
      <point x="200.6551724137931" y="429.82758620689657"/>
      <point x="161.0" y="421.1034482758621"/>
      <point x="140.72413793103448" y="413.82758620689657" type="curve"/>
      <point x="159.44827586206895" y="629.3103448275862" type="line"/>
      <point x="355.6551724137931" y="629.3103448275862" type="line" smooth="yes"/>
      <point x="396.0" y="629.3103448275862"/>
      <point x="404.0" y="616.0344827586207"/>
      <point x="408.2758620689655" y="588.5862068965517" type="curve" smooth="yes"/>
      <point x="412.82758620689657" y="558.0344827586207" type="line"/>
      <point x="457.3103448275862" y="558.0344827586207" type="line"/>
      <point x="452.3103448275862" y="714.0" type="line"/>
      <point x="111.41379310344827" y="714.0" type="line"/>
      <point x="79.41379310344827" y="360.37931034482756" type="line"/>
      <point x="106.72413793103448" y="351.7241379310345" type="line"/>
      <point x="132.55172413793105" y="362.44827586206895"/>
      <point x="161.82758620689654" y="373.17241379310343"/>
      <point x="227.79310344827587" y="373.17241379310343" type="curve" smooth="yes"/>
      <point x="318.9655172413793" y="373.17241379310343"/>
      <point x="377.3103448275862" y="322.44827586206895"/>
      <point x="377.3103448275862" y="218.27586206896552" type="curve" smooth="yes"/>
      <point x="377.3103448275862" y="91.82758620689656"/>
      <point x="317.13793103448273" y="50.6551724137931"/>
      <point x="237.6206896551724" y="50.6551724137931" type="curve" smooth="yes"/>
      <point x="156.3448275862069" y="50.6551724137931"/>
      <point x="118.27586206896552" y="97.6896551724138"/>
      <point x="118.27586206896552" y="154.68965517241378" type="curve"/>
      <point x="74.44827586206897" y="154.68965517241378"/>
      <point x="52.51724137931034" y="132.68965517241378"/>
      <point x="52.51724137931034" y="94.3103448275862" type="curve" smooth="yes"/>
      <point x="52.51724137931034" y="46.55172413793103"/>
      <point x="95.72413793103448" y="-10.0"/>
    </contour>
  </outline>
</glyph>
<glyph name="six" format="2">
  <advance width="559.0"/>
  <unicode hex="0036"/>
  <outline>
    <contour>
      <point x="293.0" y="-10.0" type="curve" smooth="yes"/>
      <point x="431.48275862068965" y="-10.0"/>
      <point x="510.48275862068965" y="88.0"/>
      <point x="510.48275862068965" y="229.27586206896552" type="curve" smooth="yes"/>
      <point x="510.48275862068965" y="357.55172413793105"/>
      <point x="431.48275862068965" y="434.55172413793105"/>
      <point x="309.7586206896552" y="434.55172413793105" type="curve" smooth="yes"/>
      <point x="244.20689655172413" y="434.55172413793105"/>
      <point x="199.48275862068965" y="410.6551724137931"/>
      <point x="167.58620689655172" y="385.0344827586207" type="curve"/>
      <point x="174.58620689655172" y="574.1724137931035"/>
      <point x="225.31034482758622" y="674.3448275862069"/>
      <point x="321.7241379310345" y="674.3448275862069" type="curve" smooth="yes"/>
      <point x="384.0689655172414" y="674.3448275862069"/>
      <point x="406.41379310344826" y="619.5862068965517"/>
      <point x="406.41379310344826" y="555.4137931034483" type="curve"/>
      <point x="462.48275862068965" y="555.4137931034483"/>
      <point x="490.3103448275862" y="579.6206896551724"/>
      <point x="490.3103448275862" y="618.1724137931035" type="curve" smooth="yes"/>
      <point x="490.3103448275862" y="672.7241379310345"/>
      <point x="437.13793103448273" y="724.0"/>
      <point x="323.37931034482756" y="724.0" type="curve" smooth="yes"/>
      <point x="143.6206896551724" y="724.0"/>
      <point x="58.51724137931034" y="550.0"/>
      <point x="58.51724137931034" y="355.3103448275862" type="curve" smooth="yes"/>
      <point x="58.51724137931034" y="97.0"/>
      <point x="157.51724137931035" y="-10.0"/>
    </contour>
    <contour>
      <point x="296.0" y="46.6551724137931" type="curve" smooth="yes"/>
      <point x="219.0344827586207" y="46.6551724137931"/>
      <point x="168.58620689655172" y="126.93103448275862"/>
      <point x="166.58620689655172" y="325.55172413793105" type="curve"/>
      <point x="192.20689655172413" y="352.7241379310345"/>
      <point x="237.48275862068965" y="382.17241379310343"/>
      <point x="287.0" y="382.17241379310343" type="curve" smooth="yes"/>
      <point x="360.6896551724138" y="382.17241379310343"/>
      <point x="401.58620689655174" y="332.44827586206895"/>
      <point x="401.58620689655174" y="219.27586206896552" type="curve" smooth="yes"/>
      <point x="401.58620689655174" y="99.37931034482759"/>
      <point x="363.6896551724138" y="46.6551724137931"/>
    </contour>
  </outline>
</glyph>
<glyph name="seven" format="2">
  <advance width="559.0"/>
  <unicode hex="0037"/>
  <outline>
    <contour>
      <point x="186.13793103448276" y="0.0" type="line"/>
      <point x="262.51724137931035" y="0.0" type="line"/>
      <point x="513.4827586206897" y="681.6896551724138" type="line"/>
      <point x="513.4827586206897" y="714.0" type="line"/>
      <point x="61.51724137931034" y="714.0" type="line"/>
      <point x="56.51724137931034" y="528.3103448275862" type="line"/>
      <point x="101.55172413793103" y="528.3103448275862" type="line"/>
      <point x="105.82758620689656" y="578.3103448275862" type="line" smooth="yes"/>
      <point x="108.82758620689656" y="611.3103448275862"/>
      <point x="127.82758620689656" y="629.3103448275862"/>
      <point x="163.82758620689654" y="629.3103448275862" type="curve" smooth="yes"/>
      <point x="426.82758620689657" y="629.3103448275862" type="line"/>
    </contour>
  </outline>
</glyph>
<glyph name="eight" format="2">
  <advance width="559.0"/>
  <unicode hex="0038"/>
  <outline>
    <contour>
      <point x="273.0" y="-10.0" type="curve" smooth="yes"/>
      <point x="421.48275862068965" y="-10.0"/>
      <point x="515.4827586206897" y="63.724137931034484"/>
      <point x="515.4827586206897" y="190.72413793103448" type="curve" smooth="yes"/>
      <point x="515.4827586206897" y="276.62068965517244"/>
      <point x="451.7931034482759" y="334.8965517241379"/>
      <point x="349.48275862068965" y="383.55172413793105" type="curve"/>
      <point x="430.7586206896552" y="424.1034482758621"/>
      <point x="484.48275862068965" y="464.82758620689657"/>
      <point x="484.48275862068965" y="551.448275862069" type="curve" smooth="yes"/>
      <point x="484.48275862068965" y="651.7241379310345"/>
      <point x="412.48275862068965" y="724.0"/>
      <point x="285.0" y="724.0" type="curve" smooth="yes"/>
      <point x="128.24137931034483" y="724.0"/>
      <point x="66.51724137931035" y="636.7241379310345"/>
      <point x="66.51724137931035" y="544.448275862069" type="curve" smooth="yes"/>
      <point x="66.51724137931035" y="461.55172413793105"/>
      <point x="118.13793103448276" y="405.2758620689655"/>
      <point x="194.68965517241378" y="361.7241379310345" type="curve"/>
      <point x="107.41379310344827" y="319.44827586206895"/>
      <point x="43.51724137931034" y="273.8965517241379"/>
      <point x="43.51724137931034" y="179.55172413793105" type="curve" smooth="yes"/>
      <point x="43.51724137931034" y="74.27586206896552"/>
      <point x="120.24137931034483" y="-10.0"/>
    </contour>
    <contour>
      <point x="278.0" y="37.6551724137931" type="curve" smooth="yes"/>
      <point x="192.31034482758622" y="37.6551724137931"/>
      <point x="146.58620689655172" y="93.37931034482759"/>
      <point x="146.58620689655172" y="175.55172413793105" type="curve" smooth="yes"/>
      <point x="146.58620689655172" y="249.72413793103448"/>
      <point x="185.48275862068965" y="302.0689655172414"/>
      <point x="245.72413793103448" y="335.2413793103448" type="curve"/>
      <point x="370.58620689655174" y="280.62068965517244"/>
      <point x="416.7586206896552" y="237.0"/>
      <point x="416.7586206896552" y="169.55172413793105" type="curve" smooth="yes"/>
      <point x="416.7586206896552" y="93.10344827586206"/>
      <point x="361.9655172413793" y="37.6551724137931"/>
    </contour>
    <contour>
      <point x="298.55172413793105" y="408.48275862068965" type="curve"/>
      <point x="212.58620689655172" y="447.82758620689657"/>
      <point x="167.9655172413793" y="485.0"/>
      <point x="167.9655172413793" y="556.448275862069" type="curve" smooth="yes"/>
      <point x="167.9655172413793" y="624.6206896551724"/>
      <point x="207.31034482758622" y="675.3448275862069"/>
      <point x="279.0" y="675.3448275862069" type="curve" smooth="yes"/>
      <point x="359.41379310344826" y="675.3448275862069"/>
      <point x="389.6896551724138" y="613.8965517241379"/>
      <point x="389.6896551724138" y="553.448275862069" type="curve" smooth="yes"/>
      <point x="389.6896551724138" y="484.2758620689655"/>
      <point x="369.41379310344826" y="443.82758620689657"/>
    </contour>
  </outline>
</glyph>
<glyph name="nine" format="2">
  <advance width="559.0"/>
  <unicode hex="0039"/>
  <outline>
    <contour>
      <point x="227.0" y="-10.724137931034482" type="curve"/>
      <point x="422.6551724137931" y="-10.724137931034482"/>
      <point x="500.48275862068965" y="176.3448275862069"/>
      <point x="500.48275862068965" y="388.0" type="curve" smooth="yes"/>
      <point x="500.48275862068965" y="623.0"/>
      <point x="401.37931034482756" y="724.0"/>
      <point x="264.7241379310345" y="724.0" type="curve" smooth="yes"/>
      <point x="129.3448275862069" y="724.0"/>
      <point x="48.51724137931034" y="622.551724137931"/>
      <point x="48.51724137931034" y="478.55172413793105" type="curve" smooth="yes"/>
      <point x="48.51724137931034" y="343.55172413793105"/>
      <point x="129.51724137931035" y="275.0"/>
      <point x="245.24137931034483" y="275.0" type="curve" smooth="yes"/>
      <point x="314.6896551724138" y="275.0"/>
      <point x="362.41379310344826" y="307.44827586206895"/>
      <point x="391.41379310344826" y="343.0" type="curve"/>
      <point x="384.41379310344826" y="143.3793103448276"/>
      <point x="335.9655172413793" y="45.37931034482759"/>
      <point x="228.55172413793105" y="45.37931034482759" type="curve" smooth="yes"/>
      <point x="165.0" y="45.37931034482759"/>
      <point x="130.27586206896552" y="84.0344827586207"/>
      <point x="112.0" y="128.79310344827587" type="curve"/>
      <point x="93.9655172413793" y="123.51724137931035"/>
      <point x="78.9655172413793" y="105.24137931034483"/>
      <point x="78.9655172413793" y="79.41379310344827" type="curve" smooth="yes"/>
      <point x="78.9655172413793" y="35.206896551724135"/>
      <point x="112.62068965517241" y="-10.724137931034482"/>
    </contour>
    <contour>
      <point x="270.55172413793105" y="336.2068965517241" type="curve" smooth="yes"/>
      <point x="196.0344827586207" y="336.2068965517241"/>
      <point x="158.13793103448276" y="380.7586206896552"/>
      <point x="158.13793103448276" y="488.0" type="curve" smooth="yes"/>
      <point x="158.13793103448276" y="604.1724137931035"/>
      <point x="197.75862068965517" y="667.0689655172414"/>
      <point x="265.82758620689657" y="667.0689655172414" type="curve" smooth="yes"/>
      <point x="340.3448275862069" y="667.0689655172414"/>
      <point x="389.41379310344826" y="591.6206896551724"/>
      <point x="392.41379310344826" y="414.7241379310345" type="curve"/>
      <point x="374.13793103448273" y="372.2758620689655"/>
      <point x="332.51724137931035" y="336.2068965517241"/>
    </contour>
  </outline>
</glyph>
<glyph name="colon" format="2">
  <advance width="308.1034482758621"/>
  <unicode hex="003A"/>
  <outline>
    <contour>
      <point x="182.24137931034483" y="404.13793103448273" type="curve" smooth="yes"/>
      <point x="216.17241379310346" y="404.13793103448273"/>
      <point x="244.82758620689654" y="420.6896551724138"/>
      <point x="244.82758620689654" y="471.62068965517244" type="curve" smooth="yes"/>
      <point x="244.82758620689654" y="523.551724137931"/>
      <point x="216.17241379310346" y="539.1034482758621"/>
      <point x="182.24137931034483" y="539.1034482758621" type="curve" smooth="yes"/>
      <point x="147.0344827586207" y="539.1034482758621"/>
      <point x="118.65517241379311" y="523.551724137931"/>
      <point x="118.65517241379311" y="471.62068965517244" type="curve" smooth="yes"/>
      <point x="118.65517241379311" y="420.6896551724138"/>
      <point x="147.0344827586207" y="404.13793103448273"/>
    </contour>
    <contour>
      <point x="182.24137931034483" y="-7.275862068965517" type="curve" smooth="yes"/>
      <point x="216.17241379310346" y="-7.275862068965517"/>
      <point x="244.82758620689654" y="9.551724137931034"/>
      <point x="244.82758620689654" y="61.206896551724135" type="curve" smooth="yes"/>
      <point x="244.82758620689654" y="112.13793103448276"/>
      <point x="216.17241379310346" y="128.68965517241378"/>
      <point x="182.24137931034483" y="128.68965517241378" type="curve" smooth="yes"/>
      <point x="147.0344827586207" y="128.68965517241378"/>
      <point x="118.65517241379311" y="112.13793103448276"/>
      <point x="118.65517241379311" y="61.206896551724135" type="curve" smooth="yes"/>
      <point x="118.65517241379311" y="9.551724137931034"/>
      <point x="147.0344827586207" y="-7.275862068965517"/>
    </contour>
  </outline>
</glyph>
<glyph name="semicolon" format="2">
  <advance width="331.2413793103448"/>
  <unicode hex="003B"/>
  <outline>
    <contour>
      <point x="91.0344827586207" y="-154.0" type="line"/>
      <point x="208.51724137931035" y="-119.72413793103448"/>
      <point x="253.3448275862069" y="-44.724137931034484"/>
      <point x="253.3448275862069" y="38.55172413793103" type="curve" smooth="yes"/>
      <point x="253.3448275862069" y="96.75862068965517"/>
      <point x="218.6206896551724" y="128.68965517241378"/>
      <point x="176.13793103448276" y="128.68965517241378" type="curve" smooth="yes"/>
      <point x="140.31034482758622" y="128.68965517241378"/>
      <point x="112.65517241379311" y="107.13793103448276"/>
      <point x="112.65517241379311" y="69.48275862068965" type="curve" smooth="yes"/>
      <point x="112.65517241379311" y="8.89655172413793"/>
      <point x="184.20689655172413" y="16.448275862068964"/>
      <point x="184.20689655172413" y="-23.275862068965516" type="curve"/>
      <point x="184.20689655172413" y="-61.275862068965516"/>
      <point x="154.20689655172413" y="-91.06896551724138"/>
      <point x="91.0344827586207" y="-112.06896551724138" type="curve"/>
    </contour>
    <contour>
      <point x="185.13793103448276" y="404.13793103448273" type="curve" smooth="yes"/>
      <point x="218.79310344827587" y="404.13793103448273"/>
      <point x="248.72413793103448" y="420.6896551724138"/>
      <point x="248.72413793103448" y="471.62068965517244" type="curve" smooth="yes"/>
      <point x="248.72413793103448" y="523.551724137931"/>
      <point x="218.79310344827587" y="539.1034482758621"/>
      <point x="185.13793103448276" y="539.1034482758621" type="curve" smooth="yes"/>
      <point x="149.6551724137931" y="539.1034482758621"/>
      <point x="122.27586206896552" y="523.551724137931"/>
      <point x="122.27586206896552" y="471.62068965517244" type="curve" smooth="yes"/>
      <point x="122.27586206896552" y="420.6896551724138"/>
      <point x="149.6551724137931" y="404.13793103448273"/>
    </contour>
  </outline>
</glyph>
<glyph name="equal" format="2">
  <advance width="559.0"/>
  <unicode hex="003D"/>
  <outline>
    <contour>
      <point x="64.72413793103448" y="426.62068965517244" type="line"/>
      <point x="494.55172413793105" y="426.62068965517244" type="line"/>
      <point x="494.55172413793105" y="484.82758620689657" type="line"/>
      <point x="64.72413793103448" y="484.82758620689657" type="line"/>
    </contour>
    <contour>
      <point x="64.72413793103448" y="228.44827586206895" type="line"/>
      <point x="494.55172413793105" y="228.44827586206895" type="line"/>
      <point x="494.55172413793105" y="287.37931034482756" type="line"/>
      <point x="64.72413793103448" y="287.37931034482756" type="line"/>
    </contour>
  </outline>
</glyph>
<glyph name="greater" format="2">
  <advance width="559.0"/>
  <unicode hex="003E"/>
  <outline>
    <contour>
      <point x="65.0" y="109.89655172413794" type="line"/>
      <point x="494.0" y="339.44827586206895" type="line"/>
      <point x="494.0" y="375.55172413793105" type="line"/>
      <point x="65.0" y="606.1034482758621" type="line"/>
      <point x="65.0" y="540.6206896551724" type="line"/>
      <point x="403.6896551724138" y="357.0" type="line"/>
      <point x="65.0" y="175.3793103448276" type="line"/>
    </contour>
  </outline>
</glyph>
<glyph name="question" format="2">
  <advance width="489.6896551724138"/>
  <unicode hex="003F"/>
  <outline>
    <contour>
      <point x="188.9655172413793" y="206.79310344827587" type="line"/>
      <point x="253.82758620689654" y="206.79310344827587" type="line"/>
      <point x="257.41379310344826" y="315.37931034482756" type="line"/>
      <point x="383.8965517241379" y="367.48275862068965"/>
      <point x="452.2413793103448" y="433.0"/>
      <point x="452.2413793103448" y="542.1724137931035" type="curve" smooth="yes"/>
      <point x="452.2413793103448" y="656.7241379310345"/>
      <point x="358.1379310344828" y="724.0"/>
      <point x="226.6206896551724" y="724.0" type="curve" smooth="yes"/>
      <point x="92.65517241379311" y="724.0"/>
      <point x="32.44827586206897" y="672.9655172413793"/>
      <point x="32.44827586206897" y="608.4137931034483" type="curve" smooth="yes"/>
      <point x="32.44827586206897" y="561.8275862068965"/>
      <point x="71.0344827586207" y="540.3793103448276"/>
      <point x="128.41379310344828" y="540.3793103448276" type="curve"/>
      <point x="128.41379310344828" y="615.448275862069"/>
      <point x="156.58620689655172" y="671.9655172413793"/>
      <point x="233.51724137931035" y="671.9655172413793" type="curve" smooth="yes"/>
      <point x="304.44827586206895" y="671.9655172413793"/>
      <point x="335.3448275862069" y="627.3448275862069"/>
      <point x="335.3448275862069" y="558.8965517241379" type="curve" smooth="yes"/>
      <point x="335.3448275862069" y="478.0689655172414"/>
      <point x="300.55172413793105" y="400.55172413793105"/>
      <point x="185.3793103448276" y="352.44827586206895" type="curve"/>
    </contour>
    <contour>
      <point x="219.6206896551724" y="-7.275862068965517" type="curve" smooth="yes"/>
      <point x="256.37931034482756" y="-7.275862068965517"/>
      <point x="287.58620689655174" y="10.551724137931034"/>
      <point x="287.58620689655174" y="64.58620689655173" type="curve" smooth="yes"/>
      <point x="287.58620689655174" y="119.3448275862069"/>
      <point x="256.37931034482756" y="136.44827586206895"/>
      <point x="219.6206896551724" y="136.44827586206895" type="curve" smooth="yes"/>
      <point x="182.13793103448276" y="136.44827586206895"/>
      <point x="151.93103448275863" y="119.3448275862069"/>
      <point x="151.93103448275863" y="64.58620689655173" type="curve" smooth="yes"/>
      <point x="151.93103448275863" y="10.551724137931034"/>
      <point x="182.13793103448276" y="-7.275862068965517"/>
    </contour>
  </outline>
</glyph>
<glyph name="bracketleft" format="2">
  <advance width="369.58620689655174"/>
  <unicode hex="005B"/>
  <outline>
    <contour>
      <point x="64.65517241379311" y="-128.0" type="line"/>
      <point x="291.58620689655174" y="-128.0" type="line"/>
      <point x="291.58620689655174" y="-85.79310344827586" type="line"/>
      <point x="245.41379310344828" y="-85.79310344827586" type="line" smooth="yes"/>
      <point x="200.41379310344828" y="-85.79310344827586"/>
      <point x="166.58620689655172" y="-76.79310344827586"/>
      <point x="166.58620689655172" y="-13.068965517241379" type="curve" smooth="yes"/>
      <point x="166.58620689655172" y="644.3448275862069" type="line" smooth="yes"/>
      <point x="166.58620689655172" y="708.7931034482758"/>
      <point x="200.41379310344828" y="717.7931034482758"/>
      <point x="245.41379310344828" y="717.7931034482758" type="curve" smooth="yes"/>
      <point x="291.58620689655174" y="717.7931034482758" type="line"/>
      <point x="291.58620689655174" y="760.0" type="line"/>
      <point x="64.65517241379311" y="760.0" type="line"/>
    </contour>
  </outline>
</glyph>
<glyph name="backslash" format="2">
  <advance width="288.0"/>
  <unicode hex="005C"/>
  <outline>
    <contour>
      <point x="229.24137931034483" y="-121.0" type="line"/>
      <point x="288.0" y="-121.0" type="line"/>
      <point x="57.758620689655174" y="760.0" type="line"/>
      <point x="0.0" y="760.0" type="line"/>
    </contour>
  </outline>
</glyph>
<glyph name="bracketright" format="2">
  <advance width="405.7931034482759"/>
  <unicode hex="005D"/>
  <outline>
    <contour>
      <point x="114.48275862068965" y="-128.0" type="line"/>
      <point x="340.41379310344826" y="-128.0" type="line"/>
      <point x="340.41379310344826" y="760.0" type="line"/>
      <point x="114.48275862068965" y="760.0" type="line"/>
      <point x="114.48275862068965" y="717.7931034482758" type="line"/>
      <point x="159.93103448275863" y="717.7931034482758" type="line" smooth="yes"/>
      <point x="205.6551724137931" y="717.7931034482758"/>
      <point x="239.48275862068965" y="708.7931034482758"/>
      <point x="239.48275862068965" y="644.3448275862069" type="curve" smooth="yes"/>
      <point x="239.48275862068965" y="-13.068965517241379" type="line" smooth="yes"/>
      <point x="239.48275862068965" y="-76.79310344827586"/>
      <point x="205.6551724137931" y="-85.79310344827586"/>
      <point x="159.93103448275863" y="-85.79310344827586" type="curve" smooth="yes"/>
      <point x="114.48275862068965" y="-85.79310344827586" type="line"/>
    </contour>
  </outline>
</glyph>
<glyph name="asciicircum" format="2">
  <advance width="559.0"/>
  <unicode hex="005E"/>
  <outline>
    <contour>
      <point x="50.172413793103445" y="266.17241379310343" type="line"/>
      <point x="116.37931034482759" y="266.17241379310343" type="line"/>
      <point x="278.0" y="624.1379310344828" type="line"/>
      <point x="441.62068965517244" y="266.17241379310343" type="line"/>
      <point x="506.82758620689657" y="266.17241379310343" type="line"/>
      <point x="295.82758620689657" y="714.0" type="line"/>
      <point x="261.17241379310343" y="714.0" type="line"/>
    </contour>
  </outline>
</glyph>
<glyph name="braceleft" format="2">
  <advance width="434.7241379310345"/>
  <unicode hex="007B"/>
  <outline>
    <contour>
      <point x="285.8965517241379" y="-127.44827586206897" type="curve" smooth="yes"/>
      <point x="353.41379310344826" y="-127.44827586206897" type="line"/>
      <point x="353.41379310344826" y="-84.51724137931035" type="line"/>
      <point x="321.7586206896552" y="-84.51724137931035" type="line" smooth="yes"/>
      <point x="263.3103448275862" y="-84.51724137931035"/>
      <point x="241.6896551724138" y="-47.793103448275865"/>
      <point x="241.6896551724138" y="20.103448275862068" type="curve" smooth="yes"/>
      <point x="241.6896551724138" y="192.82758620689654" type="line" smooth="yes"/>
      <point x="241.6896551724138" y="258.7241379310345"/>
      <point x="206.9655172413793" y="303.62068965517244"/>
      <point x="132.6896551724138" y="316.7241379310345" type="curve"/>
      <point x="132.6896551724138" y="318.82758620689657" type="line"/>
      <point x="205.51724137931035" y="331.6551724137931"/>
      <point x="241.6896551724138" y="375.82758620689657"/>
      <point x="241.6896551724138" y="440.7241379310345" type="curve" smooth="yes"/>
      <point x="241.6896551724138" y="612.448275862069" type="line" smooth="yes"/>
      <point x="241.6896551724138" y="681.3448275862069"/>
      <point x="263.3103448275862" y="717.0689655172414"/>
      <point x="322.7586206896552" y="717.0689655172414" type="curve" smooth="yes"/>
      <point x="353.41379310344826" y="717.0689655172414" type="line"/>
      <point x="353.41379310344826" y="760.0" type="line"/>
      <point x="285.8965517241379" y="760.0" type="line" smooth="yes"/>
      <point x="190.58620689655172" y="760.0"/>
      <point x="139.93103448275863" y="707.7241379310345"/>
      <point x="139.93103448275863" y="617.448275862069" type="curve" smooth="yes"/>
      <point x="139.93103448275863" y="442.7241379310345" type="line" smooth="yes"/>
      <point x="139.93103448275863" y="361.82758620689657"/>
      <point x="88.20689655172414" y="340.2068965517241"/>
      <point x="22.20689655172414" y="338.2068965517241" type="curve"/>
      <point x="22.20689655172414" y="295.62068965517244" type="line"/>
      <point x="88.20689655172414" y="292.62068965517244"/>
      <point x="139.93103448275863" y="271.7241379310345"/>
      <point x="139.93103448275863" y="189.82758620689654" type="curve" smooth="yes"/>
      <point x="139.93103448275863" y="16.379310344827587" type="line" smooth="yes"/>
      <point x="139.93103448275863" y="-71.44827586206897"/>
      <point x="190.58620689655172" y="-127.44827586206897"/>
    </contour>
  </outline>
</glyph>
<glyph name="bar" format="2">
  <advance width="558.2758620689655"/>
  <unicode hex="007C"/>
  <outline>
    <contour>
      <point x="248.89655172413794" y="-240.0" type="line"/>
      <point x="309.1034482758621" y="-240.0" type="line"/>
      <point x="309.1034482758621" y="760.0" type="line"/>
      <point x="248.89655172413794" y="760.0" type="line"/>
    </contour>
  </outline>
</glyph>
<glyph name="braceright" format="2">
  <advance width="467.8965517241379"/>
  <unicode hex="007D"/>
  <outline>
    <contour>
      <point x="114.48275862068965" y="-127.44827586206897" type="line"/>
      <point x="182.72413793103448" y="-127.44827586206897" type="line" smooth="yes"/>
      <point x="278.0344827586207" y="-127.44827586206897"/>
      <point x="327.6896551724138" y="-71.44827586206897"/>
      <point x="327.6896551724138" y="16.379310344827587" type="curve" smooth="yes"/>
      <point x="327.6896551724138" y="189.82758620689654" type="line" smooth="yes"/>
      <point x="327.6896551724138" y="271.7241379310345"/>
      <point x="380.6896551724138" y="292.62068965517244"/>
      <point x="446.41379310344826" y="295.62068965517244" type="curve"/>
      <point x="446.41379310344826" y="338.2068965517241" type="line"/>
      <point x="380.6896551724138" y="340.2068965517241"/>
      <point x="327.6896551724138" y="361.82758620689657"/>
      <point x="327.6896551724138" y="442.7241379310345" type="curve" smooth="yes"/>
      <point x="327.6896551724138" y="617.448275862069" type="line" smooth="yes"/>
      <point x="327.6896551724138" y="707.7241379310345"/>
      <point x="278.0344827586207" y="760.0"/>
      <point x="182.72413793103448" y="760.0" type="curve" smooth="yes"/>
      <point x="114.48275862068965" y="760.0" type="line"/>
      <point x="114.48275862068965" y="717.0689655172414" type="line"/>
      <point x="146.13793103448276" y="717.0689655172414" type="line" smooth="yes"/>
      <point x="205.58620689655172" y="717.0689655172414"/>
      <point x="226.93103448275863" y="681.3448275862069"/>
      <point x="226.93103448275863" y="612.448275862069" type="curve" smooth="yes"/>
      <point x="226.93103448275863" y="440.7241379310345" type="line" smooth="yes"/>
      <point x="226.93103448275863" y="375.82758620689657"/>
      <point x="263.37931034482756" y="331.6551724137931"/>
      <point x="336.2068965517241" y="318.82758620689657" type="curve"/>
      <point x="336.2068965517241" y="316.7241379310345" type="line"/>
      <point x="260.9310344827586" y="303.62068965517244"/>
      <point x="226.93103448275863" y="258.7241379310345"/>
      <point x="226.93103448275863" y="192.82758620689654" type="curve" smooth="yes"/>
      <point x="226.93103448275863" y="20.103448275862068" type="line" smooth="yes"/>
      <point x="226.93103448275863" y="-47.793103448275865"/>
      <point x="205.58620689655172" y="-84.51724137931035"/>
      <point x="146.86206896551724" y="-84.51724137931035" type="curve" smooth="yes"/>
      <point x="114.48275862068965" y="-84.51724137931035" type="line"/>
    </contour>
  </outline>
</glyph>
<glyph name="asciitilde" format="2">
  <advance width="559.0"/>
  <unicode hex="007E"/>
  <outline>
    <contour>
      <point x="53.62068965517241" y="268.62068965517244" type="curve"/>
      <point x="112.37931034482759" y="268.62068965517244" type="line"/>
      <point x="119.55172413793103" y="348.44827586206895"/>
      <point x="136.82758620689654" y="385.62068965517244"/>
      <point x="175.27586206896552" y="385.62068965517244" type="curve" smooth="yes"/>
      <point x="207.44827586206895" y="385.62068965517244"/>
      <point x="230.79310344827587" y="361.44827586206895"/>
      <point x="262.62068965517244" y="332.17241379310343" type="curve" smooth="yes"/>
      <point x="301.2758620689655" y="295.51724137931035"/>
      <point x="335.44827586206895" y="268.62068965517244"/>
      <point x="382.2758620689655" y="268.62068965517244" type="curve" smooth="yes"/>
      <point x="476.37931034482756" y="268.62068965517244"/>
      <point x="496.9310344827586" y="370.0344827586207"/>
      <point x="504.37931034482756" y="444.37931034482756" type="curve"/>
      <point x="444.62068965517244" y="444.37931034482756" type="line"/>
      <point x="435.7241379310345" y="370.2758620689655"/>
      <point x="421.44827586206895" y="327.37931034482756"/>
      <point x="383.2758620689655" y="327.37931034482756" type="curve" smooth="yes"/>
      <point x="355.82758620689657" y="327.37931034482756"/>
      <point x="330.6551724137931" y="350.55172413793105"/>
      <point x="300.82758620689657" y="378.1034482758621" type="curve" smooth="yes"/>
      <point x="253.17241379310346" y="421.48275862068965"/>
      <point x="222.55172413793105" y="444.37931034482756"/>
      <point x="175.82758620689654" y="444.37931034482756" type="curve" smooth="yes"/>
      <point x="81.44827586206897" y="444.37931034482756"/>
      <point x="60.51724137931034" y="349.3103448275862"/>
    </contour>
  </outline>
</glyph>
<glyph name="multiply" format="2">
  <advance width="558.2758620689655"/>
  <unicode hex="00D7"/>
  <outline>
    <contour>
      <point x="113.58620689655173" y="150.6551724137931" type="line"/>
      <point x="279.0" y="316.3448275862069" type="line"/>
      <point x="444.41379310344826" y="150.6551724137931" type="line"/>
      <point x="486.0689655172414" y="192.31034482758622" type="line"/>
      <point x="320.6551724137931" y="358.0" type="line"/>
      <point x="486.0689655172414" y="523.4137931034483" type="line"/>
      <point x="444.41379310344826" y="565.3448275862069" type="line"/>
      <point x="279.0" y="399.2068965517241" type="line"/>
      <point x="113.58620689655173" y="564.3448275862069" type="line"/>
      <point x="71.65517241379311" y="523.4137931034483" type="line"/>
      <point x="237.3448275862069" y="359.0" type="line"/>
      <point x="71.65517241379311" y="193.31034482758622" type="line"/>
    </contour>
  </outline>
</glyph>
<glyph name="divide" format="2">
  <advance width="559.0"/>
  <unicode hex="00F7"/>
  <outline>
    <contour>
      <point x="65.0" y="328.62068965517244" type="line"/>
      <point x="494.0" y="328.62068965517244" type="line"/>
      <point x="494.0" y="387.1034482758621" type="line"/>
      <point x="65.0" y="387.1034482758621" type="line"/>
    </contour>
    <contour>
      <point x="280.0" y="114.62068965517241" type="curve" smooth="yes"/>
      <point x="308.55172413793105" y="114.62068965517241"/>
      <point x="330.82758620689657" y="128.89655172413794"/>
      <point x="330.82758620689657" y="169.72413793103448" type="curve" smooth="yes"/>
      <point x="330.82758620689657" y="211.55172413793105"/>
      <point x="308.55172413793105" y="224.82758620689654"/>
      <point x="280.0" y="224.82758620689654" type="curve" smooth="yes"/>
      <point x="250.44827586206895" y="224.82758620689654"/>
      <point x="229.17241379310346" y="211.55172413793105"/>
      <point x="229.17241379310346" y="169.72413793103448" type="curve" smooth="yes"/>
      <point x="229.17241379310346" y="128.89655172413794"/>
      <point x="250.44827586206895" y="114.62068965517241"/>
    </contour>
    <contour>
      <point x="280.0" y="491.17241379310343" type="curve" smooth="yes"/>
      <point x="308.55172413793105" y="491.17241379310343"/>
      <point x="330.82758620689657" y="504.44827586206895"/>
      <point x="330.82758620689657" y="545.2758620689655" type="curve" smooth="yes"/>
      <point x="330.82758620689657" y="587.1034482758621"/>
      <point x="308.55172413793105" y="600.3793103448276"/>
      <point x="280.0" y="600.3793103448276" type="curve" smooth="yes"/>
      <point x="250.44827586206895" y="600.3793103448276"/>
      <point x="229.17241379310346" y="587.1034482758621"/>
      <point x="229.17241379310346" y="545.2758620689655" type="curve" smooth="yes"/>
      <point x="229.17241379310346" y="504.44827586206895"/>
      <point x="250.44827586206895" y="491.17241379310343"/>
    </contour>
  </outline>
</glyph>
<glyph name="udatta-deva" format="2">
  <unicode hex="0951"/>
  <anchor x="-299.0" y="-256.8965517241379" name="_vedic"/>
  <outline>
    <contour>
      <point x="-331.9655172413793" y="706.0" type="line"/>
      <point x="-265.86206896551727" y="706.0" type="line"/>
      <point x="-265.86206896551727" y="912.3793103448276" type="line"/>
      <point x="-331.9655172413793" y="912.3793103448276" type="line"/>
    </contour>
  </outline>
</glyph>
<glyph name="anudatta-deva" format="2">
  <unicode hex="0952"/>
  <anchor x="-299.0" y="383.7931034482759" name="_vedic"/>
  <outline>
    <contour>
      <point x="-517.8965517241379" y="-146.75862068965517" type="line"/>
      <point x="-79.37931034482759" y="-146.75862068965517" type="line"/>
      <point x="-79.37931034482759" y="-89.24137931034483" type="line"/>
      <point x="-517.8965517241379" y="-89.24137931034483" type="line"/>
    </contour>
  </outline>
</glyph>
<glyph name="dbldanda-deva" format="2">
  <advance width="633.2068965517242"/>
  <unicode hex="0965"/>
  <outline>
    <contour>
      <point x="542.4137931034483" y="-26.310344827586206" type="line"/>
      <point x="546.5172413793103" y="-24.758620689655174" type="line"/>
      <point x="546.5172413793103" y="585.8275862068965" type="line"/>
      <point x="485.86206896551727" y="622.8275862068965" type="line"/>
      <point x="482.86206896551727" y="622.8275862068965" type="line"/>
      <point x="482.86206896551727" y="4.172413793103448" type="line"/>
    </contour>
    <contour>
      <point x="376.2413793103448" y="-26.310344827586206" type="line"/>
      <point x="380.62068965517244" y="-24.758620689655174" type="line"/>
      <point x="380.62068965517244" y="585.8275862068965" type="line"/>
      <point x="319.6896551724138" y="622.8275862068965" type="line"/>
      <point x="316.6896551724138" y="622.8275862068965" type="line"/>
      <point x="316.6896551724138" y="4.172413793103448" type="line"/>
    </contour>
  </outline>
</glyph>
<glyph name="anji-beng" format="2">
  <advance width="559.448275862069"/>
  <unicode hex="0980"/>
  <anchor x="301.82758620689657" y="573.5862068965517" name="top"/>
  <outline>
    <contour>
      <point x="456.62068965517244" y="-9.655172413793105" type="curve" smooth="yes"/>
      <point x="502.2068965517241" y="-9.655172413793105"/>
      <point x="524.4137931034483" y="18.0"/>
      <point x="524.4137931034483" y="57.310344827586206" type="curve" smooth="yes"/>
      <point x="524.4137931034483" y="98.34482758620689"/>
      <point x="497.2068965517241" y="126.44827586206897"/>
      <point x="458.1034482758621" y="126.44827586206897" type="curve" smooth="yes"/>
      <point x="419.7931034482759" y="126.44827586206897"/>
      <point x="405.9655172413793" y="102.86206896551724"/>
      <point x="402.51724137931035" y="74.3103448275862" type="curve"/>
      <point x="434.3793103448276" y="72.93103448275862" type="line"/>
      <point x="434.3793103448276" y="476.9655172413793" type="line" smooth="yes"/>
      <point x="434.3793103448276" y="556.6551724137931"/>
      <point x="383.3103448275862" y="624.4827586206897"/>
      <point x="280.8965517241379" y="624.4827586206897" type="curve" smooth="yes"/>
      <point x="155.3793103448276" y="624.4827586206897"/>
      <point x="61.689655172413794" y="537.2758620689655"/>
      <point x="61.689655172413794" y="420.37931034482756" type="curve" smooth="yes"/>
      <point x="61.689655172413794" y="300.3448275862069"/>
      <point x="149.58620689655172" y="235.9310344827586"/>
      <point x="231.24137931034483" y="235.9310344827586" type="curve" smooth="yes"/>
      <point x="295.7241379310345" y="235.9310344827586"/>
      <point x="327.48275862068965" y="270.13793103448273"/>
      <point x="327.48275862068965" y="321.17241379310343" type="curve" smooth="yes"/>
      <point x="327.48275862068965" y="375.2758620689655"/>
      <point x="294.6551724137931" y="403.3103448275862"/>
      <point x="246.17241379310346" y="403.3103448275862" type="curve" smooth="yes"/>
      <point x="203.9655172413793" y="403.3103448275862"/>
      <point x="172.13793103448276" y="375.1034482758621"/>
      <point x="172.13793103448276" y="329.7241379310345" type="curve" smooth="yes"/>
      <point x="172.13793103448276" y="317.0689655172414"/>
      <point x="174.41379310344828" y="301.2413793103448"/>
      <point x="178.68965517241378" y="292.41379310344826" type="curve"/>
      <point x="225.6206896551724" y="314.2413793103448" type="line"/>
      <point x="215.0689655172414" y="310.51724137931035"/>
      <point x="204.24137931034483" y="309.51724137931035"/>
      <point x="193.68965517241378" y="309.51724137931035" type="curve" smooth="yes"/>
      <point x="157.41379310344828" y="309.51724137931035"/>
      <point x="135.13793103448276" y="343.41379310344826"/>
      <point x="135.13793103448276" y="397.0689655172414" type="curve" smooth="yes"/>
      <point x="135.13793103448276" y="488.82758620689657"/>
      <point x="241.3448275862069" y="552.9310344827586"/>
      <point x="308.82758620689657" y="552.9310344827586" type="curve" smooth="yes"/>
      <point x="354.2758620689655" y="552.9310344827586"/>
      <point x="370.44827586206895" y="532.2068965517242"/>
      <point x="370.44827586206895" y="488.48275862068965" type="curve" smooth="yes"/>
      <point x="370.44827586206895" y="99.51724137931035" type="line" smooth="yes"/>
      <point x="370.44827586206895" y="35.93103448275862"/>
      <point x="403.37931034482756" y="-9.655172413793105"/>
    </contour>
  </outline>
</glyph>
<glyph name="anusvara-beng" format="2">
  <advance width="386.9310344827586"/>
  <unicode hex="0982"/>
  <anchor x="-202.27586206896552" y="0.0" name="vedic"/>
  <outline>
    <contour>
      <point x="186.82758620689654" y="356.7241379310345" type="curve" smooth="yes"/>
      <point x="267.3103448275862" y="356.7241379310345"/>
      <point x="325.2413793103448" y="412.37931034482756"/>
      <point x="325.2413793103448" y="492.58620689655174" type="curve" smooth="yes"/>
      <point x="325.2413793103448" y="564.7931034482758"/>
      <point x="275.58620689655174" y="622.7241379310345"/>
      <point x="196.3793103448276" y="622.7241379310345" type="curve" smooth="yes"/>
      <point x="116.89655172413794" y="622.7241379310345"/>
      <point x="60.241379310344826" y="565.7931034482758"/>
      <point x="60.241379310344826" y="487.58620689655174" type="curve" smooth="yes"/>
      <point x="60.241379310344826" y="417.6551724137931"/>
      <point x="106.62068965517241" y="356.7241379310345"/>
    </contour>
    <contour>
      <point x="157.3793103448276" y="412.0689655172414" type="curve" smooth="yes"/>
      <point x="136.93103448275863" y="412.0689655172414"/>
      <point x="118.75862068965517" y="426.9655172413793"/>
      <point x="118.75862068965517" y="449.2413793103448" type="curve" smooth="yes"/>
      <point x="118.75862068965517" y="505.2068965517241"/>
      <point x="175.58620689655172" y="563.2068965517242"/>
      <point x="230.55172413793105" y="563.2068965517242" type="curve" smooth="yes"/>
      <point x="255.0" y="563.2068965517242"/>
      <point x="268.44827586206895" y="546.5862068965517"/>
      <point x="268.44827586206895" y="527.1379310344828" type="curve" smooth="yes"/>
      <point x="268.44827586206895" y="477.7931034482759"/>
      <point x="211.17241379310346" y="412.0689655172414"/>
    </contour>
    <contour>
      <point x="333.62068965517244" y="-46.0" type="curve"/>
      <point x="366.41379310344826" y="-30.17241379310345" type="line"/>
      <point x="308.6551724137931" y="96.72413793103448"/>
      <point x="221.55172413793105" y="237.79310344827587"/>
      <point x="122.89655172413794" y="314.48275862068965" type="curve"/>
      <point x="57.51724137931034" y="218.3793103448276" type="line"/>
      <point x="157.51724137931035" y="158.24137931034483"/>
      <point x="235.68965517241378" y="95.48275862068965"/>
    </contour>
  </outline>
</glyph>
<glyph name="visarga-beng" format="2">
  <advance width="389.3448275862069"/>
  <unicode hex="0983"/>
  <anchor x="-202.27586206896552" y="0.0" name="vedic"/>
  <outline>
    <contour>
      <point x="188.75862068965517" y="356.17241379310343" type="curve" smooth="yes"/>
      <point x="270.62068965517244" y="356.17241379310343"/>
      <point x="329.37931034482756" y="412.1034482758621"/>
      <point x="329.37931034482756" y="492.58620689655174" type="curve" smooth="yes"/>
      <point x="329.37931034482756" y="565.3448275862069"/>
      <point x="279.17241379310343" y="623.2758620689655"/>
      <point x="198.31034482758622" y="623.2758620689655" type="curve" smooth="yes"/>
      <point x="117.72413793103448" y="623.2758620689655"/>
      <point x="60.241379310344826" y="566.3448275862069"/>
      <point x="60.241379310344826" y="487.58620689655174" type="curve" smooth="yes"/>
      <point x="60.241379310344826" y="417.37931034482756"/>
      <point x="107.44827586206897" y="356.17241379310343"/>
    </contour>
    <contour>
      <point x="159.58620689655172" y="411.51724137931035" type="curve" smooth="yes"/>
      <point x="139.13793103448276" y="411.51724137931035"/>
      <point x="120.6896551724138" y="426.41379310344826"/>
      <point x="120.6896551724138" y="448.41379310344826" type="curve" smooth="yes"/>
      <point x="120.6896551724138" y="504.6551724137931"/>
      <point x="177.24137931034483" y="563.7586206896551"/>
      <point x="232.48275862068965" y="563.7586206896551" type="curve" smooth="yes"/>
      <point x="257.2068965517241" y="563.7586206896551"/>
      <point x="270.6551724137931" y="547.1379310344828"/>
      <point x="270.6551724137931" y="527.6896551724138" type="curve" smooth="yes"/>
      <point x="270.6551724137931" y="478.3448275862069"/>
      <point x="214.20689655172413" y="411.51724137931035"/>
    </contour>
    <contour>
      <point x="189.0344827586207" y="1.7241379310344804" type="curve" smooth="yes"/>
      <point x="270.3448275862069" y="1.7241379310344804"/>
      <point x="328.55172413793105" y="57.37931034482759"/>
      <point x="328.55172413793105" y="136.86206896551724" type="curve" smooth="yes"/>
      <point x="328.55172413793105" y="209.79310344827587"/>
      <point x="278.62068965517244" y="266.7241379310345"/>
      <point x="198.31034482758622" y="266.7241379310345" type="curve" smooth="yes"/>
      <point x="118.27586206896552" y="266.7241379310345"/>
      <point x="60.793103448275865" y="210.79310344827587"/>
      <point x="60.793103448275865" y="131.86206896551724" type="curve" smooth="yes"/>
      <point x="60.793103448275865" y="62.6551724137931"/>
      <point x="107.72413793103448" y="1.7241379310344804"/>
    </contour>
    <contour>
      <point x="159.86206896551724" y="55.793103448275865" type="curve" smooth="yes"/>
      <point x="139.13793103448276" y="55.793103448275865"/>
      <point x="120.96551724137932" y="70.6896551724138"/>
      <point x="120.96551724137932" y="92.6896551724138" type="curve" smooth="yes"/>
      <point x="120.96551724137932" y="149.6551724137931"/>
      <point x="177.24137931034483" y="207.75862068965517"/>
      <point x="232.48275862068965" y="207.75862068965517" type="curve" smooth="yes"/>
      <point x="256.9310344827586" y="207.75862068965517"/>
      <point x="270.37931034482756" y="191.13793103448276"/>
      <point x="270.37931034482756" y="172.68965517241378" type="curve" smooth="yes"/>
      <point x="270.37931034482756" y="123.34482758620689"/>
      <point x="214.20689655172413" y="55.793103448275865"/>
    </contour>
  </outline>
</glyph>
<glyph name="a-beng" format="2">
  <advance width="773.448275862069"/>
  <unicode hex="0985"/>
  <anchor x="693.448275862069" y="0.0" name="bottom"/>
  <anchor x="693.448275862069" y="74.6896551724138" name="bottom.rakaar"/>
  <anchor x="693.448275862069" y="11.724137931034482" name="bottom.rvocalic"/>
  <anchor x="673.448275862069" y="8.206896551724139" name="bottom.virama"/>
  <anchor x="693.448275862069" y="564.4827586206897" name="top"/>
  <anchor x="693.448275862069" y="564.4827586206897" name="topright"/>
  <anchor x="386.7241379310345" y="0.0" name="vedic"/>
  <outline>
    <contour>
      <point x="687.6206896551724" y="-16.03448275862069" type="line"/>
      <point x="693.448275862069" y="-14.758620689655173" type="line"/>
      <point x="693.448275862069" y="564.4827586206897" type="line"/>
      <point x="804.1034482758621" y="564.4827586206897" type="line"/>
      <point x="767.8965517241379" y="622.0" type="line"/>
      <point x="-30.655172413793103" y="622.0" type="line"/>
      <point x="4.551724137931035" y="564.4827586206897" type="line"/>
      <point x="629.7931034482758" y="564.4827586206897" type="line"/>
      <point x="629.7931034482758" y="72.37931034482759" type="line"/>
      <point x="638.7241379310345" y="88.65517241379311" type="line"/>
      <point x="597.2758620689655" y="170.3793103448276"/>
      <point x="549.3793103448276" y="214.55172413793105"/>
      <point x="498.51724137931035" y="246.06896551724137" type="curve"/>
      <point x="475.3103448275862" y="178.82758620689654" type="line"/>
      <point x="539.4827586206897" y="144.20689655172413"/>
      <point x="591.8275862068965" y="95.13793103448276"/>
      <point x="634.2758620689655" y="22.344827586206897" type="curve"/>
    </contour>
    <contour>
      <point x="341.8965517241379" y="80.03448275862068" type="curve" smooth="yes"/>
      <point x="476.2068965517241" y="80.03448275862068"/>
      <point x="535.4137931034483" y="175.79310344827587"/>
      <point x="535.4137931034483" y="295.82758620689657" type="curve" smooth="yes"/>
      <point x="535.4137931034483" y="407.6896551724138"/>
      <point x="464.2068965517241" y="507.2413793103448"/>
      <point x="329.7931034482759" y="507.2413793103448" type="curve" smooth="yes"/>
      <point x="254.6551724137931" y="507.2413793103448"/>
      <point x="200.3793103448276" y="469.9310344827586"/>
      <point x="200.3793103448276" y="399.55172413793105" type="curve" smooth="yes"/>
      <point x="200.3793103448276" y="338.17241379310343"/>
      <point x="244.93103448275863" y="300.13793103448273"/>
      <point x="301.7931034482759" y="300.13793103448273" type="curve" smooth="yes"/>
      <point x="361.82758620689657" y="300.13793103448273"/>
      <point x="395.6551724137931" y="344.2413793103448"/>
      <point x="395.6551724137931" y="403.62068965517244" type="curve" smooth="yes"/>
      <point x="395.6551724137931" y="477.3103448275862"/>
      <point x="351.58620689655174" y="540.4137931034483"/>
      <point x="312.2068965517241" y="573.1379310344828" type="curve"/>
      <point x="188.86206896551724" y="571.4137931034483" type="line"/>
      <point x="295.17241379310343" y="540.4137931034483"/>
      <point x="329.13793103448273" y="486.0689655172414"/>
      <point x="340.13793103448273" y="403.6896551724138" type="curve"/>
      <point x="358.7586206896552" y="412.41379310344826"/>
      <point x="370.9655172413793" y="416.7931034482759"/>
      <point x="390.3448275862069" y="416.7931034482759" type="curve" smooth="yes"/>
      <point x="429.7241379310345" y="416.7931034482759"/>
      <point x="473.55172413793105" y="383.7241379310345"/>
      <point x="477.7241379310345" y="309.2068965517241" type="curve" smooth="yes"/>
      <point x="481.8965517241379" y="226.86206896551724"/>
      <point x="424.51724137931035" y="183.6206896551724"/>
      <point x="333.17241379310343" y="183.6206896551724" type="curve" smooth="yes"/>
      <point x="219.24137931034483" y="183.6206896551724"/>
      <point x="130.75862068965517" y="259.9655172413793"/>
      <point x="61.206896551724135" y="488.41379310344826" type="curve"/>
      <point x="15.620689655172413" y="475.13793103448273" type="line"/>
      <point x="96.41379310344827" y="169.6206896551724"/>
      <point x="210.13793103448276" y="80.03448275862068"/>
    </contour>
  </outline>
</glyph>
<glyph name="aa-beng" format="2">
  <advance width="988.1034482758621"/>
  <unicode hex="0986"/>
  <anchor x="693.448275862069" y="0.0" name="bottom"/>
  <anchor x="693.448275862069" y="74.6896551724138" name="bottom.rakaar"/>
  <anchor x="693.448275862069" y="11.724137931034482" name="bottom.rvocalic"/>
  <anchor x="673.448275862069" y="8.206896551724139" name="bottom.virama"/>
  <anchor x="908.3793103448276" y="564.4827586206897" name="top"/>
  <anchor x="908.3793103448276" y="538.9655172413793" name="topright"/>
  <anchor x="493.6896551724138" y="0.0" name="vedic"/>
  <outline>
    <contour>
      <point x="687.6206896551724" y="-16.03448275862069" type="line"/>
      <point x="693.448275862069" y="-14.758620689655173" type="line"/>
      <point x="693.448275862069" y="564.4827586206897" type="line"/>
      <point x="755.448275862069" y="564.4827586206897" type="line"/>
      <point x="719.5172413793103" y="622.0" type="line"/>
      <point x="-30.655172413793103" y="622.0" type="line"/>
      <point x="4.551724137931035" y="564.4827586206897" type="line"/>
      <point x="629.7931034482758" y="564.4827586206897" type="line"/>
      <point x="629.7931034482758" y="72.37931034482759" type="line"/>
      <point x="638.7241379310345" y="88.65517241379311" type="line"/>
      <point x="597.2758620689655" y="170.3793103448276"/>
      <point x="549.3793103448276" y="214.55172413793105"/>
      <point x="498.51724137931035" y="246.06896551724137" type="curve"/>
      <point x="475.3103448275862" y="178.82758620689654" type="line"/>
      <point x="539.4827586206897" y="144.20689655172413"/>
      <point x="591.8275862068965" y="95.13793103448276"/>
      <point x="634.2758620689655" y="22.344827586206897" type="curve"/>
    </contour>
    <contour>
      <point x="341.8965517241379" y="80.03448275862068" type="curve" smooth="yes"/>
      <point x="476.2068965517241" y="80.03448275862068"/>
      <point x="535.4137931034483" y="175.79310344827587"/>
      <point x="535.4137931034483" y="295.82758620689657" type="curve" smooth="yes"/>
      <point x="535.4137931034483" y="407.6896551724138"/>
      <point x="464.2068965517241" y="507.2413793103448"/>
      <point x="329.7931034482759" y="507.2413793103448" type="curve" smooth="yes"/>
      <point x="254.6551724137931" y="507.2413793103448"/>
      <point x="200.3793103448276" y="469.9310344827586"/>
      <point x="200.3793103448276" y="399.55172413793105" type="curve" smooth="yes"/>
      <point x="200.3793103448276" y="338.17241379310343"/>
      <point x="244.93103448275863" y="300.13793103448273"/>
      <point x="301.7931034482759" y="300.13793103448273" type="curve" smooth="yes"/>
      <point x="361.82758620689657" y="300.13793103448273"/>
      <point x="395.6551724137931" y="344.2413793103448"/>
      <point x="395.6551724137931" y="403.62068965517244" type="curve" smooth="yes"/>
      <point x="395.6551724137931" y="477.3103448275862"/>
      <point x="351.58620689655174" y="540.4137931034483"/>
      <point x="312.2068965517241" y="573.1379310344828" type="curve"/>
      <point x="188.86206896551724" y="571.4137931034483" type="line"/>
      <point x="295.17241379310343" y="540.4137931034483"/>
      <point x="329.13793103448273" y="486.0689655172414"/>
      <point x="340.13793103448273" y="403.6896551724138" type="curve"/>
      <point x="358.7586206896552" y="412.41379310344826"/>
      <point x="370.9655172413793" y="416.7931034482759"/>
      <point x="390.3448275862069" y="416.7931034482759" type="curve" smooth="yes"/>
      <point x="429.7241379310345" y="416.7931034482759"/>
      <point x="477.7241379310345" y="383.7241379310345"/>
      <point x="477.7241379310345" y="309.2068965517241" type="curve" smooth="yes"/>
      <point x="477.7241379310345" y="226.13793103448276"/>
      <point x="423.7931034482759" y="183.6206896551724"/>
      <point x="333.17241379310343" y="183.6206896551724" type="curve" smooth="yes"/>
      <point x="219.24137931034483" y="183.6206896551724"/>
      <point x="130.75862068965517" y="259.9655172413793"/>
      <point x="61.206896551724135" y="488.41379310344826" type="curve"/>
      <point x="15.620689655172413" y="475.13793103448273" type="line"/>
      <point x="96.41379310344827" y="169.6206896551724"/>
      <point x="210.13793103448276" y="80.03448275862068"/>
    </contour>
    <contour>
      <point x="904.0" y="-27.758620689655174" type="line"/>
      <point x="908.3793103448276" y="-26.482758620689655" type="line"/>
      <point x="908.3793103448276" y="564.4827586206897" type="line"/>
      <point x="1018.7586206896552" y="564.4827586206897" type="line"/>
      <point x="981.8275862068965" y="622.0" type="line"/>
      <point x="906.448275862069" y="622.0" type="line"/>
      <point x="901.3448275862069" y="668.3103448275862" type="line"/>
      <point x="849.2758620689655" y="702.1379310344828" type="line"/>
      <point x="844.448275862069" y="700.5862068965517" type="line"/>
      <point x="844.448275862069" y="617.448275862069" type="line" smooth="yes"/>
      <point x="844.448275862069" y="598.8965517241379"/>
      <point x="848.1724137931035" y="543.6206896551724"/>
      <point x="852.448275862069" y="496.62068965517244" type="curve"/>
      <point x="859.551724137931" y="499.62068965517244" type="line"/>
      <point x="849.1724137931035" y="585.6206896551724"/>
      <point x="810.2068965517242" y="622.0"/>
      <point x="771.2413793103449" y="622.0" type="curve" smooth="yes"/>
      <point x="712.9655172413793" y="622.0" type="line"/>
      <point x="748.448275862069" y="564.4827586206897" type="line"/>
      <point x="775.7241379310345" y="564.4827586206897" type="line" smooth="yes"/>
      <point x="815.2758620689655" y="564.4827586206897"/>
      <point x="834.2758620689655" y="520.2068965517242"/>
      <point x="844.448275862069" y="467.3103448275862" type="curve"/>
      <point x="844.448275862069" y="2.4482758620689653" type="line"/>
    </contour>
  </outline>
</glyph>
<glyph name="i-beng" format="2">
  <advance width="477.58620689655174"/>
  <unicode hex="0987"/>
  <anchor x="275.48275862068965" y="79.51724137931035" name="bottom"/>
  <anchor x="397.41379310344826" y="-65.62068965517241" name="bottom.rakaar"/>
  <anchor x="336.55172413793105" y="78.41379310344827" name="bottom.rvocalic"/>
  <anchor x="256.6896551724138" y="80.34482758620689" name="bottom.virama"/>
  <anchor x="288.8965517241379" y="615.0689655172414" name="top"/>
  <anchor x="228.55172413793105" y="619.2413793103449" name="topright"/>
  <anchor x="238.79310344827587" y="0.0" name="vedic"/>
  <outline>
    <contour>
      <point x="362.0344827586207" y="608.1379310344828" type="curve"/>
      <point x="409.7241379310345" y="608.1379310344828" type="line"/>
      <point x="404.2758620689655" y="738.7241379310345"/>
      <point x="357.2413793103448" y="809.1379310344828"/>
      <point x="262.0344827586207" y="809.1379310344828" type="curve" smooth="yes"/>
      <point x="220.6206896551724" y="809.1379310344828"/>
      <point x="182.6206896551724" y="798.4137931034483"/>
      <point x="126.3448275862069" y="798.4137931034483" type="curve" smooth="yes"/>
      <point x="59.41379310344828" y="798.4137931034483"/>
      <point x="23.620689655172413" y="813.3448275862069"/>
      <point x="23.620689655172413" y="886.9310344827586" type="curve" smooth="yes"/>
      <point x="23.620689655172413" y="897.4827586206897"/>
      <point x="24.620689655172413" y="910.0344827586207"/>
      <point x="25.620689655172413" y="917.1379310344828" type="curve"/>
      <point x="-18.86206896551724" y="921.4137931034483" type="line"/>
      <point x="-21.413793103448274" y="902.3103448275862"/>
      <point x="-22.96551724137931" y="881.3793103448276"/>
      <point x="-22.96551724137931" y="860.3448275862069" type="curve" smooth="yes"/>
      <point x="-22.96551724137931" y="764.6896551724138"/>
      <point x="22.344827586206897" y="703.8620689655172"/>
      <point x="121.55172413793103" y="703.8620689655172" type="curve" smooth="yes"/>
      <point x="189.48275862068965" y="703.8620689655172"/>
      <point x="239.20689655172413" y="715.8620689655172"/>
      <point x="277.58620689655174" y="715.8620689655172" type="curve" smooth="yes"/>
      <point x="328.58620689655174" y="715.8620689655172"/>
      <point x="359.58620689655174" y="685.3448275862069"/>
    </contour>
    <component base="ha-beng"/>
  </outline>
</glyph>
<glyph name="ii-beng" format="2">
  <advance width="630.7931034482758"/>
  <unicode hex="0988"/>
  <anchor x="557.6896551724138" y="-14.758620689655173" name="bottom"/>
  <anchor x="559.2413793103449" y="63.6551724137931" name="bottom.rakaar"/>
  <anchor x="535.7241379310345" y="5.137931034482756" name="bottom.rvocalic"/>
  <anchor x="538.3448275862069" y="-10.482758620689657" name="bottom.virama"/>
  <anchor x="383.0" y="615.0689655172414" name="top"/>
  <anchor x="332.7241379310345" y="619.2413793103449" name="topright"/>
  <anchor x="315.0344827586207" y="0.0" name="vedic"/>
  <outline>
    <contour>
      <point x="515.0344827586207" y="-30.000000000000004" type="curve"/>
      <point x="556.7931034482758" y="-11.448275862068968" type="line"/>
      <point x="533.3448275862069" y="49.6551724137931"/>
      <point x="522.6206896551724" y="104.72413793103448"/>
      <point x="522.6206896551724" y="165.0" type="curve" smooth="yes"/>
      <point x="522.6206896551724" y="248.9310344827586"/>
      <point x="546.448275862069" y="334.3448275862069"/>
      <point x="593.2758620689656" y="410.55172413793105" type="curve"/>
      <point x="498.44827586206895" y="494.3448275862069" type="line"/>
      <point x="391.58620689655174" y="413.58620689655174"/>
      <point x="345.7241379310345" y="339.2068965517241"/>
      <point x="294.1034482758621" y="258.7586206896552" type="curve"/>
      <point x="354.3103448275862" y="282.9310344827586" type="line"/>
      <point x="357.1379310344828" y="296.41379310344826"/>
      <point x="358.1379310344828" y="316.51724137931035"/>
      <point x="358.1379310344828" y="330.0" type="curve" smooth="yes"/>
      <point x="358.1379310344828" y="420.3103448275862"/>
      <point x="306.6896551724138" y="505.2413793103448"/>
      <point x="173.51724137931035" y="505.2413793103448" type="curve" smooth="yes"/>
      <point x="91.0344827586207" y="505.2413793103448"/>
      <point x="47.55172413793103" y="470.3103448275862"/>
      <point x="47.55172413793103" y="413.2758620689655" type="curve" smooth="yes"/>
      <point x="47.55172413793103" y="361.58620689655174"/>
      <point x="81.41379310344827" y="328.7586206896552"/>
      <point x="134.3448275862069" y="328.7586206896552" type="curve" smooth="yes"/>
      <point x="187.82758620689654" y="328.7586206896552"/>
      <point x="218.86206896551724" y="366.13793103448273"/>
      <point x="218.86206896551724" y="426.44827586206895" type="curve" smooth="yes"/>
      <point x="218.86206896551724" y="475.51724137931035"/>
      <point x="186.44827586206895" y="541.5172413793103"/>
      <point x="149.27586206896552" y="571.4827586206897" type="curve"/>
      <point x="40.58620689655172" y="571.4827586206897" type="line"/>
      <point x="90.6896551724138" y="554.3103448275862"/>
      <point x="140.3793103448276" y="517.9655172413793"/>
      <point x="159.17241379310346" y="465.7931034482759" type="curve"/>
      <point x="111.6896551724138" y="400.7241379310345" type="line"/>
      <point x="146.82758620689654" y="419.7241379310345"/>
      <point x="172.75862068965517" y="431.37931034482756"/>
      <point x="211.55172413793105" y="431.37931034482756" type="curve" smooth="yes"/>
      <point x="280.0689655172414" y="431.37931034482756"/>
      <point x="301.0" y="389.7586206896552"/>
      <point x="301.0" y="340.9310344827586" type="curve" smooth="yes"/>
      <point x="301.0" y="307.1034482758621"/>
      <point x="288.82758620689657" y="271.48275862068965"/>
      <point x="267.82758620689657" y="240.75862068965517" type="curve" smooth="yes"/>
      <point x="239.93103448275863" y="200.13793103448276"/>
      <point x="212.3793103448276" y="186.75862068965517"/>
      <point x="176.3448275862069" y="186.75862068965517" type="curve" smooth="yes"/>
      <point x="146.41379310344828" y="186.75862068965517"/>
      <point x="117.41379310344827" y="204.13793103448276"/>
      <point x="90.13793103448276" y="256.3103448275862" type="curve"/>
      <point x="50.0" y="237.82758620689654" type="line"/>
      <point x="94.27586206896552" y="133.55172413793105"/>
      <point x="144.31034482758622" y="90.17241379310344"/>
      <point x="205.31034482758622" y="90.17241379310344" type="curve" smooth="yes"/>
      <point x="266.2758620689655" y="90.17241379310344"/>
      <point x="306.58620689655174" y="133.41379310344828"/>
      <point x="351.3793103448276" y="196.31034482758622" type="curve" smooth="yes"/>
      <point x="404.62068965517244" y="271.8965517241379"/>
      <point x="448.82758620689657" y="337.3103448275862"/>
      <point x="532.5862068965517" y="411.0689655172414" type="curve"/>
      <point x="502.9310344827586" y="411.2068965517241" type="line"/>
      <point x="473.3793103448276" y="344.7931034482759"/>
      <point x="457.7241379310345" y="275.51724137931035"/>
      <point x="457.7241379310345" y="209.6551724137931" type="curve" smooth="yes"/>
      <point x="457.7241379310345" y="124.72413793103448"/>
      <point x="479.7586206896552" y="45.34482758620689"/>
    </contour>
    <contour>
      <point x="4.551724137931035" y="564.4827586206897" type="line"/>
      <point x="661.448275862069" y="564.4827586206897" type="line"/>
      <point x="625.5172413793103" y="622.0" type="line"/>
      <point x="-30.655172413793103" y="622.0" type="line"/>
    </contour>
    <contour>
      <point x="498.7931034482759" y="608.1379310344828" type="curve"/>
      <point x="547.2068965517242" y="608.1379310344828" type="line"/>
      <point x="534.0344827586207" y="738.7241379310345"/>
      <point x="490.17241379310343" y="810.2413793103449"/>
      <point x="374.0344827586207" y="810.2413793103449" type="curve" smooth="yes"/>
      <point x="321.62068965517244" y="810.2413793103449"/>
      <point x="278.2413793103448" y="800.1379310344828"/>
      <point x="216.48275862068965" y="800.1379310344828" type="curve" smooth="yes"/>
      <point x="129.31034482758622" y="800.1379310344828"/>
      <point x="90.6896551724138" y="815.0689655172414"/>
      <point x="90.6896551724138" y="889.3793103448276" type="curve" smooth="yes"/>
      <point x="90.6896551724138" y="897.4827586206897"/>
      <point x="90.6896551724138" y="907.5862068965517"/>
      <point x="91.96551724137932" y="917.1379310344828" type="curve"/>
      <point x="48.206896551724135" y="921.4137931034483" type="line"/>
      <point x="44.6551724137931" y="902.3103448275862"/>
      <point x="43.37931034482759" y="883.8275862068965"/>
      <point x="43.37931034482759" y="865.6206896551724" type="curve" smooth="yes"/>
      <point x="43.37931034482759" y="763.6206896551724"/>
      <point x="102.65517241379311" y="705.5862068965517"/>
      <point x="218.9655172413793" y="705.5862068965517" type="curve" smooth="yes"/>
      <point x="291.8965517241379" y="705.5862068965517"/>
      <point x="353.44827586206895" y="716.9655172413793"/>
      <point x="401.3103448275862" y="716.9655172413793" type="curve" smooth="yes"/>
      <point x="464.6896551724138" y="716.9655172413793"/>
      <point x="488.62068965517244" y="685.3448275862069"/>
    </contour>
  </outline>
</glyph>
<glyph name="u-beng" format="2">
  <advance width="623.5172413793103"/>
  <unicode hex="0989"/>
  <anchor x="473.0" y="24.344827586206897" name="bottom"/>
  <anchor x="524.0344827586207" y="-6.827586206896552" name="bottom.rakaar"/>
  <anchor x="450.6551724137931" y="49.172413793103445" name="bottom.rvocalic"/>
  <anchor x="389.82758620689657" y="9.86206896551724" name="bottom.virama"/>
  <anchor x="366.58620689655174" y="613.6896551724138" name="top"/>
  <anchor x="306.37931034482756" y="619.2413793103449" name="topright"/>
  <anchor x="311.7586206896552" y="0.0" name="vedic"/>
  <anchor x="336.48275862068965" y="-74.6896551724138" name="nukta"/>
  <outline>
    <contour>
      <point x="492.17241379310343" y="608.1379310344828" type="curve"/>
      <point x="540.5862068965517" y="608.1379310344828" type="line"/>
      <point x="526.5862068965517" y="738.448275862069"/>
      <point x="483.0" y="809.1379310344828"/>
      <point x="367.9655172413793" y="809.1379310344828" type="curve" smooth="yes"/>
      <point x="316.6551724137931" y="809.1379310344828"/>
      <point x="276.58620689655174" y="800.1379310344828"/>
      <point x="217.58620689655172" y="800.1379310344828" type="curve" smooth="yes"/>
      <point x="128.48275862068965" y="800.1379310344828"/>
      <point x="89.86206896551724" y="814.7931034482758"/>
      <point x="89.86206896551724" y="889.3793103448276" type="curve" smooth="yes"/>
      <point x="89.86206896551724" y="897.2068965517242"/>
      <point x="90.13793103448276" y="907.3103448275862"/>
      <point x="91.13793103448276" y="916.8620689655172" type="curve"/>
      <point x="47.37931034482759" y="921.4137931034483" type="line"/>
      <point x="43.827586206896555" y="902.0344827586207"/>
      <point x="42.55172413793103" y="883.551724137931"/>
      <point x="42.55172413793103" y="865.6206896551724" type="curve" smooth="yes"/>
      <point x="42.55172413793103" y="763.3448275862069"/>
      <point x="101.82758620689656" y="705.3103448275862"/>
      <point x="219.24137931034483" y="705.3103448275862" type="curve" smooth="yes"/>
      <point x="290.2413793103448" y="705.3103448275862"/>
      <point x="348.48275862068965" y="715.5862068965517"/>
      <point x="392.7586206896552" y="715.5862068965517" type="curve" smooth="yes"/>
      <point x="457.2413793103448" y="715.5862068965517"/>
      <point x="481.44827586206895" y="685.0689655172414"/>
    </contour>
    <component base="dda-beng"/>
  </outline>
</glyph>
<glyph name="uu-beng" format="2">
  <advance width="690.6896551724138"/>
  <unicode hex="098A"/>
  <anchor x="537.9655172413793" y="22.689655172413794" name="bottom"/>
  <anchor x="589.0" y="-8.482758620689655" name="bottom.rakaar"/>
  <anchor x="515.6206896551724" y="47.51724137931034" name="bottom.rvocalic"/>
  <anchor x="454.7931034482759" y="8.482758620689655" name="bottom.virama"/>
  <anchor x="410.17241379310343" y="614.5172413793103" name="top"/>
  <anchor x="382.7241379310345" y="619.2413793103449" name="topright"/>
  <anchor x="345.3448275862069" y="0.0" name="vedic"/>
  <outline>
    <contour>
      <point x="431.13793103448273" y="36.48275862068965" type="curve" smooth="yes"/>
      <point x="576.1724137931035" y="36.48275862068965"/>
      <point x="650.551724137931" y="131.3448275862069"/>
      <point x="650.551724137931" y="257.58620689655174" type="curve" smooth="yes"/>
      <point x="650.551724137931" y="357.0689655172414"/>
      <point x="614.3448275862069" y="427.1034482758621"/>
      <point x="556.0689655172414" y="478.37931034482756" type="curve"/>
      <point x="513.4827586206897" y="413.3448275862069"/>
      <point x="456.7586206896552" y="356.48275862068965"/>
      <point x="402.44827586206895" y="356.48275862068965" type="curve" smooth="yes"/>
      <point x="382.0" y="356.48275862068965"/>
      <point x="369.8965517241379" y="365.6551724137931"/>
      <point x="369.8965517241379" y="385.0344827586207" type="curve" smooth="yes"/>
      <point x="369.8965517241379" y="564.4827586206897" type="line"/>
      <point x="721.3448275862069" y="564.4827586206897" type="line"/>
      <point x="684.8620689655172" y="622.0" type="line"/>
      <point x="-30.655172413793103" y="622.0" type="line"/>
      <point x="5.827586206896552" y="564.4827586206897" type="line"/>
      <point x="306.2413793103448" y="564.4827586206897" type="line"/>
      <point x="306.2413793103448" y="382.51724137931035" type="line" smooth="yes"/>
      <point x="306.2413793103448" y="345.2068965517241"/>
      <point x="317.8965517241379" y="317.82758620689657"/>
      <point x="340.7241379310345" y="296.44827586206895" type="curve" smooth="yes"/>
      <point x="360.6551724137931" y="277.51724137931035"/>
      <point x="389.58620689655174" y="263.9655172413793"/>
      <point x="422.7931034482759" y="263.9655172413793" type="curve" smooth="yes"/>
      <point x="483.3448275862069" y="263.9655172413793"/>
      <point x="552.551724137931" y="311.51724137931035"/>
      <point x="597.9310344827586" y="380.17241379310343" type="curve"/>
      <point x="555.9655172413793" y="379.6896551724138" type="line"/>
      <point x="582.1379310344828" y="360.0344827586207"/>
      <point x="595.9655172413793" y="333.48275862068965"/>
      <point x="595.9655172413793" y="281.2413793103448" type="curve" smooth="yes"/>
      <point x="595.9655172413793" y="197.24137931034483"/>
      <point x="540.6551724137931" y="140.24137931034483"/>
      <point x="446.7241379310345" y="137.79310344827587" type="curve" smooth="yes"/>
      <point x="290.58620689655174" y="133.6206896551724"/>
      <point x="238.58620689655172" y="288.41379310344826"/>
      <point x="178.58620689655172" y="499.7931034482759" type="curve"/>
      <point x="133.27586206896552" y="487.2413793103448" type="line"/>
      <point x="176.24137931034483" y="307.2758620689655"/>
      <point x="215.51724137931035" y="194.55172413793105"/>
      <point x="294.37931034482756" y="125.6896551724138" type="curve"/>
      <point x="326.13793103448273" y="125.89655172413794" type="line"/>
      <point x="217.41379310344828" y="157.44827586206895"/>
      <point x="137.3448275862069" y="277.62068965517244"/>
      <point x="70.34482758620689" y="498.13793103448273" type="curve"/>
      <point x="25.03448275862069" y="485.58620689655174" type="line"/>
      <point x="99.37931034482759" y="179.82758620689654"/>
      <point x="234.31034482758622" y="36.48275862068965"/>
    </contour>
    <contour>
      <point x="559.8620689655172" y="608.1379310344828" type="curve"/>
      <point x="608.2758620689655" y="608.1379310344828" type="line"/>
      <point x="594.551724137931" y="738.7241379310345"/>
      <point x="542.4137931034483" y="813.1379310344828"/>
      <point x="425.62068965517244" y="813.1379310344828" type="curve" smooth="yes"/>
      <point x="356.2068965517241" y="813.1379310344828"/>
      <point x="306.41379310344826" y="794.4137931034483"/>
      <point x="217.55172413793105" y="794.4137931034483" type="curve" smooth="yes"/>
      <point x="129.72413793103448" y="794.4137931034483"/>
      <point x="97.55172413793103" y="815.0689655172414"/>
      <point x="97.55172413793103" y="889.3793103448276" type="curve" smooth="yes"/>
      <point x="97.55172413793103" y="897.4827586206897"/>
      <point x="97.82758620689656" y="907.5862068965517"/>
      <point x="98.82758620689656" y="917.1379310344828" type="curve"/>
      <point x="54.3448275862069" y="921.4137931034483" type="line"/>
      <point x="51.793103448275865" y="902.3103448275862"/>
      <point x="50.241379310344826" y="883.8275862068965"/>
      <point x="50.241379310344826" y="865.6206896551724" type="curve" smooth="yes"/>
      <point x="50.241379310344826" y="758.448275862069"/>
      <point x="102.79310344827586" y="700.1379310344828"/>
      <point x="221.68965517241378" y="700.1379310344828" type="curve" smooth="yes"/>
      <point x="320.86206896551727" y="700.1379310344828"/>
      <point x="368.44827586206895" y="720.1379310344828"/>
      <point x="444.44827586206895" y="720.1379310344828" type="curve" smooth="yes"/>
      <point x="517.8275862068965" y="720.1379310344828"/>
      <point x="549.1379310344828" y="685.3448275862069"/>
    </contour>
  </outline>
</glyph>
<glyph name="rVocalic-beng" format="2">
  <advance width="756.3448275862069"/>
  <unicode hex="098B"/>
  <anchor x="512.1724137931035" y="0.0" name="bottom"/>
  <anchor x="512.1724137931035" y="74.6896551724138" name="bottom.rakaar"/>
  <anchor x="437.0" y="124.72413793103448" name="bottom.rvocalic"/>
  <anchor x="492.17241379310343" y="8.206896551724139" name="bottom.virama"/>
  <anchor x="512.1724137931035" y="564.4827586206897" name="top"/>
  <anchor x="515.1724137931035" y="564.4827586206897" name="topright"/>
  <anchor x="378.17241379310343" y="0.0" name="vedic"/>
  <outline>
    <contour>
      <point x="506.0689655172414" y="-18.24137931034483" type="line"/>
      <point x="512.1724137931035" y="-16.689655172413794" type="line"/>
      <point x="512.1724137931035" y="642.6206896551724" type="line"/>
      <point x="453.0689655172414" y="680.4827586206897" type="line"/>
      <point x="448.2413793103448" y="679.2068965517242" type="line"/>
      <point x="448.2413793103448" y="454.62068965517244" type="line"/>
      <point x="455.3448275862069" y="483.44827586206895" type="line"/>
      <point x="323.2758620689655" y="443.55172413793105"/>
      <point x="212.27586206896552" y="394.2413793103448"/>
      <point x="94.03448275862068" y="317.44827586206895" type="curve"/>
      <point x="138.6206896551724" y="195.89655172413794" type="line"/>
      <point x="273.9655172413793" y="187.89655172413794"/>
      <point x="382.1034482758621" y="136.55172413793105"/>
      <point x="452.7241379310345" y="20.413793103448274" type="curve"/>
    </contour>
    <contour>
      <point x="448.2413793103448" y="70.44827586206897" type="line"/>
      <point x="457.17241379310343" y="86.44827586206897" type="line"/>
      <point x="380.2758620689655" y="231.27586206896552"/>
      <point x="263.0" y="259.17241379310343"/>
      <point x="167.55172413793105" y="280.41379310344826" type="curve"/>
      <point x="181.20689655172413" y="247.9655172413793" type="line"/>
      <point x="261.0689655172414" y="309.82758620689657"/>
      <point x="365.55172413793105" y="352.9655172413793"/>
      <point x="461.62068965517244" y="380.8620689655172" type="curve"/>
      <point x="448.2413793103448" y="399.44827586206895" type="line"/>
    </contour>
    <contour>
      <point x="144.3448275862069" y="434.2413793103448" type="curve" smooth="yes"/>
      <point x="220.20689655172413" y="434.2413793103448"/>
      <point x="312.6896551724138" y="468.51724137931035"/>
      <point x="368.0344827586207" y="546.0344827586207" type="curve"/>
      <point x="328.41379310344826" y="542.9655172413793" type="line"/>
      <point x="360.48275862068965" y="517.7931034482758"/>
      <point x="371.51724137931035" y="496.41379310344826"/>
      <point x="408.82758620689657" y="443.44827586206895" type="curve"/>
      <point x="447.6896551724138" y="453.2758620689655" type="line"/>
      <point x="410.2758620689655" y="533.7931034482758"/>
      <point x="371.62068965517244" y="589.4827586206897"/>
      <point x="327.0344827586207" y="627.2068965517242" type="curve"/>
      <point x="267.62068965517244" y="542.6206896551724"/>
      <point x="189.31034482758622" y="521.5862068965517"/>
      <point x="149.41379310344828" y="521.5862068965517" type="curve" smooth="yes"/>
      <point x="136.86206896551724" y="521.5862068965517"/>
      <point x="123.58620689655173" y="524.8620689655172"/>
      <point x="115.75862068965517" y="527.4137931034483" type="curve"/>
      <point x="144.55172413793105" y="485.44827586206895" type="line"/>
      <point x="163.10344827586206" y="501.7241379310345"/>
      <point x="169.3793103448276" y="516.2758620689655"/>
      <point x="169.3793103448276" y="542.8275862068965" type="curve" smooth="yes"/>
      <point x="169.3793103448276" y="578.1034482758621"/>
      <point x="145.10344827586206" y="605.0344827586207"/>
      <point x="102.34482758620689" y="605.0344827586207" type="curve" smooth="yes"/>
      <point x="56.241379310344826" y="605.0344827586207"/>
      <point x="30.310344827586206" y="576.6551724137931"/>
      <point x="30.310344827586206" y="529.551724137931" type="curve" smooth="yes"/>
      <point x="30.310344827586206" y="463.44827586206895"/>
      <point x="86.6551724137931" y="434.2413793103448"/>
    </contour>
    <contour>
      <point x="672.2413793103449" y="76.55172413793103" type="line"/>
      <point x="676.3448275862069" y="77.82758620689656" type="line"/>
      <point x="676.3448275862069" y="564.4827586206897" type="line"/>
      <point x="787.0" y="564.4827586206897" type="line"/>
      <point x="749.7931034482758" y="622.0" type="line"/>
      <point x="674.4137931034483" y="622.0" type="line"/>
      <point x="669.5862068965517" y="668.3103448275862" type="line"/>
      <point x="617.5172413793103" y="702.1379310344828" type="line"/>
      <point x="612.6896551724138" y="700.5862068965517" type="line"/>
      <point x="612.6896551724138" y="166.3448275862069" type="line"/>
      <point x="621.6206896551724" y="182.6206896551724" type="line"/>
      <point x="583.0689655172414" y="257.13793103448273"/>
      <point x="538.448275862069" y="302.82758620689657"/>
      <point x="487.2413793103448" y="338.2758620689655" type="curve"/>
      <point x="479.41379310344826" y="257.2068965517241" type="line"/>
      <point x="537.1724137931035" y="227.6551724137931"/>
      <point x="579.6206896551724" y="179.24137931034483"/>
      <point x="617.1724137931035" y="115.20689655172414" type="curve"/>
    </contour>
  </outline>
</glyph>
<glyph name="lVocalic-beng" format="2">
  <advance width="531.448275862069"/>
  <unicode hex="098C"/>
  <anchor x="383.51724137931035" y="564.4827586206897" name="top"/>
  <anchor x="265.58620689655174" y="0.0" name="vedic"/>
  <outline>
    <contour>
      <point x="306.9310344827586" y="10.551724137931032" type="line"/>
      <point x="407.48275862068965" y="30.620689655172413"/>
      <point x="505.6551724137931" y="132.55172413793105"/>
      <point x="505.6551724137931" y="280.41379310344826" type="curve" smooth="yes"/>
      <point x="505.6551724137931" y="427.7931034482759"/>
      <point x="434.44827586206895" y="473.1034482758621"/>
      <point x="281.6896551724138" y="507.0" type="curve" smooth="yes"/>
      <point x="193.41379310344828" y="527.1724137931035"/>
      <point x="130.68965517241378" y="544.6206896551724"/>
      <point x="130.68965517241378" y="619.448275862069" type="curve" smooth="yes"/>
      <point x="130.68965517241378" y="646.2758620689655"/>
      <point x="136.68965517241378" y="671.7241379310345"/>
      <point x="146.9655172413793" y="698.2758620689655" type="curve"/>
      <point x="104.93103448275862" y="712.8275862068965" type="line"/>
      <point x="87.75862068965517" y="677.5862068965517"/>
      <point x="75.34482758620689" y="630.448275862069"/>
      <point x="75.34482758620689" y="591.8275862068965" type="curve" smooth="yes"/>
      <point x="75.34482758620689" y="475.44827586206895"/>
      <point x="141.82758620689654" y="438.3448275862069"/>
      <point x="274.2758620689655" y="411.44827586206895" type="curve" smooth="yes"/>
      <point x="382.7586206896552" y="389.0"/>
      <point x="450.41379310344826" y="370.6551724137931"/>
      <point x="450.41379310344826" y="257.6551724137931" type="curve" smooth="yes"/>
      <point x="450.41379310344826" y="186.27586206896552"/>
      <point x="409.13793103448273" y="115.34482758620689"/>
      <point x="353.3103448275862" y="103.27586206896552" type="curve"/>
      <point x="384.1034482758621" y="83.24137931034483" type="line"/>
      <point x="385.1034482758621" y="202.0344827586207"/>
      <point x="337.58620689655174" y="317.7586206896552"/>
      <point x="209.93103448275863" y="317.7586206896552" type="curve" smooth="yes"/>
      <point x="108.13793103448276" y="317.7586206896552"/>
      <point x="56.13793103448276" y="249.06896551724137"/>
      <point x="56.13793103448276" y="167.58620689655172" type="curve" smooth="yes"/>
      <point x="56.13793103448276" y="74.82758620689656"/>
      <point x="106.51724137931035" y="27.72413793103448"/>
      <point x="171.0" y="27.72413793103448" type="curve" smooth="yes"/>
      <point x="221.20689655172413" y="27.72413793103448"/>
      <point x="244.0344827586207" y="63.103448275862064"/>
      <point x="244.0344827586207" y="100.58620689655173" type="curve" smooth="yes"/>
      <point x="244.0344827586207" y="140.79310344827587"/>
      <point x="214.20689655172413" y="167.44827586206895"/>
      <point x="176.44827586206895" y="167.44827586206895" type="curve" smooth="yes"/>
      <point x="141.79310344827587" y="167.44827586206895"/>
      <point x="110.86206896551724" y="143.3448275862069"/>
      <point x="110.13793103448276" y="113.41379310344827" type="curve"/>
      <point x="154.55172413793105" y="113.75862068965517" type="line"/>
      <point x="131.82758620689654" y="121.48275862068965"/>
      <point x="114.37931034482759" y="140.9310344827586"/>
      <point x="114.37931034482759" y="175.3793103448276" type="curve" smooth="yes"/>
      <point x="114.37931034482759" y="213.10344827586206"/>
      <point x="143.3793103448276" y="243.55172413793105"/>
      <point x="192.55172413793105" y="243.55172413793105" type="curve" smooth="yes"/>
      <point x="274.2068965517241" y="243.55172413793105"/>
      <point x="303.2068965517241" y="151.3448275862069"/>
      <point x="303.2068965517241" y="64.44827586206897" type="curve" smooth="yes"/>
      <point x="303.2068965517241" y="47.0"/>
      <point x="302.2068965517241" y="30.551724137931032"/>
      <point x="299.9310344827586" y="14.827586206896552" type="curve"/>
    </contour>
  </outline>
</glyph>
<glyph name="e-beng" format="2">
  <advance width="651.8275862068965"/>
  <unicode hex="098F"/>
  <anchor x="582.6551724137931" y="0.0" name="bottom"/>
  <anchor x="582.6551724137931" y="0.7931034482758617" name="bottom.rvocalic"/>
  <anchor x="562.6551724137931" y="6.551724137931035" name="bottom.virama"/>
  <anchor x="489.6551724137931" y="564.4827586206897" name="top"/>
  <anchor x="492.6551724137931" y="564.4827586206897" name="topright"/>
  <anchor x="325.41379310344826" y="0.0" name="vedic"/>
  <outline>
    <contour>
      <point x="576.551724137931" y="-17.413793103448278" type="line"/>
      <point x="582.6551724137931" y="-16.13793103448276" type="line"/>
      <point x="582.6551724137931" y="501.0344827586207" type="line" smooth="yes"/>
      <point x="582.6551724137931" y="579.7931034482758"/>
      <point x="542.5172413793103" y="632.2758620689655"/>
      <point x="457.6551724137931" y="632.2758620689655" type="curve" smooth="yes"/>
      <point x="327.55172413793105" y="632.2758620689655"/>
      <point x="215.68965517241378" y="501.41379310344826"/>
      <point x="215.68965517241378" y="387.44827586206895" type="curve" smooth="yes"/>
      <point x="215.68965517241378" y="309.7931034482759"/>
      <point x="261.62068965517244" y="268.41379310344826"/>
      <point x="325.55172413793105" y="266.6896551724138" type="curve" smooth="yes"/>
      <point x="390.48275862068965" y="264.9655172413793"/>
      <point x="424.13793103448273" y="302.17241379310343"/>
      <point x="424.13793103448273" y="351.82758620689657" type="curve" smooth="yes"/>
      <point x="424.13793103448273" y="394.3103448275862"/>
      <point x="398.2068965517241" y="430.7586206896552"/>
      <point x="346.48275862068965" y="430.7586206896552" type="curve" smooth="yes"/>
      <point x="326.6551724137931" y="430.7586206896552"/>
      <point x="301.2068965517241" y="422.2068965517241"/>
      <point x="288.9310344827586" y="400.7586206896552" type="curve"/>
      <point x="319.41379310344826" y="398.6551724137931" type="line"/>
      <point x="317.9655172413793" y="465.82758620689657"/>
      <point x="395.17241379310343" y="571.3793103448276"/>
      <point x="462.58620689655174" y="571.3793103448276" type="curve" smooth="yes"/>
      <point x="507.7241379310345" y="571.3793103448276"/>
      <point x="518.7241379310345" y="541.4137931034483"/>
      <point x="518.7241379310345" y="496.55172413793105" type="curve" smooth="yes"/>
      <point x="518.7241379310345" y="198.79310344827587" type="line" smooth="yes"/>
      <point x="518.7241379310345" y="160.20689655172413"/>
      <point x="520.551724137931" y="119.3103448275862"/>
      <point x="524.6551724137931" y="83.75862068965517" type="curve"/>
      <point x="484.2758620689655" y="156.3448275862069"/>
      <point x="448.0689655172414" y="178.68965517241378"/>
      <point x="385.2413793103448" y="178.68965517241378" type="curve" smooth="yes"/>
      <point x="330.62068965517244" y="178.68965517241378"/>
      <point x="302.0344827586207" y="168.9655172413793"/>
      <point x="228.72413793103448" y="168.9655172413793" type="curve" smooth="yes"/>
      <point x="154.82758620689654" y="168.9655172413793"/>
      <point x="97.82758620689656" y="204.3448275862069"/>
      <point x="97.82758620689656" y="291.7931034482759" type="curve" smooth="yes"/>
      <point x="97.82758620689656" y="321.86206896551727"/>
      <point x="101.55172413793103" y="348.13793103448273"/>
      <point x="107.82758620689656" y="372.7931034482759" type="curve"/>
      <point x="61.3448275862069" y="382.7931034482759" type="line"/>
      <point x="52.96551724137931" y="349.7586206896552"/>
      <point x="46.689655172413794" y="309.44827586206895"/>
      <point x="46.689655172413794" y="268.0689655172414" type="curve" smooth="yes"/>
      <point x="46.689655172413794" y="118.3103448275862"/>
      <point x="132.44827586206895" y="66.37931034482759"/>
      <point x="229.6551724137931" y="66.37931034482759" type="curve" smooth="yes"/>
      <point x="302.6551724137931" y="66.37931034482759"/>
      <point x="346.2413793103448" y="81.75862068965517"/>
      <point x="416.3103448275862" y="81.75862068965517" type="curve" smooth="yes"/>
      <point x="463.48275862068965" y="81.75862068965517"/>
      <point x="491.6896551724138" y="68.75862068965517"/>
      <point x="526.2413793103449" y="19.586206896551722" type="curve"/>
    </contour>
  </outline>
</glyph>
<glyph name="ai-beng" format="2">
  <advance width="766.551724137931"/>
  <unicode hex="0990"/>
  <anchor x="513.2413793103449" y="600.8275862068965" name="top"/>
  <anchor x="474.48275862068965" y="601.1724137931035" name="topright"/>
  <anchor x="383.13793103448273" y="0.0" name="vedic"/>
  <anchor x="582.6551724137931" y="0.0" name="bottom"/>
  <anchor x="582.6551724137931" y="0.7931034482758617" name="bottom.rvocalic"/>
  <anchor x="562.6551724137931" y="6.551724137931035" name="bottom.virama"/>
  <outline>
    <contour>
      <point x="573.551724137931" y="325.44827586206895" type="line"/>
      <point x="633.6896551724138" y="379.58620689655174"/>
      <point x="694.5862068965517" y="455.2413793103448"/>
      <point x="694.5862068965517" y="565.1724137931035" type="curve" smooth="yes"/>
      <point x="694.5862068965517" y="740.6206896551724"/>
      <point x="553.1724137931035" y="761.5172413793103"/>
      <point x="424.2413793103448" y="779.7931034482758" type="curve" smooth="yes"/>
      <point x="315.41379310344826" y="795.1724137931035"/>
      <point x="231.3793103448276" y="808.551724137931"/>
      <point x="231.3793103448276" y="896.1724137931035" type="curve" smooth="yes"/>
      <point x="231.3793103448276" y="923.448275862069"/>
      <point x="237.6551724137931" y="952.2758620689655"/>
      <point x="248.48275862068965" y="977.1034482758621" type="curve"/>
      <point x="204.51724137931035" y="992.4827586206897" type="line"/>
      <point x="185.41379310344828" y="952.8275862068965"/>
      <point x="176.31034482758622" y="909.551724137931"/>
      <point x="176.31034482758622" y="873.1379310344828" type="curve" smooth="yes"/>
      <point x="176.31034482758622" y="732.2758620689655"/>
      <point x="300.2758620689655" y="712.8965517241379"/>
      <point x="420.86206896551727" y="697.6206896551724" type="curve" smooth="yes"/>
      <point x="541.1379310344828" y="682.7931034482758"/>
      <point x="646.3448275862069" y="667.8620689655172"/>
      <point x="646.3448275862069" y="555.6206896551724" type="curve" smooth="yes"/>
      <point x="646.3448275862069" y="486.0"/>
      <point x="608.3793103448276" y="437.55172413793105"/>
      <point x="549.7241379310345" y="393.7241379310345" type="curve"/>
    </contour>
    <component base="e-beng"/>
  </outline>
</glyph>
<glyph name="o-beng" format="2">
  <advance width="692.1034482758621"/>
  <unicode hex="0993"/>
  <anchor x="521.3103448275862" y="29.344827586206897" name="bottom"/>
  <anchor x="571.7931034482758" y="-0.7241379310344827" name="bottom.rakaar"/>
  <anchor x="499.51724137931035" y="53.62068965517241" name="bottom.rvocalic"/>
  <anchor x="439.2413793103448" y="15.413793103448276" name="bottom.virama"/>
  <anchor x="445.2068965517241" y="557.5862068965517" name="top"/>
  <anchor x="448.2068965517241" y="557.5862068965517" name="topright"/>
  <anchor x="345.6896551724138" y="0.0" name="vedic"/>
  <outline>
    <contour>
      <point x="427.51724137931035" y="48.37931034482759" type="curve" smooth="yes"/>
      <point x="575.9655172413793" y="48.37931034482759"/>
      <point x="648.7586206896551" y="135.44827586206895"/>
      <point x="648.7586206896551" y="240.31034482758622" type="curve" smooth="yes"/>
      <point x="648.7586206896551" y="342.37931034482756"/>
      <point x="567.1724137931035" y="419.3103448275862"/>
      <point x="479.58620689655174" y="419.3103448275862" type="curve" smooth="yes"/>
      <point x="432.7586206896552" y="419.3103448275862"/>
      <point x="403.1034482758621" y="391.1034482758621"/>
      <point x="403.1034482758621" y="346.62068965517244" type="curve" smooth="yes"/>
      <point x="403.1034482758621" y="302.41379310344826"/>
      <point x="431.0344827586207" y="272.7586206896552"/>
      <point x="480.6896551724138" y="272.7586206896552" type="curve" smooth="yes"/>
      <point x="560.6206896551724" y="272.7586206896552"/>
      <point x="626.1034482758621" y="384.2758620689655"/>
      <point x="626.1034482758621" y="481.0344827586207" type="curve" smooth="yes"/>
      <point x="626.1034482758621" y="570.6896551724138"/>
      <point x="566.0689655172414" y="630.7241379310345"/>
      <point x="456.37931034482756" y="630.7241379310345" type="curve" smooth="yes"/>
      <point x="309.44827586206895" y="630.7241379310345"/>
      <point x="187.44827586206895" y="530.3793103448276"/>
      <point x="187.44827586206895" y="419.44827586206895" type="curve" smooth="yes"/>
      <point x="187.44827586206895" y="352.0689655172414"/>
      <point x="229.55172413793105" y="318.41379310344826"/>
      <point x="278.58620689655174" y="318.41379310344826" type="curve" smooth="yes"/>
      <point x="328.17241379310343" y="318.41379310344826"/>
      <point x="360.0" y="345.44827586206895"/>
      <point x="360.0" y="396.55172413793105" type="curve" smooth="yes"/>
      <point x="360.0" y="438.7586206896552"/>
      <point x="335.17241379310343" y="466.6551724137931"/>
      <point x="296.3448275862069" y="466.6551724137931" type="curve" smooth="yes"/>
      <point x="278.0344827586207" y="466.6551724137931"/>
      <point x="254.58620689655172" y="459.44827586206895"/>
      <point x="241.24137931034483" y="441.7241379310345" type="curve"/>
      <point x="295.7931034482759" y="426.13793103448273" type="line"/>
      <point x="305.3103448275862" y="507.3103448275862"/>
      <point x="385.7586206896552" y="571.4827586206897"/>
      <point x="475.3448275862069" y="571.4827586206897" type="curve" smooth="yes"/>
      <point x="533.0344827586207" y="571.4827586206897"/>
      <point x="560.2758620689655" y="545.1379310344828"/>
      <point x="560.2758620689655" y="503.2758620689655" type="curve" smooth="yes"/>
      <point x="560.2758620689655" y="454.7586206896552"/>
      <point x="528.3793103448276" y="419.55172413793105"/>
      <point x="484.2758620689655" y="393.3103448275862" type="curve"/>
      <point x="500.6551724137931" y="351.6896551724138" type="line"/>
      <point x="536.5862068965517" y="352.2413793103448"/>
      <point x="589.6896551724138" y="325.51724137931035"/>
      <point x="589.6896551724138" y="263.44827586206895" type="curve" smooth="yes"/>
      <point x="589.6896551724138" y="200.3448275862069"/>
      <point x="536.6551724137931" y="148.48275862068965"/>
      <point x="430.13793103448273" y="148.48275862068965" type="curve" smooth="yes"/>
      <point x="281.62068965517244" y="148.48275862068965"/>
      <point x="147.24137931034483" y="247.89655172413794"/>
      <point x="59.58620689655172" y="545.3103448275862" type="curve"/>
      <point x="14.724137931034482" y="532.4827586206897" type="line"/>
      <point x="93.44827586206897" y="195.13793103448276"/>
      <point x="255.75862068965517" y="48.37931034482759"/>
    </contour>
  </outline>
</glyph>
<glyph name="au-beng" format="2">
  <advance width="777.3793103448276"/>
  <unicode hex="0994"/>
  <anchor x="526.2758620689655" y="30.172413793103445" name="bottom"/>
  <anchor x="577.3103448275862" y="-1.0" name="bottom.rakaar"/>
  <anchor x="504.2068965517241" y="54.72413793103448" name="bottom.rvocalic"/>
  <anchor x="443.3793103448276" y="15.689655172413794" name="bottom.virama"/>
  <anchor x="548.2068965517242" y="600.8275862068965" name="top"/>
  <anchor x="490.82758620689657" y="601.1724137931035" name="topright"/>
  <anchor x="388.6896551724138" y="0.0" name="vedic"/>
  <outline>
    <contour>
      <point x="584.3793103448276" y="328.48275862068965" type="line"/>
      <point x="644.5172413793103" y="382.62068965517244"/>
      <point x="705.4137931034483" y="456.8965517241379"/>
      <point x="705.4137931034483" y="566.448275862069" type="curve" smooth="yes"/>
      <point x="705.4137931034483" y="741.2413793103449"/>
      <point x="560.3793103448276" y="762.2413793103449"/>
      <point x="434.7931034482759" y="779.7931034482758" type="curve" smooth="yes"/>
      <point x="332.86206896551727" y="794.0689655172414"/>
      <point x="242.20689655172413" y="806.3448275862069"/>
      <point x="242.20689655172413" y="896.1724137931035" type="curve" smooth="yes"/>
      <point x="242.20689655172413" y="923.448275862069"/>
      <point x="248.48275862068965" y="952.2758620689655"/>
      <point x="259.3103448275862" y="977.1034482758621" type="curve"/>
      <point x="215.3448275862069" y="992.4827586206897" type="line"/>
      <point x="196.24137931034483" y="952.8275862068965"/>
      <point x="187.13793103448276" y="909.551724137931"/>
      <point x="187.13793103448276" y="873.1379310344828" type="curve" smooth="yes"/>
      <point x="187.13793103448276" y="732.2758620689655"/>
      <point x="311.1034482758621" y="712.8965517241379"/>
      <point x="430.9655172413793" y="697.6206896551724" type="curve" smooth="yes"/>
      <point x="545.6206896551724" y="682.6206896551724"/>
      <point x="657.1724137931035" y="669.7931034482758"/>
      <point x="657.1724137931035" y="555.0689655172414" type="curve" smooth="yes"/>
      <point x="657.1724137931035" y="476.82758620689657"/>
      <point x="618.2068965517242" y="430.9310344827586"/>
      <point x="559.8275862068965" y="386.82758620689657" type="curve"/>
    </contour>
    <component base="o-beng"/>
  </outline>
</glyph>
<glyph name="ka-beng" format="2">
  <advance width="714.0344827586207"/>
  <unicode hex="0995"/>
  <anchor x="434.82758620689657" y="31.103448275862068" name="bottom"/>
  <anchor x="440.6551724137931" y="51.51724137931034" name="bottom.rakaar"/>
  <anchor x="440.6551724137931" y="11.724137931034482" name="bottom.rvocalic"/>
  <anchor x="423.6896551724138" y="-0.3448275862068977" name="bottom.virama"/>
  <anchor x="208.68965517241378" y="60.82758620689655" name="nukta"/>
  <anchor x="434.86206896551727" y="573.5862068965517" name="top"/>
  <anchor x="437.58620689655174" y="570.2758620689655" name="topright"/>
  <anchor x="356.51724137931035" y="0.0" name="vedic"/>
  <outline>
    <contour>
      <point x="434.55172413793105" y="-16.03448275862069" type="line"/>
      <point x="440.6551724137931" y="-14.758620689655173" type="line"/>
      <point x="440.6551724137931" y="440.41379310344826" type="line"/>
      <point x="425.1034482758621" y="417.58620689655174" type="line"/>
      <point x="430.37931034482756" y="419.58620689655174"/>
      <point x="437.37931034482756" y="420.58620689655174"/>
      <point x="442.6551724137931" y="420.58620689655174" type="curve" smooth="yes"/>
      <point x="566.3448275862069" y="420.58620689655174"/>
      <point x="639.1034482758621" y="348.7241379310345"/>
      <point x="639.1034482758621" y="277.82758620689657" type="curve" smooth="yes"/>
      <point x="639.1034482758621" y="262.82758620689657"/>
      <point x="635.3793103448276" y="253.55172413793105"/>
      <point x="626.3793103448276" y="241.27586206896552" type="curve"/>
      <point x="645.8275862068965" y="242.27586206896552" type="line"/>
      <point x="636.2068965517242" y="283.6551724137931"/>
      <point x="612.1034482758621" y="303.7586206896552"/>
      <point x="577.0689655172414" y="303.7586206896552" type="curve" smooth="yes"/>
      <point x="532.9655172413793" y="303.7586206896552"/>
      <point x="508.2068965517241" y="271.7586206896552"/>
      <point x="508.2068965517241" y="231.27586206896552" type="curve" smooth="yes"/>
      <point x="508.2068965517241" y="192.41379310344828"/>
      <point x="532.4137931034483" y="154.13793103448276"/>
      <point x="587.7931034482758" y="154.13793103448276" type="curve" smooth="yes"/>
      <point x="650.551724137931" y="154.13793103448276"/>
      <point x="684.4137931034483" y="207.41379310344828"/>
      <point x="684.4137931034483" y="284.2068965517241" type="curve" smooth="yes"/>
      <point x="684.4137931034483" y="401.62068965517244"/>
      <point x="583.1379310344828" y="511.9655172413793"/>
      <point x="426.37931034482756" y="521.7931034482758" type="curve"/>
      <point x="440.6551724137931" y="497.51724137931035" type="line"/>
      <point x="440.6551724137931" y="564.4827586206897" type="line"/>
      <point x="744.6896551724138" y="564.4827586206897" type="line"/>
      <point x="708.7586206896551" y="622.0" type="line"/>
      <point x="-30.655172413793103" y="622.0" type="line"/>
      <point x="5.551724137931035" y="564.4827586206897" type="line"/>
      <point x="376.7241379310345" y="564.4827586206897" type="line"/>
      <point x="376.7241379310345" y="491.44827586206895" type="line"/>
      <point x="383.82758620689657" y="522.3448275862069" type="line"/>
      <point x="249.27586206896552" y="478.1034482758621"/>
      <point x="140.20689655172413" y="426.17241379310343"/>
      <point x="21.413793103448274" y="348.82758620689657" type="curve"/>
      <point x="66.27586206896552" y="226.44827586206895" type="line"/>
      <point x="203.82758620689654" y="209.0"/>
      <point x="309.48275862068965" y="139.58620689655172"/>
      <point x="381.48275862068965" y="22.620689655172413" type="curve"/>
    </contour>
    <contour>
      <point x="376.7241379310345" y="73.75862068965517" type="line"/>
      <point x="385.6551724137931" y="91.13793103448276" type="line"/>
      <point x="312.62068965517244" y="227.13793103448276"/>
      <point x="200.31034482758622" y="286.58620689655174"/>
      <point x="106.51724137931035" y="309.3103448275862" type="curve"/>
      <point x="117.41379310344828" y="285.58620689655174" type="line"/>
      <point x="196.3793103448276" y="341.7241379310345"/>
      <point x="297.3448275862069" y="389.0689655172414"/>
      <point x="390.1034482758621" y="421.0344827586207" type="curve"/>
      <point x="376.7241379310345" y="443.7241379310345" type="line"/>
    </contour>
  </outline>
</glyph>
<glyph name="kha-beng" format="2">
  <advance width="619.7586206896551"/>
  <unicode hex="0996"/>
  <anchor x="533.6551724137931" y="31.103448275862068" name="bottom"/>
  <anchor x="539.7586206896551" y="74.6896551724138" name="bottom.rakaar"/>
  <anchor x="539.7586206896551" y="11.724137931034482" name="bottom.rvocalic"/>
  <anchor x="519.7586206896551" y="8.206896551724139" name="bottom.virama"/>
  <anchor x="533.4137931034483" y="563.5862068965517" name="top"/>
  <anchor x="506.44827586206895" y="555.3103448275862" name="topright"/>
  <anchor x="289.51724137931035" y="0.0" name="vedic"/>
  <outline>
    <contour>
      <point x="533.6551724137931" y="-16.03448275862069" type="line"/>
      <point x="539.7586206896551" y="-14.758620689655173" type="line"/>
      <point x="539.7586206896551" y="564.4827586206897" type="line"/>
      <point x="650.4137931034483" y="564.4827586206897" type="line"/>
      <point x="613.2068965517242" y="622.0" type="line"/>
      <point x="537.8275862068965" y="622.0" type="line"/>
      <point x="532.7241379310345" y="668.3103448275862" type="line"/>
      <point x="480.6551724137931" y="702.1379310344828" type="line"/>
      <point x="475.82758620689657" y="700.5862068965517" type="line"/>
      <point x="475.82758620689657" y="72.37931034482759" type="line"/>
      <point x="484.7586206896552" y="88.65517241379311" type="line"/>
      <point x="425.13793103448273" y="200.93103448275863"/>
      <point x="340.2413793103448" y="264.8965517241379"/>
      <point x="232.31034482758622" y="300.9655172413793" type="curve"/>
      <point x="243.75862068965517" y="268.0344827586207" type="line"/>
      <point x="354.1034482758621" y="289.58620689655174"/>
      <point x="411.17241379310343" y="342.41379310344826"/>
      <point x="411.17241379310343" y="445.3103448275862" type="curve" smooth="yes"/>
      <point x="411.17241379310343" y="531.551724137931"/>
      <point x="356.82758620689657" y="589.2068965517242"/>
      <point x="312.2413793103448" y="626.9310344827586" type="curve"/>
      <point x="252.27586206896552" y="541.5172413793103"/>
      <point x="191.20689655172413" y="500.48275862068965"/>
      <point x="148.41379310344828" y="500.48275862068965" type="curve" smooth="yes"/>
      <point x="135.68965517241378" y="500.48275862068965"/>
      <point x="125.58620689655173" y="503.2068965517241"/>
      <point x="119.3103448275862" y="507.2068965517241" type="curve"/>
      <point x="144.55172413793105" y="475.44827586206895" type="line"/>
      <point x="163.10344827586206" y="491.7241379310345"/>
      <point x="169.3793103448276" y="506.2758620689655"/>
      <point x="169.3793103448276" y="532.8275862068965" type="curve" smooth="yes"/>
      <point x="169.3793103448276" y="568.1034482758621"/>
      <point x="145.10344827586206" y="595.0344827586207"/>
      <point x="102.34482758620689" y="595.0344827586207" type="curve" smooth="yes"/>
      <point x="56.241379310344826" y="595.0344827586207"/>
      <point x="30.310344827586206" y="566.6551724137931"/>
      <point x="30.310344827586206" y="519.551724137931" type="curve" smooth="yes"/>
      <point x="30.310344827586206" y="445.62068965517244"/>
      <point x="85.58620689655173" y="413.41379310344826"/>
      <point x="141.72413793103448" y="413.41379310344826" type="curve" smooth="yes"/>
      <point x="220.79310344827587" y="413.41379310344826"/>
      <point x="297.8965517241379" y="463.55172413793105"/>
      <point x="353.7931034482759" y="545.7586206896551" type="curve"/>
      <point x="311.6896551724138" y="544.3448275862069" type="line"/>
      <point x="334.6896551724138" y="523.3448275862069"/>
      <point x="347.7931034482759" y="499.3448275862069"/>
      <point x="347.7931034482759" y="464.7241379310345" type="curve" smooth="yes"/>
      <point x="347.7931034482759" y="376.82758620689657"/>
      <point x="233.58620689655172" y="340.82758620689657"/>
      <point x="123.51724137931035" y="340.82758620689657" type="curve"/>
      <point x="166.27586206896552" y="225.44827586206895" type="line"/>
      <point x="311.51724137931035" y="209.55172413793105"/>
      <point x="410.41379310344826" y="139.0344827586207"/>
      <point x="480.58620689655174" y="22.344827586206897" type="curve"/>
    </contour>
  </outline>
</glyph>
<glyph name="ga-beng" format="2">
  <advance width="609.0689655172414"/>
  <unicode hex="0997"/>
  <anchor x="516.1379310344828" y="51.206896551724135" name="bottom"/>
  <anchor x="529.0689655172414" y="-6.310344827586207" name="bottom.rakaar"/>
  <anchor x="529.0689655172414" y="-2.2758620689655173" name="bottom.rvocalic"/>
  <anchor x="505.7586206896552" y="6.551724137931035" name="bottom.virama"/>
  <anchor x="522.7241379310345" y="563.5862068965517" name="top"/>
  <anchor x="495.7586206896552" y="555.3103448275862" name="topright"/>
  <anchor x="304.17241379310343" y="0.0" name="vedic"/>
  <outline>
    <contour>
      <point x="524.6896551724138" y="-27.758620689655174" type="line"/>
      <point x="529.0689655172414" y="-26.482758620689655" type="line"/>
      <point x="529.0689655172414" y="564.4827586206897" type="line"/>
      <point x="639.7241379310345" y="564.4827586206897" type="line"/>
      <point x="602.5172413793103" y="622.0" type="line"/>
      <point x="527.1379310344828" y="622.0" type="line"/>
      <point x="522.3103448275862" y="668.3103448275862" type="line"/>
      <point x="470.2413793103448" y="702.1379310344828" type="line"/>
      <point x="465.41379310344826" y="700.5862068965517" type="line"/>
      <point x="465.41379310344826" y="569.1034482758621" type="line" smooth="yes"/>
      <point x="465.41379310344826" y="525.4137931034483"/>
      <point x="469.13793103448273" y="465.2413793103448"/>
      <point x="472.9655172413793" y="431.9655172413793" type="curve"/>
      <point x="484.2413793103448" y="432.2413793103448" type="line"/>
      <point x="411.2758620689655" y="572.448275862069"/>
      <point x="333.2413793103448" y="630.3793103448276"/>
      <point x="243.58620689655172" y="630.3793103448276" type="curve" smooth="yes"/>
      <point x="161.79310344827587" y="630.3793103448276"/>
      <point x="78.86206896551724" y="580.9655172413793"/>
      <point x="11.137931034482758" y="452.7931034482759" type="curve"/>
      <point x="85.58620689655173" y="378.62068965517244" type="line"/>
      <point x="128.20689655172413" y="412.2413793103448"/>
      <point x="169.75862068965517" y="429.7241379310345"/>
      <point x="210.75862068965517" y="429.7241379310345" type="curve" smooth="yes"/>
      <point x="249.82758620689654" y="429.7241379310345"/>
      <point x="268.82758620689657" y="408.37931034482756"/>
      <point x="268.82758620689657" y="376.6551724137931" type="curve" smooth="yes"/>
      <point x="268.82758620689657" y="331.0344827586207"/>
      <point x="214.93103448275863" y="292.41379310344826"/>
      <point x="126.44827586206897" y="260.7931034482759" type="curve"/>
      <point x="190.86206896551724" y="160.41379310344828" type="line"/>
      <point x="299.7586206896552" y="222.3103448275862"/>
      <point x="340.41379310344826" y="283.55172413793105"/>
      <point x="340.41379310344826" y="361.37931034482756" type="curve" smooth="yes"/>
      <point x="340.41379310344826" y="431.3103448275862"/>
      <point x="295.58620689655174" y="486.41379310344826"/>
      <point x="218.82758620689654" y="486.41379310344826" type="curve" smooth="yes"/>
      <point x="168.82758620689654" y="486.41379310344826"/>
      <point x="135.0" y="470.41379310344826"/>
      <point x="112.62068965517241" y="457.3103448275862" type="curve"/>
      <point x="133.79310344827587" y="442.0" type="line"/>
      <point x="171.75862068965517" y="521.6551724137931"/>
      <point x="219.68965517241378" y="545.2068965517242"/>
      <point x="262.82758620689657" y="545.2068965517242" type="curve" smooth="yes"/>
      <point x="334.8965517241379" y="545.2068965517242"/>
      <point x="400.44827586206895" y="505.55172413793105"/>
      <point x="480.13793103448273" y="353.82758620689657" type="curve"/>
      <point x="465.41379310344826" y="414.48275862068965" type="line"/>
      <point x="465.41379310344826" y="2.4482758620689653" type="line"/>
    </contour>
  </outline>
</glyph>
<glyph name="gha-beng" format="2">
  <advance width="538.1379310344828"/>
  <unicode hex="0998"/>
  <anchor x="452.58620689655174" y="31.103448275862068" name="bottom"/>
  <anchor x="458.41379310344826" y="74.6896551724138" name="bottom.rakaar"/>
  <anchor x="458.41379310344826" y="11.724137931034482" name="bottom.rvocalic"/>
  <anchor x="438.41379310344826" y="8.206896551724139" name="bottom.virama"/>
  <anchor x="452.62068965517244" y="573.5862068965517" name="top"/>
  <anchor x="455.3448275862069" y="570.2758620689655" name="topright"/>
  <anchor x="269.0689655172414" y="0.0" name="vedic"/>
  <outline>
    <contour>
      <point x="452.3103448275862" y="-16.03448275862069" type="line"/>
      <point x="458.41379310344826" y="-14.758620689655173" type="line"/>
      <point x="458.41379310344826" y="564.4827586206897" type="line"/>
      <point x="568.7931034482758" y="564.4827586206897" type="line"/>
      <point x="532.5862068965517" y="622.0" type="line"/>
      <point x="-30.655172413793103" y="622.0" type="line"/>
      <point x="5.551724137931035" y="564.4827586206897" type="line"/>
      <point x="394.48275862068965" y="564.4827586206897" type="line"/>
      <point x="394.48275862068965" y="72.37931034482759" type="line"/>
      <point x="403.41379310344826" y="88.65517241379311" type="line"/>
      <point x="340.48275862068965" y="204.17241379310346"/>
      <point x="256.0344827586207" y="252.51724137931035"/>
      <point x="112.96551724137932" y="300.9655172413793" type="curve"/>
      <point x="129.6551724137931" y="271.55172413793105" type="line"/>
      <point x="195.9655172413793" y="318.7931034482759"/>
      <point x="269.7241379310345" y="352.17241379310343"/>
      <point x="345.82758620689657" y="385.44827586206895" type="curve"/>
      <point x="299.7931034482759" y="469.17241379310343" type="line"/>
      <point x="267.0" y="449.0"/>
      <point x="231.75862068965517" y="438.2758620689655"/>
      <point x="202.93103448275863" y="438.2758620689655" type="curve" smooth="yes"/>
      <point x="161.31034482758622" y="438.2758620689655"/>
      <point x="138.31034482758622" y="463.62068965517244"/>
      <point x="138.31034482758622" y="496.3448275862069" type="curve" smooth="yes"/>
      <point x="138.31034482758622" y="542.7586206896551"/>
      <point x="172.72413793103448" y="564.4827586206897"/>
      <point x="214.24137931034483" y="574.7586206896551" type="curve"/>
      <point x="133.3103448275862" y="614.5172413793103" type="line"/>
      <point x="94.17241379310344" y="606.0344827586207"/>
      <point x="39.06896551724138" y="574.3103448275862"/>
      <point x="39.06896551724138" y="510.44827586206895" type="curve" smooth="yes"/>
      <point x="39.06896551724138" y="439.6896551724138"/>
      <point x="104.55172413793103" y="399.62068965517244"/>
      <point x="184.3448275862069" y="389.2758620689655" type="curve"/>
      <point x="168.17241379310346" y="409.6551724137931" type="line"/>
      <point x="128.9655172413793" y="388.9310344827586"/>
      <point x="83.27586206896552" y="366.7241379310345"/>
      <point x="39.44827586206897" y="337.7241379310345" type="curve"/>
      <point x="85.13793103448276" y="217.0" type="line"/>
      <point x="216.75862068965517" y="201.9310344827586"/>
      <point x="329.3448275862069" y="138.75862068965517"/>
      <point x="399.2413793103448" y="22.344827586206897" type="curve"/>
    </contour>
  </outline>
</glyph>
<glyph name="nga-beng" format="2">
  <advance width="618.8620689655172"/>
  <unicode hex="0999"/>
  <anchor x="412.3448275862069" y="18.206896551724135" name="bottom"/>
  <anchor x="519.5862068965517" y="-16.689655172413794" name="bottom.rakaar"/>
  <anchor x="432.8965517241379" y="9.79310344827586" name="bottom.rvocalic"/>
  <anchor x="385.37931034482756" y="0.0" name="bottom.virama"/>
  <anchor x="355.7931034482759" y="573.5862068965517" name="top"/>
  <anchor x="333.48275862068965" y="570.2758620689655" name="topright"/>
  <anchor x="308.9310344827586" y="0.0" name="vedic"/>
  <outline>
    <contour>
      <point x="366.58620689655174" y="27.172413793103445" type="curve" smooth="yes"/>
      <point x="506.37931034482756" y="27.172413793103445"/>
      <point x="578.551724137931" y="126.58620689655173"/>
      <point x="578.551724137931" y="252.55172413793105" type="curve" smooth="yes"/>
      <point x="578.551724137931" y="332.3103448275862"/>
      <point x="547.6896551724138" y="398.6896551724138"/>
      <point x="501.3448275862069" y="447.48275862068965" type="curve"/>
      <point x="446.7931034482759" y="381.3448275862069"/>
      <point x="378.6896551724138" y="319.9310344827586"/>
      <point x="318.44827586206895" y="319.9310344827586" type="curve" smooth="yes"/>
      <point x="301.17241379310343" y="319.9310344827586"/>
      <point x="291.3448275862069" y="329.9310344827586"/>
      <point x="291.3448275862069" y="348.7586206896552" type="curve" smooth="yes"/>
      <point x="291.3448275862069" y="465.2758620689655" type="line" smooth="yes"/>
      <point x="291.3448275862069" y="542.3103448275862"/>
      <point x="314.9655172413793" y="575.3103448275862"/>
      <point x="358.86206896551727" y="575.3103448275862" type="curve" smooth="yes"/>
      <point x="391.7586206896552" y="575.3103448275862"/>
      <point x="413.55172413793105" y="557.5862068965517"/>
      <point x="413.55172413793105" y="530.2413793103449" type="curve" smooth="yes"/>
      <point x="413.55172413793105" y="502.2413793103448"/>
      <point x="399.7241379310345" y="474.3448275862069"/>
      <point x="337.9310344827586" y="474.3448275862069" type="curve" smooth="yes"/>
      <point x="230.68965517241378" y="474.3448275862069"/>
      <point x="193.75862068965517" y="525.0689655172414"/>
      <point x="147.6551724137931" y="622.8275862068965" type="curve"/>
      <point x="105.62068965517241" y="602.551724137931" type="line"/>
      <point x="154.27586206896552" y="492.9655172413793"/>
      <point x="217.27586206896552" y="411.48275862068965"/>
      <point x="336.58620689655174" y="411.48275862068965" type="curve" smooth="yes"/>
      <point x="442.6551724137931" y="411.48275862068965"/>
      <point x="471.17241379310343" y="470.58620689655174"/>
      <point x="471.8965517241379" y="520.6206896551724" type="curve" smooth="yes"/>
      <point x="472.62068965517244" y="583.7241379310345"/>
      <point x="430.8965517241379" y="632.551724137931"/>
      <point x="354.58620689655174" y="632.551724137931" type="curve" smooth="yes"/>
      <point x="270.6551724137931" y="632.551724137931"/>
      <point x="226.79310344827587" y="575.3448275862069"/>
      <point x="226.79310344827587" y="481.41379310344826" type="curve" smooth="yes"/>
      <point x="226.79310344827587" y="344.8965517241379" type="line" smooth="yes"/>
      <point x="226.79310344827587" y="307.58620689655174"/>
      <point x="241.44827586206895" y="280.2068965517241"/>
      <point x="263.7241379310345" y="259.9310344827586" type="curve" smooth="yes"/>
      <point x="283.6551724137931" y="241.27586206896552"/>
      <point x="311.7586206896552" y="230.27586206896552"/>
      <point x="344.6896551724138" y="230.27586206896552" type="curve" smooth="yes"/>
      <point x="405.44827586206895" y="230.27586206896552"/>
      <point x="479.3103448275862" y="282.1034482758621"/>
      <point x="531.1724137931035" y="343.82758620689657" type="curve"/>
      <point x="490.86206896551727" y="364.3448275862069" type="line"/>
      <point x="509.86206896551727" y="340.51724137931035"/>
      <point x="522.4137931034483" y="312.41379310344826"/>
      <point x="522.4137931034483" y="273.62068965517244" type="curve" smooth="yes"/>
      <point x="522.4137931034483" y="188.72413793103448"/>
      <point x="466.41379310344826" y="127.37931034482759"/>
      <point x="364.6551724137931" y="127.37931034482759" type="curve" smooth="yes"/>
      <point x="215.82758620689654" y="127.37931034482759"/>
      <point x="131.20689655172413" y="235.89655172413794"/>
      <point x="53.310344827586206" y="492.55172413793105" type="curve"/>
      <point x="8.89655172413793" y="479.7241379310345" type="line"/>
      <point x="83.51724137931035" y="172.86206896551724"/>
      <point x="197.41379310344828" y="27.172413793103445"/>
    </contour>
  </outline>
</glyph>
<glyph name="ca-beng" format="2">
  <advance width="494.8965517241379"/>
  <unicode hex="099A"/>
  <anchor x="329.6551724137931" y="23.655172413793103" name="bottom"/>
  <anchor x="386.0" y="0.0" name="bottom.rakaar"/>
  <anchor x="330.62068965517244" y="16.620689655172413" name="bottom.rvocalic"/>
  <anchor x="255.6206896551724" y="33.51724137931034" name="bottom.virama"/>
  <anchor x="138.13793103448276" y="573.5862068965517" name="top"/>
  <anchor x="140.86206896551724" y="570.2758620689655" name="topright"/>
  <anchor x="247.44827586206895" y="0.0" name="vedic"/>
  <outline>
    <contour>
      <point x="214.55172413793105" y="24.103448275862068" type="curve" smooth="yes"/>
      <point x="356.7241379310345" y="24.103448275862068"/>
      <point x="455.3448275862069" y="208.0344827586207"/>
      <point x="455.3448275862069" y="317.3103448275862" type="curve" smooth="yes"/>
      <point x="455.3448275862069" y="362.2758620689655"/>
      <point x="417.6551724137931" y="393.7586206896552"/>
      <point x="395.7241379310345" y="406.3103448275862" type="curve"/>
      <point x="315.7931034482759" y="414.2068965517241"/>
      <point x="197.3793103448276" y="450.82758620689657"/>
      <point x="137.6551724137931" y="560.5172413793103" type="curve"/>
      <point x="138.10344827586206" y="487.0344827586207" type="line"/>
      <point x="181.72413793103448" y="393.7586206896552"/>
      <point x="262.6551724137931" y="331.0"/>
      <point x="387.37931034482756" y="317.6551724137931" type="curve"/>
      <point x="360.48275862068965" y="346.44827586206895" type="line"/>
      <point x="352.48275862068965" y="214.24137931034483"/>
      <point x="271.3103448275862" y="100.20689655172414"/>
      <point x="203.3448275862069" y="100.20689655172414" type="curve" smooth="yes"/>
      <point x="166.55172413793105" y="100.20689655172414"/>
      <point x="143.6551724137931" y="118.37931034482759"/>
      <point x="143.6551724137931" y="154.17241379310346" type="curve" smooth="yes"/>
      <point x="143.6551724137931" y="564.4827586206897" type="line"/>
      <point x="525.551724137931" y="564.4827586206897" type="line"/>
      <point x="489.62068965517244" y="622.0" type="line"/>
      <point x="-30.655172413793103" y="622.0" type="line"/>
      <point x="7.551724137931035" y="564.4827586206897" type="line"/>
      <point x="80.0" y="564.4827586206897" type="line"/>
      <point x="80.0" y="154.17241379310346" type="line" smooth="yes"/>
      <point x="80.0" y="77.6896551724138"/>
      <point x="140.0689655172414" y="24.103448275862068"/>
    </contour>
  </outline>
</glyph>
<glyph name="cha-beng" format="2">
  <advance width="539.6206896551724"/>
  <unicode hex="099B"/>
  <anchor x="324.1034482758621" y="45.275862068965516" name="bottom"/>
  <anchor x="454.6551724137931" y="-108.20689655172414" name="bottom.rakaar"/>
  <anchor x="393.51724137931035" y="35.82758620689655" name="bottom.rvocalic"/>
  <anchor x="313.6551724137931" y="37.758620689655174" name="bottom.virama"/>
  <anchor x="120.27586206896552" y="573.5862068965517" name="top"/>
  <anchor x="123.0" y="570.2758620689655" name="topright"/>
  <anchor x="269.3103448275862" y="0.0" name="vedic"/>
  <outline>
    <contour>
      <point x="528.2758620689655" y="-100.0" type="curve"/>
      <point x="561.2068965517242" y="-64.79310344827587" type="line"/>
      <point x="477.55172413793105" y="17.620689655172413"/>
      <point x="365.0" y="105.72413793103448"/>
      <point x="251.41379310344828" y="132.44827586206895" type="curve"/>
      <point x="240.41379310344828" y="103.58620689655172" type="line"/>
      <point x="250.86206896551724" y="99.58620689655172"/>
      <point x="271.44827586206895" y="97.75862068965517"/>
      <point x="293.55172413793105" y="97.75862068965517" type="curve" smooth="yes"/>
      <point x="400.82758620689657" y="97.75862068965517"/>
      <point x="493.41379310344826" y="169.51724137931035"/>
      <point x="493.41379310344826" y="303.0" type="curve" smooth="yes"/>
      <point x="493.41379310344826" y="416.55172413793105"/>
      <point x="407.62068965517244" y="493.62068965517244"/>
      <point x="302.37931034482756" y="493.62068965517244" type="curve" smooth="yes"/>
      <point x="211.3448275862069" y="493.62068965517244"/>
      <point x="160.31034482758622" y="509.62068965517244"/>
      <point x="119.79310344827586" y="564.7586206896551" type="curve"/>
      <point x="116.51724137931035" y="519.6551724137931" type="line"/>
      <point x="147.51724137931035" y="461.1034482758621"/>
      <point x="216.75862068965517" y="419.6896551724138"/>
      <point x="285.17241379310343" y="415.58620689655174" type="curve"/>
      <point x="256.0689655172414" y="457.2413793103448" type="line"/>
      <point x="250.44827586206895" y="366.0"/>
      <point x="215.55172413793105" y="307.8965517241379"/>
      <point x="166.0344827586207" y="307.8965517241379" type="curve" smooth="yes"/>
      <point x="138.79310344827587" y="307.8965517241379"/>
      <point x="125.79310344827586" y="325.2413793103448"/>
      <point x="125.79310344827586" y="347.58620689655174" type="curve" smooth="yes"/>
      <point x="125.79310344827586" y="564.4827586206897" type="line"/>
      <point x="570.2758620689655" y="564.4827586206897" type="line"/>
      <point x="533.7931034482758" y="622.0" type="line"/>
      <point x="-30.655172413793103" y="622.0" type="line"/>
      <point x="5.551724137931035" y="564.4827586206897" type="line"/>
      <point x="62.13793103448276" y="564.4827586206897" type="line"/>
      <point x="62.13793103448276" y="348.13793103448273" type="line" smooth="yes"/>
      <point x="62.13793103448276" y="292.2068965517241"/>
      <point x="112.20689655172414" y="236.82758620689654"/>
      <point x="180.41379310344828" y="236.82758620689654" type="curve" smooth="yes"/>
      <point x="266.2758620689655" y="236.82758620689654"/>
      <point x="335.55172413793105" y="292.41379310344826"/>
      <point x="359.62068965517244" y="460.6551724137931" type="curve"/>
      <point x="313.51724137931035" y="434.2068965517241" type="line"/>
      <point x="362.17241379310343" y="434.2068965517241"/>
      <point x="427.3103448275862" y="406.7586206896552"/>
      <point x="427.3103448275862" y="321.51724137931035" type="curve" smooth="yes"/>
      <point x="427.3103448275862" y="249.06896551724137"/>
      <point x="377.8965517241379" y="183.86206896551724"/>
      <point x="251.3448275862069" y="183.86206896551724" type="curve" smooth="yes"/>
      <point x="197.06896551724137" y="183.86206896551724"/>
      <point x="146.0344827586207" y="190.41379310344828"/>
      <point x="92.41379310344827" y="210.3448275862069" type="curve"/>
      <point x="115.72413793103448" y="96.62068965517241" type="line"/>
      <point x="279.2068965517241" y="71.17241379310344"/>
      <point x="383.6896551724138" y="24.655172413793103"/>
    </contour>
  </outline>
</glyph>
<glyph name="ja-beng" format="2">
  <advance width="800.6551724137931"/>
  <unicode hex="099C"/>
  <anchor x="698.448275862069" y="74.3103448275862" name="bottom"/>
  <anchor x="712.1724137931035" y="65.3103448275862" name="bottom.rakaar"/>
  <anchor x="709.7241379310345" y="2.1379310344827562" name="bottom.rvocalic"/>
  <anchor x="691.2758620689655" y="-8.827586206896553" name="bottom.virama"/>
  <anchor x="440.2413793103448" y="573.5862068965517" name="top"/>
  <anchor x="442.6896551724138" y="570.2758620689655" name="topright"/>
  <anchor x="399.9655172413793" y="0.0" name="vedic"/>
  <outline>
    <contour>
      <point x="347.7931034482759" y="38.241379310344826" type="curve" smooth="yes"/>
      <point x="482.9310344827586" y="38.241379310344826"/>
      <point x="544.0344827586207" y="126.0"/>
      <point x="544.0344827586207" y="242.24137931034483" type="curve" smooth="yes"/>
      <point x="544.0344827586207" y="313.41379310344826"/>
      <point x="521.8620689655172" y="377.44827586206895"/>
      <point x="465.62068965517244" y="429.41379310344826" type="curve"/>
      <point x="417.6896551724138" y="363.9655172413793"/>
      <point x="371.2413793103448" y="325.3448275862069"/>
      <point x="326.62068965517244" y="325.3448275862069" type="curve" smooth="yes"/>
      <point x="289.2758620689655" y="325.3448275862069"/>
      <point x="264.82758620689657" y="345.51724137931035"/>
      <point x="264.82758620689657" y="383.3103448275862" type="curve" smooth="yes"/>
      <point x="264.82758620689657" y="448.82758620689657"/>
      <point x="341.8965517241379" y="510.41379310344826"/>
      <point x="457.0689655172414" y="564.4827586206897" type="curve"/>
      <point x="831.3103448275862" y="564.4827586206897" type="line"/>
      <point x="795.3793103448276" y="622.0" type="line"/>
      <point x="-30.655172413793103" y="622.0" type="line"/>
      <point x="5.551724137931035" y="564.4827586206897" type="line"/>
      <point x="332.82758620689657" y="564.4827586206897" type="line"/>
      <point x="312.7931034482759" y="582.448275862069" type="line"/>
      <point x="241.75862068965517" y="534.9655172413793"/>
      <point x="195.17241379310346" y="473.1034482758621"/>
      <point x="195.17241379310346" y="401.1034482758621" type="curve" smooth="yes"/>
      <point x="195.17241379310346" y="310.6896551724138"/>
      <point x="257.41379310344826" y="238.58620689655172"/>
      <point x="339.3448275862069" y="238.58620689655172" type="curve" smooth="yes"/>
      <point x="405.51724137931035" y="238.58620689655172"/>
      <point x="463.44827586206895" y="282.6551724137931"/>
      <point x="506.1034482758621" y="338.9655172413793" type="curve"/>
      <point x="465.51724137931035" y="348.2758620689655" type="line"/>
      <point x="480.62068965517244" y="326.44827586206895"/>
      <point x="492.44827586206895" y="299.44827586206895"/>
      <point x="492.44827586206895" y="262.44827586206895" type="curve" smooth="yes"/>
      <point x="492.44827586206895" y="196.79310344827587"/>
      <point x="447.0344827586207" y="136.9310344827586"/>
      <point x="347.62068965517244" y="136.9310344827586" type="curve" smooth="yes"/>
      <point x="207.48275862068965" y="136.9310344827586"/>
      <point x="125.37931034482759" y="248.24137931034483"/>
      <point x="62.48275862068966" y="489.7931034482759" type="curve"/>
      <point x="18.620689655172413" y="477.2413793103448" type="line"/>
      <point x="80.9655172413793" y="175.06896551724137"/>
      <point x="185.68965517241378" y="38.241379310344826"/>
    </contour>
    <contour>
      <point x="667.1379310344828" y="-28.344827586206897" type="curve"/>
      <point x="709.7241379310345" y="-9.793103448275865" type="line"/>
      <point x="689.0689655172414" y="53.06896551724138"/>
      <point x="681.6206896551724" y="113.24137931034483"/>
      <point x="681.6206896551724" y="173.6206896551724" type="curve" smooth="yes"/>
      <point x="681.6206896551724" y="247.6206896551724"/>
      <point x="708.448275862069" y="320.48275862068965"/>
      <point x="758.8275862068965" y="391.58620689655174" type="curve"/>
      <point x="709.0344827586207" y="465.37931034482756" type="line"/>
      <point x="586.6551724137931" y="465.51724137931035"/>
      <point x="511.44827586206895" y="497.82758620689657"/>
      <point x="463.2068965517241" y="599.1379310344828" type="curve"/>
      <point x="425.17241379310343" y="558.4137931034483" type="line"/>
      <point x="477.3448275862069" y="441.44827586206895"/>
      <point x="574.9310344827586" y="391.2413793103448"/>
      <point x="672.3103448275862" y="375.41379310344826" type="curve"/>
      <point x="657.551724137931" y="410.0689655172414" type="line"/>
      <point x="632.1724137931035" y="354.1034482758621"/>
      <point x="618.448275862069" y="277.86206896551727"/>
      <point x="618.448275862069" y="208.75862068965517" type="curve" smooth="yes"/>
      <point x="618.448275862069" y="121.41379310344827"/>
      <point x="635.9310344827586" y="48.48275862068965"/>
    </contour>
  </outline>
</glyph>
<glyph name="jha-beng" format="2">
  <advance width="682.8965517241379"/>
  <unicode hex="099D"/>
  <anchor x="434.82758620689657" y="31.103448275862068" name="bottom"/>
  <anchor x="440.6551724137931" y="74.41379310344827" name="bottom.rakaar"/>
  <anchor x="440.6551724137931" y="11.448275862068966" name="bottom.rvocalic"/>
  <anchor x="421.7586206896552" y="8.206896551724139" name="bottom.virama"/>
  <anchor x="415.13793103448273" y="573.5862068965517" name="top"/>
  <anchor x="484.3103448275862" y="573.5862068965517" name="topleft"/>
  <anchor x="417.58620689655174" y="570.2758620689655" name="topright"/>
  <anchor x="341.44827586206895" y="0.0" name="vedic"/>
  <outline>
    <contour>
      <point x="434.55172413793105" y="-16.03448275862069" type="line"/>
      <point x="440.6551724137931" y="-14.758620689655173" type="line"/>
      <point x="440.6551724137931" y="622.0" type="line"/>
      <point x="-30.655172413793103" y="622.0" type="line"/>
      <point x="5.551724137931035" y="564.4827586206897" type="line"/>
      <point x="376.7241379310345" y="564.4827586206897" type="line"/>
      <point x="376.7241379310345" y="494.62068965517244" type="line"/>
      <point x="383.82758620689657" y="522.3448275862069" type="line"/>
      <point x="249.55172413793105" y="478.37931034482756"/>
      <point x="140.75862068965517" y="426.44827586206895"/>
      <point x="21.413793103448274" y="348.82758620689657" type="curve"/>
      <point x="66.27586206896552" y="226.44827586206895" type="line"/>
      <point x="203.27586206896552" y="209.27586206896552"/>
      <point x="310.0344827586207" y="139.0344827586207"/>
      <point x="381.48275862068965" y="22.620689655172413" type="curve"/>
    </contour>
    <contour>
      <point x="376.7241379310345" y="73.75862068965517" type="line"/>
      <point x="385.6551724137931" y="91.13793103448276" type="line"/>
      <point x="311.51724137931035" y="228.79310344827587"/>
      <point x="197.55172413793105" y="287.13793103448273"/>
      <point x="106.51724137931035" y="309.3103448275862" type="curve"/>
      <point x="117.41379310344828" y="284.58620689655174" type="line"/>
      <point x="196.6551724137931" y="341.2758620689655"/>
      <point x="297.3448275862069" y="388.3448275862069"/>
      <point x="390.1034482758621" y="420.3103448275862" type="curve"/>
      <point x="376.7241379310345" y="440.2758620689655" type="line"/>
    </contour>
    <contour>
      <point x="598.7931034482758" y="76.55172413793103" type="line"/>
      <point x="603.1724137931035" y="77.82758620689656" type="line"/>
      <point x="603.1724137931035" y="564.4827586206897" type="line"/>
      <point x="713.551724137931" y="564.4827586206897" type="line"/>
      <point x="676.6206896551724" y="622.0" type="line"/>
      <point x="601.2413793103449" y="622.0" type="line"/>
      <point x="596.1379310344828" y="668.3103448275862" type="line"/>
      <point x="544.0689655172414" y="702.1379310344828" type="line"/>
      <point x="539.2413793103449" y="700.5862068965517" type="line"/>
      <point x="539.2413793103449" y="166.3448275862069" type="line"/>
      <point x="548.1724137931035" y="182.6206896551724" type="line"/>
      <point x="510.17241379310343" y="256.0344827586207"/>
      <point x="465.0" y="302.82758620689657"/>
      <point x="413.7931034482759" y="338.2758620689655" type="curve"/>
      <point x="406.2413793103448" y="257.2068965517241" type="line"/>
      <point x="463.7241379310345" y="227.6551724137931"/>
      <point x="506.7241379310345" y="178.41379310344828"/>
      <point x="543.7241379310345" y="115.20689655172414" type="curve"/>
    </contour>
  </outline>
</glyph>
<glyph name="nya-beng" format="2">
  <advance width="949.1724137931035"/>
  <unicode hex="099E"/>
  <anchor x="576.8275862068965" y="29.724137931034484" name="bottom"/>
  <anchor x="734.6896551724138" y="73.3103448275862" name="bottom.rakaar"/>
  <anchor x="582.6551724137931" y="7.172413793103448" name="bottom.rvocalic"/>
  <anchor x="562.6551724137931" y="6.827586206896552" name="bottom.virama"/>
  <anchor x="498.44827586206895" y="573.5862068965517" name="top"/>
  <anchor x="501.17241379310343" y="570.2758620689655" name="topright"/>
  <anchor x="474.58620689655174" y="0.0" name="vedic"/>
  <outline>
    <contour>
      <point x="744.551724137931" y="49.48275862068965" type="curve" smooth="yes"/>
      <point x="829.8620689655172" y="49.48275862068965"/>
      <point x="878.8620689655172" y="117.3103448275862"/>
      <point x="878.8620689655172" y="203.48275862068965" type="curve" smooth="yes"/>
      <point x="878.8620689655172" y="256.13793103448273"/>
      <point x="860.4827586206897" y="307.7931034482759"/>
      <point x="815.551724137931" y="346.3448275862069" type="curve"/>
      <point x="826.7586206896551" y="303.6896551724138" type="line"/>
      <point x="856.7586206896551" y="334.41379310344826"/>
      <point x="876.1379310344828" y="388.13793103448273"/>
      <point x="876.1379310344828" y="445.62068965517244" type="curve" smooth="yes"/>
      <point x="876.1379310344828" y="530.8275862068965"/>
      <point x="828.3103448275862" y="599.2068965517242"/>
      <point x="751.8275862068965" y="599.2068965517242" type="curve" smooth="yes"/>
      <point x="643.6896551724138" y="599.2068965517242"/>
      <point x="565.6206896551724" y="456.82758620689657"/>
      <point x="557.3448275862069" y="378.62068965517244" type="curve"/>
      <point x="557.3448275862069" y="275.51724137931035" type="line"/>
      <point x="573.8965517241379" y="158.75862068965517"/>
      <point x="652.6896551724138" y="49.48275862068965"/>
    </contour>
    <contour>
      <point x="741.1724137931035" y="138.75862068965517" type="curve" smooth="yes"/>
      <point x="661.2758620689655" y="138.75862068965517"/>
      <point x="589.551724137931" y="222.44827586206895"/>
      <point x="589.551724137931" y="321.3448275862069" type="curve" smooth="yes"/>
      <point x="589.551724137931" y="405.17241379310343"/>
      <point x="651.3793103448276" y="515.3103448275862"/>
      <point x="747.0" y="515.3103448275862" type="curve" smooth="yes"/>
      <point x="792.2413793103449" y="515.3103448275862"/>
      <point x="820.8620689655172" y="497.13793103448273"/>
      <point x="820.8620689655172" y="458.51724137931035" type="curve" smooth="yes"/>
      <point x="820.8620689655172" y="411.82758620689657"/>
      <point x="790.7586206896551" y="378.82758620689657"/>
      <point x="749.5862068965517" y="362.1034482758621" type="curve"/>
      <point x="802.5172413793103" y="351.6551724137931" type="line"/>
      <point x="782.5172413793103" y="381.44827586206895"/>
      <point x="753.1724137931035" y="391.6551724137931"/>
      <point x="725.9655172413793" y="391.6551724137931" type="curve" smooth="yes"/>
      <point x="684.5862068965517" y="391.6551724137931"/>
      <point x="656.0344827586207" y="365.0"/>
      <point x="656.0344827586207" y="323.0689655172414" type="curve" smooth="yes"/>
      <point x="656.0344827586207" y="277.41379310344826"/>
      <point x="687.1379310344828" y="251.75862068965517"/>
      <point x="730.2413793103449" y="251.75862068965517" type="curve" smooth="yes"/>
      <point x="769.7931034482758" y="251.75862068965517"/>
      <point x="796.8965517241379" y="268.7586206896552"/>
      <point x="819.2758620689655" y="297.3103448275862" type="curve"/>
      <point x="782.6896551724138" y="313.3448275862069" type="line"/>
      <point x="805.1379310344828" y="296.0689655172414"/>
      <point x="827.5172413793103" y="265.7241379310345"/>
      <point x="827.5172413793103" y="224.72413793103448" type="curve" smooth="yes"/>
      <point x="827.5172413793103" y="171.10344827586206"/>
      <point x="797.5172413793103" y="138.75862068965517"/>
    </contour>
    <component base="e-beng"/>
  </outline>
</glyph>
<glyph name="tta-beng" format="2">
  <advance width="512.5172413793103"/>
  <unicode hex="099F"/>
  <anchor x="330.2068965517241" y="23.655172413793103" name="bottom"/>
  <anchor x="386.0" y="4.172413793103448" name="bottom.rakaar"/>
  <anchor x="329.7586206896552" y="33.103448275862064" name="bottom.rvocalic"/>
  <anchor x="255.6206896551724" y="37.689655172413794" name="bottom.virama"/>
  <anchor x="289.86206896551727" y="676.4827586206897" name="top"/>
  <anchor x="199.86206896551724" y="639.6206896551724" name="topright"/>
  <anchor x="255.89655172413794" y="0.0" name="vedic"/>
  <anchor x="223.6206896551724" y="-79.72413793103448" name="nukta"/>
  <outline>
    <contour>
      <point x="387.44827586206895" y="608.1379310344828" type="curve"/>
      <point x="435.86206896551727" y="608.1379310344828" type="line"/>
      <point x="430.41379310344826" y="741.1724137931035"/>
      <point x="390.2758620689655" y="809.1379310344828"/>
      <point x="296.7931034482759" y="809.1379310344828" type="curve" smooth="yes"/>
      <point x="252.20689655172413" y="809.1379310344828"/>
      <point x="210.41379310344828" y="800.1379310344828"/>
      <point x="163.20689655172413" y="800.1379310344828" type="curve" smooth="yes"/>
      <point x="93.65517241379311" y="800.1379310344828"/>
      <point x="60.93103448275862" y="820.9655172413793"/>
      <point x="60.93103448275862" y="884.4827586206897" type="curve" smooth="yes"/>
      <point x="60.93103448275862" y="896.4827586206897"/>
      <point x="61.93103448275862" y="908.3103448275862"/>
      <point x="63.206896551724135" y="917.1379310344828" type="curve"/>
      <point x="19.448275862068964" y="921.4137931034483" type="line"/>
      <point x="16.620689655172413" y="904.7586206896551"/>
      <point x="14.344827586206897" y="882.1034482758621"/>
      <point x="14.344827586206897" y="863.1724137931035" type="curve" smooth="yes"/>
      <point x="14.344827586206897" y="771.9655172413793"/>
      <point x="58.6551724137931" y="705.5862068965517"/>
      <point x="163.24137931034483" y="705.5862068965517" type="curve" smooth="yes"/>
      <point x="220.17241379310346" y="705.5862068965517"/>
      <point x="266.3448275862069" y="715.8620689655172"/>
      <point x="307.17241379310343" y="715.8620689655172" type="curve" smooth="yes"/>
      <point x="359.17241379310343" y="715.8620689655172"/>
      <point x="385.2758620689655" y="687.7931034482758"/>
    </contour>
    <component base="ddha-beng"/>
  </outline>
</glyph>
<glyph name="ttha-beng" format="2">
  <advance width="549.4827586206897"/>
  <unicode hex="09A0"/>
  <anchor x="326.3448275862069" y="-8.000000000000002" name="bottom"/>
  <anchor x="453.37931034482756" y="-34.793103448275865" name="bottom.rakaar"/>
  <anchor x="376.3448275862069" y="-9.103448275862071" name="bottom.rvocalic"/>
  <anchor x="321.82758620689657" y="-3.3103448275862073" name="bottom.virama"/>
  <anchor x="434.82758620689657" y="559.2068965517242" name="top"/>
  <anchor x="428.7586206896552" y="617.551724137931" name="topleft"/>
  <anchor x="318.0" y="570.2758620689655" name="topright"/>
  <anchor x="274.37931034482756" y="0.0" name="vedic"/>
  <outline>
    <contour>
      <point x="281.0344827586207" y="-4.379310344827587" type="curve" smooth="yes"/>
      <point x="410.2413793103448" y="-4.379310344827587"/>
      <point x="487.2758620689655" y="86.41379310344827"/>
      <point x="487.2758620689655" y="222.10344827586206" type="curve" smooth="yes"/>
      <point x="487.2758620689655" y="350.13793103448273"/>
      <point x="415.1034482758621" y="448.44827586206895"/>
      <point x="305.13793103448273" y="564.4827586206897" type="curve"/>
      <point x="580.1379310344828" y="564.4827586206897" type="line"/>
      <point x="544.6551724137931" y="622.0" type="line"/>
      <point x="246.3793103448276" y="622.0" type="line"/>
      <point x="209.82758620689654" y="659.448275862069"/>
      <point x="183.75862068965517" y="698.9655172413793"/>
      <point x="183.75862068965517" y="738.0344827586207" type="curve" smooth="yes"/>
      <point x="183.75862068965517" y="775.3103448275862"/>
      <point x="207.9655172413793" y="804.7931034482758"/>
      <point x="256.2413793103448" y="834.1379310344828" type="curve"/>
      <point x="187.79310344827587" y="900.1724137931035" type="line"/>
      <point x="124.9655172413793" y="859.8275862068965"/>
      <point x="104.27586206896552" y="817.3448275862069"/>
      <point x="104.27586206896552" y="773.2413793103449" type="curve" smooth="yes"/>
      <point x="104.27586206896552" y="712.9655172413793"/>
      <point x="145.27586206896552" y="665.7241379310345"/>
      <point x="183.75862068965517" y="622.0" type="curve"/>
      <point x="-30.655172413793103" y="622.0" type="line"/>
      <point x="5.551724137931035" y="564.4827586206897" type="line"/>
      <point x="212.44827586206895" y="564.4827586206897" type="line"/>
      <point x="228.06896551724137" y="532.2413793103449"/>
      <point x="236.51724137931035" y="495.17241379310343"/>
      <point x="236.51724137931035" y="456.2758620689655" type="curve" smooth="yes"/>
      <point x="236.51724137931035" y="363.6896551724138"/>
      <point x="182.72413793103448" y="281.7931034482759"/>
      <point x="32.58620689655172" y="251.44827586206895" type="curve"/>
      <point x="59.275862068965516" y="82.72413793103448"/>
      <point x="147.20689655172413" y="-4.379310344827587"/>
    </contour>
    <contour>
      <point x="264.2758620689655" y="65.89655172413794" type="curve" smooth="yes"/>
      <point x="188.48275862068965" y="65.89655172413794"/>
      <point x="135.68965517241378" y="122.62068965517241"/>
      <point x="135.68965517241378" y="200.3793103448276" type="curve"/>
      <point x="120.41379310344827" y="168.55172413793105" type="line"/>
      <point x="248.6551724137931" y="201.27586206896552"/>
      <point x="301.13793103448273" y="282.3448275862069"/>
      <point x="301.13793103448273" y="386.37931034482756" type="curve" smooth="yes"/>
      <point x="301.13793103448273" y="463.3448275862069"/>
      <point x="276.86206896551727" y="520.0"/>
      <point x="249.55172413793105" y="577.2758620689655" type="curve"/>
      <point x="238.72413793103448" y="577.2758620689655" type="line"/>
      <point x="350.41379310344826" y="445.3448275862069"/>
      <point x="396.6896551724138" y="356.3448275862069"/>
      <point x="396.6896551724138" y="235.9655172413793" type="curve" smooth="yes"/>
      <point x="396.6896551724138" y="131.41379310344828"/>
      <point x="348.51724137931035" y="65.89655172413794"/>
    </contour>
  </outline>
</glyph>
<glyph name="dda-beng" format="2">
  <advance width="623.5172413793103"/>
  <unicode hex="09A1"/>
  <anchor x="433.0" y="24.344827586206897" name="bottom"/>
  <anchor x="524.0344827586207" y="-6.827586206896552" name="bottom.rakaar"/>
  <anchor x="437.55172413793105" y="34.86206896551724" name="bottom.rvocalic"/>
  <anchor x="389.82758620689657" y="9.86206896551724" name="bottom.virama"/>
  <anchor x="336.48275862068965" y="-74.6896551724138" name="nukta"/>
  <anchor x="297.2068965517241" y="573.5862068965517" name="top"/>
  <anchor x="299.6551724137931" y="570.2758620689655" name="topright"/>
  <anchor x="311.7586206896552" y="0.0" name="vedic"/>
  <outline>
    <contour>
      <point x="369.2068965517241" y="37.58620689655172" type="curve" smooth="yes"/>
      <point x="509.2758620689655" y="37.58620689655172"/>
      <point x="583.6551724137931" y="131.3448275862069"/>
      <point x="583.6551724137931" y="257.58620689655174" type="curve" smooth="yes"/>
      <point x="583.6551724137931" y="357.0689655172414"/>
      <point x="547.1724137931035" y="427.1034482758621"/>
      <point x="488.8965517241379" y="478.37931034482756" type="curve"/>
      <point x="446.3103448275862" y="413.3448275862069"/>
      <point x="389.58620689655174" y="356.48275862068965"/>
      <point x="335.2758620689655" y="356.48275862068965" type="curve" smooth="yes"/>
      <point x="314.82758620689657" y="356.48275862068965"/>
      <point x="302.7241379310345" y="365.6551724137931"/>
      <point x="302.7241379310345" y="385.0344827586207" type="curve" smooth="yes"/>
      <point x="302.7241379310345" y="564.4827586206897" type="line"/>
      <point x="654.1724137931035" y="564.4827586206897" type="line"/>
      <point x="617.6896551724138" y="622.0" type="line"/>
      <point x="-30.655172413793103" y="622.0" type="line"/>
      <point x="5.827586206896552" y="564.4827586206897" type="line"/>
      <point x="238.79310344827587" y="564.4827586206897" type="line"/>
      <point x="238.79310344827587" y="382.51724137931035" type="line" smooth="yes"/>
      <point x="238.79310344827587" y="345.2068965517241"/>
      <point x="250.44827586206895" y="318.1034482758621"/>
      <point x="273.55172413793105" y="296.7241379310345" type="curve" smooth="yes"/>
      <point x="293.48275862068965" y="277.7931034482759"/>
      <point x="322.13793103448273" y="264.2413793103448"/>
      <point x="355.62068965517244" y="264.2413793103448" type="curve" smooth="yes"/>
      <point x="416.17241379310343" y="264.2413793103448"/>
      <point x="485.37931034482756" y="311.7931034482759"/>
      <point x="530.4827586206897" y="380.44827586206895" type="curve"/>
      <point x="487.6896551724138" y="375.2758620689655" type="line"/>
      <point x="513.8620689655172" y="356.7241379310345"/>
      <point x="527.4137931034483" y="330.17241379310343"/>
      <point x="527.4137931034483" y="279.3103448275862" type="curve" smooth="yes"/>
      <point x="527.4137931034483" y="196.3448275862069"/>
      <point x="469.13793103448273" y="139.3448275862069"/>
      <point x="369.6551724137931" y="139.3448275862069" type="curve" smooth="yes"/>
      <point x="214.41379310344828" y="139.3448275862069"/>
      <point x="133.79310344827587" y="249.75862068965517"/>
      <point x="71.20689655172414" y="488.51724137931035" type="curve"/>
      <point x="24.79310344827586" y="477.2413793103448" type="line"/>
      <point x="86.6551724137931" y="181.48275862068965"/>
      <point x="197.82758620689654" y="37.58620689655172"/>
    </contour>
  </outline>
</glyph>
<glyph name="ddha-beng" format="2">
  <advance width="512.5172413793103"/>
  <unicode hex="09A2"/>
  <anchor x="330.7586206896552" y="23.655172413793103" name="bottom"/>
  <anchor x="386.0" y="4.172413793103448" name="bottom.rakaar"/>
  <anchor x="328.3103448275862" y="31.379310344827587" name="bottom.rvocalic"/>
  <anchor x="255.6206896551724" y="37.689655172413794" name="bottom.virama"/>
  <anchor x="223.6206896551724" y="-79.72413793103448" name="nukta"/>
  <anchor x="138.13793103448276" y="573.5862068965517" name="top"/>
  <anchor x="140.86206896551724" y="570.2758620689655" name="topright"/>
  <anchor x="255.89655172413794" y="0.0" name="vedic"/>
  <outline>
    <contour>
      <point x="214.55172413793105" y="28.275862068965516" type="curve" smooth="yes"/>
      <point x="350.3448275862069" y="28.275862068965516"/>
      <point x="469.62068965517244" y="200.17241379310346"/>
      <point x="469.62068965517244" y="328.13793103448273" type="curve" smooth="yes"/>
      <point x="469.62068965517244" y="421.62068965517244"/>
      <point x="418.41379310344826" y="457.82758620689657"/>
      <point x="359.2068965517241" y="457.82758620689657" type="curve" smooth="yes"/>
      <point x="297.7241379310345" y="457.82758620689657"/>
      <point x="263.9655172413793" y="415.44827586206895"/>
      <point x="263.9655172413793" y="368.6896551724138" type="curve" smooth="yes"/>
      <point x="263.9655172413793" y="316.7586206896552"/>
      <point x="295.3448275862069" y="281.82758620689657"/>
      <point x="349.2758620689655" y="281.82758620689657" type="curve" smooth="yes"/>
      <point x="380.62068965517244" y="281.82758620689657"/>
      <point x="393.1034482758621" y="294.82758620689657"/>
      <point x="406.48275862068965" y="311.48275862068965" type="curve"/>
      <point x="374.48275862068965" y="342.13793103448273" type="line"/>
      <point x="369.48275862068965" y="229.89655172413794"/>
      <point x="285.1034482758621" y="103.65517241379311"/>
      <point x="202.79310344827587" y="103.65517241379311" type="curve" smooth="yes"/>
      <point x="166.82758620689654" y="103.65517241379311"/>
      <point x="143.6551724137931" y="124.27586206896552"/>
      <point x="143.6551724137931" y="160.06896551724137" type="curve" smooth="yes"/>
      <point x="143.6551724137931" y="564.4827586206897" type="line"/>
      <point x="543.1724137931035" y="564.4827586206897" type="line"/>
      <point x="507.2413793103448" y="622.0" type="line"/>
      <point x="-30.655172413793103" y="622.0" type="line"/>
      <point x="7.551724137931035" y="564.4827586206897" type="line"/>
      <point x="80.0" y="564.4827586206897" type="line"/>
      <point x="80.0" y="158.6206896551724" type="line" smooth="yes"/>
      <point x="80.0" y="81.58620689655173"/>
      <point x="140.0689655172414" y="28.275862068965516"/>
    </contour>
  </outline>
</glyph>
<glyph name="nna-beng" format="2">
  <advance width="580.1034482758621"/>
  <unicode hex="09A3"/>
  <anchor x="487.17241379310343" y="51.206896551724135" name="bottom"/>
  <anchor x="500.1034482758621" y="-6.310344827586207" name="bottom.rakaar"/>
  <anchor x="500.1034482758621" y="-2.2758620689655173" name="bottom.rvocalic"/>
  <anchor x="476.7931034482759" y="6.551724137931035" name="bottom.virama"/>
  <anchor x="493.7586206896552" y="563.5862068965517" name="top"/>
  <anchor x="466.7931034482759" y="555.3103448275862" name="topright"/>
  <anchor x="289.55172413793105" y="0.0" name="vedic"/>
  <outline>
    <contour>
      <point x="495.7241379310345" y="-27.758620689655174" type="line"/>
      <point x="500.1034482758621" y="-26.482758620689655" type="line"/>
      <point x="500.1034482758621" y="564.4827586206897" type="line"/>
      <point x="610.7586206896551" y="564.4827586206897" type="line"/>
      <point x="573.551724137931" y="622.0" type="line"/>
      <point x="498.17241379310343" y="622.0" type="line"/>
      <point x="493.3448275862069" y="668.3103448275862" type="line"/>
      <point x="441.2758620689655" y="702.1379310344828" type="line"/>
      <point x="436.44827586206895" y="700.5862068965517" type="line"/>
      <point x="436.44827586206895" y="552.4137931034483" type="line" smooth="yes"/>
      <point x="436.44827586206895" y="499.44827586206895"/>
      <point x="439.7241379310345" y="438.7586206896552"/>
      <point x="442.55172413793105" y="398.58620689655174" type="curve"/>
      <point x="446.9310344827586" y="409.58620689655174" type="line"/>
      <point x="353.3448275862069" y="574.1724137931035"/>
      <point x="288.7586206896552" y="627.551724137931"/>
      <point x="200.86206896551724" y="627.551724137931" type="curve" smooth="yes"/>
      <point x="107.48275862068965" y="627.551724137931"/>
      <point x="38.3448275862069" y="555.551724137931"/>
      <point x="38.3448275862069" y="448.48275862068965" type="curve" smooth="yes"/>
      <point x="38.3448275862069" y="324.3103448275862"/>
      <point x="116.6896551724138" y="262.2068965517241"/>
      <point x="203.44827586206895" y="262.2068965517241" type="curve" smooth="yes"/>
      <point x="265.58620689655174" y="262.2068965517241"/>
      <point x="301.51724137931035" y="298.41379310344826"/>
      <point x="301.51724137931035" y="350.7241379310345" type="curve" smooth="yes"/>
      <point x="301.51724137931035" y="399.7586206896552"/>
      <point x="269.86206896551727" y="435.7931034482759"/>
      <point x="217.55172413793105" y="435.7931034482759" type="curve" smooth="yes"/>
      <point x="174.0689655172414" y="435.7931034482759"/>
      <point x="141.68965517241378" y="404.13793103448273"/>
      <point x="141.68965517241378" y="359.9310344827586" type="curve" smooth="yes"/>
      <point x="141.68965517241378" y="345.2758620689655"/>
      <point x="145.68965517241378" y="327.44827586206895"/>
      <point x="152.24137931034483" y="317.17241379310343" type="curve"/>
      <point x="197.27586206896552" y="347.9310344827586" type="line"/>
      <point x="186.72413793103448" y="345.6551724137931"/>
      <point x="175.17241379310346" y="344.6551724137931"/>
      <point x="164.6206896551724" y="344.6551724137931" type="curve" smooth="yes"/>
      <point x="126.72413793103448" y="344.6551724137931"/>
      <point x="101.17241379310344" y="375.2758620689655"/>
      <point x="101.17241379310344" y="424.0" type="curve" smooth="yes"/>
      <point x="101.17241379310344" y="489.7241379310345"/>
      <point x="152.6206896551724" y="526.7241379310345"/>
      <point x="217.44827586206895" y="526.7241379310345" type="curve" smooth="yes"/>
      <point x="300.62068965517244" y="526.7241379310345"/>
      <point x="358.9655172413793" y="484.8620689655172"/>
      <point x="446.2758620689655" y="329.0689655172414" type="curve"/>
      <point x="436.44827586206895" y="382.1034482758621" type="line"/>
      <point x="436.44827586206895" y="2.4482758620689653" type="line"/>
    </contour>
  </outline>
</glyph>
<glyph name="ta-beng" format="2">
  <advance width="628.9655172413793"/>
  <unicode hex="09A4"/>
  <anchor x="441.3103448275862" y="32.172413793103445" name="bottom"/>
  <anchor x="527.9310344827586" y="0.7241379310344827" name="bottom.rakaar"/>
  <anchor x="452.7586206896552" y="43.137931034482754" name="bottom.rvocalic"/>
  <anchor x="393.7241379310345" y="17.689655172413794" name="bottom.virama"/>
  <anchor x="380.3103448275862" y="573.5862068965517" name="top"/>
  <anchor x="382.7586206896552" y="570.2758620689655" name="topright"/>
  <anchor x="314.48275862068965" y="0.0" name="vedic"/>
  <outline>
    <contour>
      <point x="375.86206896551727" y="45.41379310344827" type="curve" smooth="yes"/>
      <point x="496.2413793103448" y="45.41379310344827"/>
      <point x="583.0344827586207" y="113.41379310344827"/>
      <point x="583.0344827586207" y="260.7586206896552" type="curve" smooth="yes"/>
      <point x="583.0344827586207" y="391.44827586206895"/>
      <point x="503.62068965517244" y="507.17241379310343"/>
      <point x="351.86206896551727" y="507.17241379310343" type="curve" smooth="yes"/>
      <point x="267.44827586206895" y="507.17241379310343"/>
      <point x="219.3448275862069" y="457.9655172413793"/>
      <point x="219.3448275862069" y="388.2068965517241" type="curve" smooth="yes"/>
      <point x="219.3448275862069" y="327.44827586206895"/>
      <point x="255.82758620689654" y="276.51724137931035"/>
      <point x="326.86206896551727" y="276.51724137931035" type="curve" smooth="yes"/>
      <point x="388.44827586206895" y="276.51724137931035"/>
      <point x="423.55172413793105" y="318.17241379310343"/>
      <point x="423.55172413793105" y="375.55172413793105" type="curve" smooth="yes"/>
      <point x="423.55172413793105" y="413.2068965517241"/>
      <point x="407.3448275862069" y="443.3103448275862"/>
      <point x="391.7931034482759" y="458.58620689655174" type="curve"/>
      <point x="361.7586206896552" y="407.3103448275862" type="line"/>
      <point x="373.7586206896552" y="411.8620689655172"/>
      <point x="391.41379310344826" y="415.51724137931035"/>
      <point x="409.3448275862069" y="415.51724137931035" type="curve" smooth="yes"/>
      <point x="462.2758620689655" y="415.51724137931035"/>
      <point x="523.4137931034483" y="376.44827586206895"/>
      <point x="523.4137931034483" y="283.9655172413793" type="curve" smooth="yes"/>
      <point x="523.4137931034483" y="191.27586206896552"/>
      <point x="464.58620689655174" y="148.44827586206895"/>
      <point x="376.2068965517241" y="148.44827586206895" type="curve" smooth="yes"/>
      <point x="237.3793103448276" y="148.44827586206895"/>
      <point x="136.6206896551724" y="241.3448275862069"/>
      <point x="57.724137931034484" y="501.6896551724138" type="curve"/>
      <point x="12.586206896551722" y="488.13793103448273" type="line"/>
      <point x="91.03448275862068" y="179.3793103448276"/>
      <point x="199.68965517241378" y="45.41379310344827"/>
    </contour>
    <contour>
      <point x="4.551724137931035" y="564.4827586206897" type="line"/>
      <point x="659.6206896551724" y="564.4827586206897" type="line"/>
      <point x="623.1379310344828" y="622.0" type="line"/>
      <point x="-30.655172413793103" y="622.0" type="line"/>
    </contour>
  </outline>
</glyph>
<glyph name="tha-beng" format="2">
  <advance width="569.1724137931035"/>
  <unicode hex="09A5"/>
  <anchor x="483.62068965517244" y="31.103448275862068" name="bottom"/>
  <anchor x="489.44827586206895" y="74.6896551724138" name="bottom.rakaar"/>
  <anchor x="489.44827586206895" y="11.724137931034482" name="bottom.rvocalic"/>
  <anchor x="469.44827586206895" y="8.206896551724139" name="bottom.virama"/>
  <anchor x="482.82758620689657" y="563.5862068965517" name="top"/>
  <anchor x="456.1379310344828" y="555.3103448275862" name="topright"/>
  <anchor x="284.44827586206895" y="0.0" name="vedic"/>
  <outline>
    <contour>
      <point x="483.3448275862069" y="-16.03448275862069" type="line"/>
      <point x="489.44827586206895" y="-14.758620689655173" type="line"/>
      <point x="489.44827586206895" y="564.4827586206897" type="line"/>
      <point x="599.8275862068965" y="564.4827586206897" type="line"/>
      <point x="562.8965517241379" y="622.0" type="line"/>
      <point x="487.51724137931035" y="622.0" type="line"/>
      <point x="482.41379310344826" y="668.3103448275862" type="line"/>
      <point x="430.3448275862069" y="702.1379310344828" type="line"/>
      <point x="425.51724137931035" y="700.5862068965517" type="line"/>
      <point x="425.51724137931035" y="72.37931034482759" type="line"/>
      <point x="434.44827586206895" y="88.65517241379311" type="line"/>
      <point x="377.9655172413793" y="199.48275862068965"/>
      <point x="272.86206896551727" y="267.48275862068965"/>
      <point x="155.72413793103448" y="303.7241379310345" type="curve"/>
      <point x="174.3448275862069" y="267.48275862068965" type="line"/>
      <point x="286.7931034482759" y="284.55172413793105"/>
      <point x="351.41379310344826" y="337.6896551724138"/>
      <point x="351.41379310344826" y="444.3103448275862" type="curve" smooth="yes"/>
      <point x="351.41379310344826" y="553.3448275862069"/>
      <point x="271.55172413793105" y="625.0"/>
      <point x="170.51724137931035" y="625.0" type="curve" smooth="yes"/>
      <point x="79.0344827586207" y="625.0"/>
      <point x="25.82758620689655" y="576.7241379310345"/>
      <point x="25.82758620689655" y="513.2413793103449" type="curve" smooth="yes"/>
      <point x="25.82758620689655" y="450.7586206896552"/>
      <point x="64.65517241379311" y="419.9310344827586"/>
      <point x="111.13793103448276" y="419.9310344827586" type="curve" smooth="yes"/>
      <point x="158.79310344827587" y="419.9310344827586"/>
      <point x="185.17241379310346" y="447.7586206896552"/>
      <point x="185.17241379310346" y="488.6896551724138" type="curve" smooth="yes"/>
      <point x="185.17241379310346" y="518.0689655172414"/>
      <point x="172.6206896551724" y="540.0689655172414"/>
      <point x="147.0689655172414" y="554.0689655172414" type="curve"/>
      <point x="144.44827586206895" y="521.6551724137931" type="line"/>
      <point x="158.72413793103448" y="541.9310344827586"/>
      <point x="180.3448275862069" y="551.9310344827586"/>
      <point x="207.0689655172414" y="551.9310344827586" type="curve" smooth="yes"/>
      <point x="253.68965517241378" y="551.9310344827586"/>
      <point x="286.2068965517241" y="519.4827586206897"/>
      <point x="286.2068965517241" y="467.7931034482759" type="curve" smooth="yes"/>
      <point x="286.2068965517241" y="369.44827586206895"/>
      <point x="160.6206896551724" y="340.55172413793105"/>
      <point x="63.206896551724135" y="345.7241379310345" type="curve"/>
      <point x="106.51724137931035" y="224.3448275862069" type="line"/>
      <point x="251.31034482758622" y="208.44827586206895"/>
      <point x="359.37931034482756" y="139.31034482758622"/>
      <point x="430.2758620689655" y="22.344827586206897" type="curve"/>
    </contour>
  </outline>
</glyph>
<glyph name="da-beng" format="2">
  <advance width="522.0344827586207"/>
  <unicode hex="09A6"/>
  <anchor x="434.7586206896552" y="83.13793103448276" name="bottom"/>
  <anchor x="448.58620689655174" y="66.6896551724138" name="bottom.rakaar"/>
  <anchor x="446.41379310344826" y="3.5172413793103434" name="bottom.rvocalic"/>
  <anchor x="427.6896551724138" y="-7.172413793103449" name="bottom.virama"/>
  <anchor x="125.58620689655173" y="573.5862068965517" name="top"/>
  <anchor x="128.31034482758622" y="570.2758620689655" name="topright"/>
  <anchor x="260.51724137931035" y="0.0" name="vedic"/>
  <outline>
    <contour>
      <point x="403.82758620689657" y="-26.965517241379313" type="curve"/>
      <point x="446.41379310344826" y="-8.137931034482762" type="line"/>
      <point x="424.1379310344828" y="55.72413793103448"/>
      <point x="412.2413793103448" y="111.62068965517241"/>
      <point x="412.2413793103448" y="172.44827586206895" type="curve" smooth="yes"/>
      <point x="412.2413793103448" y="254.44827586206895"/>
      <point x="435.51724137931035" y="338.2068965517241"/>
      <point x="481.51724137931035" y="412.48275862068965" type="curve"/>
      <point x="385.7931034482759" y="497.44827586206895" type="line"/>
      <point x="277.55172413793105" y="438.37931034482756"/>
      <point x="175.72413793103448" y="353.3103448275862"/>
      <point x="109.27586206896552" y="282.3103448275862" type="curve"/>
      <point x="131.3793103448276" y="258.51724137931035" type="line"/>
      <point x="131.3793103448276" y="564.4827586206897" type="line"/>
      <point x="552.6896551724138" y="564.4827586206897" type="line"/>
      <point x="516.7586206896551" y="622.0" type="line"/>
      <point x="-30.655172413793103" y="622.0" type="line"/>
      <point x="5.551724137931035" y="564.4827586206897" type="line"/>
      <point x="67.44827586206897" y="564.4827586206897" type="line"/>
      <point x="67.44827586206897" y="201.79310344827587" type="line"/>
      <point x="127.20689655172414" y="159.9655172413793" type="line"/>
      <point x="220.6551724137931" y="256.41379310344826"/>
      <point x="310.0344827586207" y="337.51724137931035"/>
      <point x="411.48275862068965" y="399.3448275862069" type="curve"/>
      <point x="387.9655172413793" y="412.0344827586207" type="line"/>
      <point x="360.51724137931035" y="348.6551724137931"/>
      <point x="346.7931034482759" y="279.6551724137931"/>
      <point x="346.7931034482759" y="212.3793103448276" type="curve" smooth="yes"/>
      <point x="346.7931034482759" y="129.68965517241378"/>
      <point x="368.82758620689657" y="49.6551724137931"/>
    </contour>
  </outline>
</glyph>
<glyph name="dha-beng" format="2">
  <advance width="525.6551724137931"/>
  <unicode hex="09A7"/>
  <anchor x="439.82758620689657" y="31.103448275862068" name="bottom"/>
  <anchor x="445.6551724137931" y="74.6896551724138" name="bottom.rakaar"/>
  <anchor x="445.6551724137931" y="11.724137931034482" name="bottom.rvocalic"/>
  <anchor x="425.6551724137931" y="8.206896551724139" name="bottom.virama"/>
  <anchor x="440.13793103448273" y="573.5862068965517" name="top"/>
  <anchor x="442.58620689655174" y="570.2758620689655" name="topright"/>
  <anchor x="262.6896551724138" y="0.0" name="vedic"/>
  <outline>
    <contour>
      <point x="439.55172413793105" y="-16.03448275862069" type="line"/>
      <point x="445.6551724137931" y="-14.758620689655173" type="line"/>
      <point x="445.6551724137931" y="564.4827586206897" type="line"/>
      <point x="556.3103448275862" y="564.4827586206897" type="line"/>
      <point x="519.8275862068965" y="622.0" type="line"/>
      <point x="381.7241379310345" y="622.0" type="line"/>
      <point x="381.7241379310345" y="479.62068965517244" type="line"/>
      <point x="389.1034482758621" y="506.7931034482759" type="line"/>
      <point x="254.82758620689654" y="461.17241379310343"/>
      <point x="145.20689655172413" y="409.7931034482759"/>
      <point x="26.96551724137931" y="332.7241379310345" type="curve"/>
      <point x="72.65517241379311" y="210.6206896551724" type="line"/>
      <point x="198.48275862068965" y="190.55172413793105"/>
      <point x="314.2068965517241" y="131.75862068965517"/>
      <point x="386.48275862068965" y="22.344827586206897" type="curve"/>
    </contour>
    <contour>
      <point x="381.7241379310345" y="74.3103448275862" type="line"/>
      <point x="390.6551724137931" y="90.3103448275862" type="line"/>
      <point x="323.2758620689655" y="208.48275862068965"/>
      <point x="205.48275862068965" y="265.51724137931035"/>
      <point x="109.86206896551724" y="294.58620689655174" type="curve"/>
      <point x="121.3103448275862" y="268.48275862068965" type="line"/>
      <point x="200.27586206896552" y="325.17241379310343"/>
      <point x="301.51724137931035" y="372.7931034482759"/>
      <point x="395.1034482758621" y="404.7586206896552" type="curve"/>
      <point x="381.7241379310345" y="424.17241379310343" type="line"/>
    </contour>
    <contour>
      <point x="200.48275862068965" y="402.7931034482759" type="curve"/>
      <point x="221.75862068965517" y="435.62068965517244" type="line"/>
      <point x="169.75862068965517" y="441.62068965517244"/>
      <point x="136.75862068965517" y="471.62068965517244"/>
      <point x="136.75862068965517" y="505.3448275862069" type="curve" smooth="yes"/>
      <point x="136.75862068965517" y="539.3448275862069"/>
      <point x="159.20689655172413" y="557.1724137931035"/>
      <point x="189.75862068965517" y="557.1724137931035" type="curve" smooth="yes"/>
      <point x="197.75862068965517" y="557.1724137931035"/>
      <point x="206.75862068965517" y="556.1724137931035"/>
      <point x="215.75862068965517" y="553.1724137931035" type="curve"/>
      <point x="180.82758620689654" y="590.0" type="line"/>
      <point x="172.55172413793105" y="578.448275862069"/>
      <point x="169.55172413793105" y="564.1724137931035"/>
      <point x="169.55172413793105" y="550.7931034482758" type="curve" smooth="yes"/>
      <point x="169.55172413793105" y="513.9655172413793"/>
      <point x="197.6551724137931" y="494.13793103448273"/>
      <point x="228.31034482758622" y="494.13793103448273" type="curve" smooth="yes"/>
      <point x="263.41379310344826" y="494.13793103448273"/>
      <point x="290.51724137931035" y="518.2413793103449"/>
      <point x="290.51724137931035" y="555.6206896551724" type="curve" smooth="yes"/>
      <point x="290.51724137931035" y="598.551724137931"/>
      <point x="259.41379310344826" y="633.4827586206897"/>
      <point x="193.82758620689654" y="633.4827586206897" type="curve" smooth="yes"/>
      <point x="117.34482758620689" y="633.4827586206897"/>
      <point x="66.6896551724138" y="588.3793103448276"/>
      <point x="66.6896551724138" y="522.7241379310345" type="curve" smooth="yes"/>
      <point x="66.6896551724138" y="441.58620689655174"/>
      <point x="149.82758620689654" y="402.7931034482759"/>
    </contour>
  </outline>
</glyph>
<glyph name="na-beng" format="2">
  <advance width="535.5862068965517"/>
  <unicode hex="09A8"/>
  <anchor x="445.0344827586207" y="70.44827586206897" name="bottom"/>
  <anchor x="455.58620689655174" y="74.6896551724138" name="bottom.rakaar"/>
  <anchor x="455.58620689655174" y="9.344827586206897" name="bottom.rvocalic"/>
  <anchor x="435.58620689655174" y="8.206896551724139" name="bottom.virama"/>
  <anchor x="450.0689655172414" y="573.5862068965517" name="top"/>
  <anchor x="452.7931034482759" y="570.2758620689655" name="topright"/>
  <anchor x="267.7931034482759" y="0.0" name="vedic"/>
  <outline>
    <contour>
      <point x="449.7586206896552" y="-16.586206896551726" type="line"/>
      <point x="455.58620689655174" y="-15.310344827586206" type="line"/>
      <point x="455.58620689655174" y="564.4827586206897" type="line"/>
      <point x="566.2413793103449" y="564.4827586206897" type="line"/>
      <point x="530.3103448275862" y="622.0" type="line"/>
      <point x="-30.655172413793103" y="622.0" type="line"/>
      <point x="5.551724137931035" y="564.4827586206897" type="line"/>
      <point x="391.9310344827586" y="564.4827586206897" type="line"/>
      <point x="391.9310344827586" y="334.37931034482756" type="line" smooth="yes"/>
      <point x="391.9310344827586" y="269.9310344827586"/>
      <point x="398.2068965517241" y="185.86206896551724"/>
      <point x="400.7586206896552" y="149.20689655172413" type="curve"/>
      <point x="411.2413793103448" y="143.72413793103448" type="line"/>
      <point x="397.9310344827586" y="278.41379310344826"/>
      <point x="308.48275862068965" y="424.3103448275862"/>
      <point x="161.6551724137931" y="424.3103448275862" type="curve" smooth="yes"/>
      <point x="86.17241379310344" y="424.3103448275862"/>
      <point x="34.689655172413794" y="380.9310344827586"/>
      <point x="34.689655172413794" y="309.2413793103448" type="curve" smooth="yes"/>
      <point x="34.689655172413794" y="245.3793103448276"/>
      <point x="71.55172413793103" y="196.44827586206895"/>
      <point x="144.75862068965517" y="196.44827586206895" type="curve" smooth="yes"/>
      <point x="207.3448275862069" y="196.44827586206895"/>
      <point x="240.72413793103448" y="235.75862068965517"/>
      <point x="240.72413793103448" y="289.41379310344826" type="curve" smooth="yes"/>
      <point x="240.72413793103448" y="311.7931034482759"/>
      <point x="233.89655172413794" y="338.51724137931035"/>
      <point x="215.24137931034483" y="351.3448275862069" type="curve"/>
      <point x="189.31034482758622" y="310.9655172413793" type="line"/>
      <point x="198.58620689655172" y="316.2413793103448"/>
      <point x="213.51724137931035" y="319.0689655172414"/>
      <point x="227.3448275862069" y="319.0689655172414" type="curve" smooth="yes"/>
      <point x="328.62068965517244" y="319.0689655172414"/>
      <point x="394.0344827586207" y="147.82758620689654"/>
      <point x="401.2413793103448" y="20.724137931034484" type="curve"/>
    </contour>
  </outline>
</glyph>
